UbuntuSansMono-BoldItalic.ufo
<glyph name="quotedbl" format="2">
  <advance width="560"/>
  <unicode hex="0022"/>
  <outline>
    <contour>
      <point x="174" y="446" type="curve"/>
      <point x="253" y="446" type="line"/>
      <point x="286" y="521"/>
      <point x="326" y="622"/>
      <point x="342" y="690" type="curve" smooth="yes"/>
      <point x="359" y="760" type="line"/>
      <point x="213" y="760" type="line"/>
      <point x="202" y="708" type="line" smooth="yes"/>
      <point x="183" y="634"/>
      <point x="178" y="522"/>
    </contour>
    <contour>
      <point x="395" y="446" type="curve"/>
      <point x="473" y="446" type="line"/>
      <point x="508" y="521"/>
      <point x="548" y="622"/>
      <point x="564" y="690" type="curve" smooth="yes"/>
      <point x="580" y="760" type="line"/>
      <point x="435" y="760" type="line"/>
      <point x="423" y="708" type="line" smooth="yes"/>
      <point x="405" y="634"/>
      <point x="398" y="522"/>
    </contour>
  </outline>
</glyph>
<glyph name="quotesingle" format="2">
  <advance width="560"/>
  <unicode hex="0027"/>
  <outline>
    <contour>
      <point x="272" y="426" type="curve"/>
      <point x="352" y="426" type="line"/>
      <point x="386" y="503"/>
      <point x="426" y="599"/>
      <point x="444" y="673" type="curve" smooth="yes"/>
      <point x="465" y="760" type="line"/>
      <point x="318" y="760" type="line"/>
      <point x="301" y="691" type="line" smooth="yes"/>
      <point x="283" y="616"/>
      <point x="276" y="503"/>
    </contour>
  </outline>
</glyph>
<glyph name="parenright" format="2">
  <advance width="560"/>
  <unicode hex="0029"/>
  <outline>
    <contour>
      <point x="57" y="-190" type="line"/>
      <point x="282" y="-67"/>
      <point x="454" y="156"/>
      <point x="454" y="429" type="curve" smooth="yes"/>
      <point x="454" y="575"/>
      <point x="385" y="713"/>
      <point x="290" y="795" type="curve"/>
      <point x="207" y="713" type="line"/>
      <point x="294" y="620"/>
      <point x="324" y="532"/>
      <point x="324" y="419" type="curve" smooth="yes"/>
      <point x="324" y="242"/>
      <point x="206" y="34"/>
      <point x="6" y="-93" type="curve"/>
    </contour>
  </outline>
</glyph>
<glyph name="asterisk" format="2">
  <advance width="560"/>
  <unicode hex="002A"/>
  <outline>
    <contour>
      <point x="404" y="255" type="line"/>
      <point x="509" y="332" type="line"/>
      <point x="488" y="360" type="line" smooth="yes"/>
      <point x="468" y="389"/>
      <point x="410" y="435"/>
      <point x="378" y="455" type="curve"/>
      <point x="416" y="454"/>
      <point x="489" y="456"/>
      <point x="524" y="467" type="curve" smooth="yes"/>
      <point x="557" y="477" type="line"/>
      <point x="517" y="601" type="line"/>
      <point x="484" y="590" type="line" smooth="yes"/>
      <point x="449" y="579"/>
      <point x="389" y="539"/>
      <point x="358" y="516" type="curve"/>
      <point x="371" y="552"/>
      <point x="391" y="622"/>
      <point x="391" y="659" type="curve" smooth="yes"/>
      <point x="391" y="693" type="line"/>
      <point x="262" y="693" type="line"/>
      <point x="262" y="659" type="line" smooth="yes"/>
      <point x="262" y="622"/>
      <point x="281" y="552"/>
      <point x="294" y="516" type="curve"/>
      <point x="264" y="540"/>
      <point x="204" y="581"/>
      <point x="170" y="594" type="curve" smooth="yes"/>
      <point x="137" y="604" type="line"/>
      <point x="96" y="482" type="line"/>
      <point x="129" y="470" type="line" smooth="yes"/>
      <point x="163" y="458"/>
      <point x="236" y="455"/>
      <point x="274" y="456" type="curve"/>
      <point x="244" y="435"/>
      <point x="186" y="390"/>
      <point x="165" y="360" type="curve" smooth="yes"/>
      <point x="144" y="332" type="line"/>
      <point x="249" y="256" type="line"/>
      <point x="270" y="284" type="line" smooth="yes"/>
      <point x="291" y="314"/>
      <point x="316" y="382"/>
      <point x="326" y="419" type="curve"/>
      <point x="337" y="381"/>
      <point x="362" y="312"/>
      <point x="384" y="283" type="curve" smooth="yes"/>
    </contour>
  </outline>
</glyph>
<glyph name="hyphen" format="2">
  <advance width="560"/>
  <unicode hex="002D"/>
  <outline>
    <contour>
      <point x="114" y="220" type="line"/>
      <point x="419" y="220" type="line"/>
      <point x="453" y="355" type="line"/>
      <point x="146" y="355" type="line"/>
    </contour>
  </outline>
</glyph>
<glyph name="one" format="2">
  <advance width="560"/>
  <unicode hex="0031"/>
  <outline>
    <contour>
      <point x="30" y="0" type="line"/>
      <point x="451" y="0" type="line"/>
      <point x="478" y="114" type="line"/>
      <point x="340" y="114" type="line"/>
      <point x="479" y="693" type="line"/>
      <point x="370" y="693" type="line"/>
      <point x="301" y="635"/>
      <point x="191" y="577"/>
      <point x="111" y="549" type="curve"/>
      <point x="144" y="437" type="line"/>
      <point x="183" y="450"/>
      <point x="248" y="480"/>
      <point x="298" y="515" type="curve"/>
      <point x="202" y="114" type="line"/>
      <point x="57" y="114" type="line"/>
    </contour>
  </outline>
</glyph>
<glyph name="two" format="2">
  <advance width="560"/>
  <unicode hex="0032"/>
  <outline>
    <contour>
      <point x="4" y="0" type="curve"/>
      <point x="453" y="0" type="line"/>
      <point x="480" y="114" type="line"/>
      <point x="171" y="114" type="line"/>
      <point x="195" y="157"/>
      <point x="244" y="198"/>
      <point x="330" y="258" type="curve" smooth="yes"/>
      <point x="444" y="337"/>
      <point x="553" y="414"/>
      <point x="553" y="547" type="curve" smooth="yes"/>
      <point x="553" y="635"/>
      <point x="486" y="709"/>
      <point x="367" y="709" type="curve" smooth="yes"/>
      <point x="286" y="709"/>
      <point x="200" y="682"/>
      <point x="123" y="622" type="curve"/>
      <point x="167" y="522" type="line"/>
      <point x="225" y="564"/>
      <point x="285" y="589"/>
      <point x="339" y="589" type="curve" smooth="yes"/>
      <point x="393" y="589"/>
      <point x="415" y="562"/>
      <point x="415" y="522" type="curve" smooth="yes"/>
      <point x="415" y="463"/>
      <point x="365" y="420"/>
      <point x="236" y="328" type="curve" smooth="yes"/>
      <point x="111" y="239"/>
      <point x="23" y="159"/>
    </contour>
  </outline>
</glyph>
<glyph name="four" format="2">
  <advance width="560"/>
  <unicode hex="0034"/>
  <outline>
    <contour>
      <point x="270" y="0" type="line"/>
      <point x="400" y="0" type="line"/>
      <point x="440" y="164" type="line"/>
      <point x="514" y="164" type="line"/>
      <point x="540" y="273" type="line"/>
      <point x="466" y="273" type="line"/>
      <point x="567" y="693" type="line"/>
      <point x="433" y="693" type="line"/>
      <point x="290" y="572"/>
      <point x="113" y="382"/>
      <point x="27" y="267" type="curve"/>
      <point x="3" y="164" type="line"/>
      <point x="309" y="164" type="line"/>
    </contour>
    <contour>
      <point x="152" y="273" type="line"/>
      <point x="222" y="364"/>
      <point x="319" y="465"/>
      <point x="402" y="542" type="curve"/>
      <point x="337" y="273" type="line"/>
    </contour>
  </outline>
</glyph>
<glyph name="five" format="2">
  <advance width="560"/>
  <unicode hex="0035"/>
  <outline>
    <contour>
      <point x="200" y="-15" type="curve" smooth="yes"/>
      <point x="393" y="-15"/>
      <point x="492" y="83"/>
      <point x="492" y="232" type="curve" smooth="yes"/>
      <point x="492" y="335"/>
      <point x="417" y="420"/>
      <point x="254" y="433" type="curve"/>
      <point x="267" y="467"/>
      <point x="285" y="524"/>
      <point x="300" y="579" type="curve"/>
      <point x="553" y="579" type="line"/>
      <point x="580" y="693" type="line"/>
      <point x="216" y="693" type="line"/>
      <point x="185" y="580"/>
      <point x="146" y="458"/>
      <point x="102" y="333" type="curve"/>
      <point x="283" y="330"/>
      <point x="356" y="288"/>
      <point x="356" y="221" type="curve" smooth="yes"/>
      <point x="356" y="140"/>
      <point x="301" y="100"/>
      <point x="197" y="100" type="curve" smooth="yes"/>
      <point x="147" y="100"/>
      <point x="92" y="114"/>
      <point x="45" y="143" type="curve"/>
      <point x="-6" y="32" type="line"/>
      <point x="57" y="0"/>
      <point x="128" y="-15"/>
    </contour>
  </outline>
</glyph>
<glyph name="seven" format="2">
  <advance width="560"/>
  <unicode hex="0037"/>
  <outline>
    <contour>
      <point x="90" y="0" type="curve"/>
      <point x="231" y="0" type="line"/>
      <point x="302" y="253"/>
      <point x="496" y="505"/>
      <point x="599" y="592" type="curve"/>
      <point x="623" y="693" type="line"/>
      <point x="141" y="693" type="line"/>
      <point x="113" y="576" type="line"/>
      <point x="427" y="576" type="line"/>
      <point x="300" y="442"/>
      <point x="145" y="199"/>
    </contour>
  </outline>
</glyph>
<glyph name="nine" format="2">
  <advance width="560"/>
  <unicode hex="0039"/>
  <outline>
    <contour>
      <point x="53" y="-4" type="curve" smooth="yes"/>
      <point x="402" y="-4"/>
      <point x="557" y="228"/>
      <point x="557" y="466" type="curve" smooth="yes"/>
      <point x="557" y="624"/>
      <point x="461" y="709"/>
      <point x="338" y="709" type="curve" smooth="yes"/>
      <point x="197" y="709"/>
      <point x="76" y="617"/>
      <point x="76" y="444" type="curve" smooth="yes"/>
      <point x="76" y="323"/>
      <point x="155" y="262"/>
      <point x="253" y="262" type="curve" smooth="yes"/>
      <point x="292" y="262"/>
      <point x="348" y="272"/>
      <point x="396" y="300" type="curve"/>
      <point x="332" y="140"/>
      <point x="192" y="108"/>
      <point x="36" y="106" type="curve"/>
      <point x="20" y="-2" type="line"/>
      <point x="29" y="-3"/>
      <point x="45" y="-4"/>
    </contour>
    <contour>
      <point x="305" y="364" type="curve" smooth="yes"/>
      <point x="251" y="364"/>
      <point x="207" y="385"/>
      <point x="207" y="454" type="curve" smooth="yes"/>
      <point x="207" y="547"/>
      <point x="256" y="594"/>
      <point x="326" y="594" type="curve" smooth="yes"/>
      <point x="393" y="594"/>
      <point x="425" y="538"/>
      <point x="425" y="469" type="curve" smooth="yes"/>
      <point x="425" y="441"/>
      <point x="421" y="416"/>
      <point x="414" y="388" type="curve"/>
      <point x="380" y="374"/>
      <point x="340" y="364"/>
    </contour>
  </outline>
</glyph>
<glyph name="equal" format="2">
  <advance width="560"/>
  <unicode hex="003D"/>
  <outline>
    <contour>
      <point x="60" y="346" type="line"/>
      <point x="530" y="346" type="line"/>
      <point x="557" y="460" type="line"/>
      <point x="88" y="460" type="line"/>
    </contour>
    <contour>
      <point x="8" y="128" type="line"/>
      <point x="479" y="128" type="line"/>
      <point x="506" y="242" type="line"/>
      <point x="35" y="242" type="line"/>
    </contour>
  </outline>
</glyph>
<glyph name="question" format="2">
  <advance width="560"/>
  <unicode hex="003F"/>
  <outline>
    <contour>
      <point x="183" y="252" type="curve"/>
      <point x="311" y="252" type="line"/>
      <point x="330" y="309"/>
      <point x="354" y="327"/>
      <point x="423" y="376" type="curve" smooth="yes"/>
      <point x="497" y="428"/>
      <point x="553" y="476"/>
      <point x="553" y="566" type="curve" smooth="yes"/>
      <point x="553" y="645"/>
      <point x="502" y="709"/>
      <point x="371" y="709" type="curve" smooth="yes"/>
      <point x="300" y="709"/>
      <point x="234" y="690"/>
      <point x="173" y="657" type="curve"/>
      <point x="190" y="551" type="line"/>
      <point x="248" y="577"/>
      <point x="284" y="594"/>
      <point x="333" y="594" type="curve" smooth="yes"/>
      <point x="380" y="594"/>
      <point x="404" y="575"/>
      <point x="404" y="542" type="curve" smooth="yes"/>
      <point x="404" y="496"/>
      <point x="380" y="479"/>
      <point x="309" y="427" type="curve" smooth="yes"/>
      <point x="225" y="367"/>
      <point x="194" y="320"/>
    </contour>
    <contour>
      <point x="213" y="-13" type="curve" smooth="yes"/>
      <point x="266" y="-13"/>
      <point x="314" y="31"/>
      <point x="314" y="91" type="curve" smooth="yes"/>
      <point x="314" y="146"/>
      <point x="278" y="174"/>
      <point x="231" y="174" type="curve" smooth="yes"/>
      <point x="180" y="174"/>
      <point x="130" y="132"/>
      <point x="130" y="71" type="curve" smooth="yes"/>
      <point x="130" y="16"/>
      <point x="167" y="-13"/>
    </contour>
  </outline>
</glyph>
<glyph name="at" format="2">
  <advance width="560"/>
  <unicode hex="0040"/>
  <outline>
    <contour>
      <point x="293" y="-151" type="curve" smooth="yes"/>
      <point x="337" y="-151"/>
      <point x="377" y="-144"/>
      <point x="415" y="-136" type="curve"/>
      <point x="423" y="-39" type="line"/>
      <point x="410" y="-43"/>
      <point x="372" y="-54"/>
      <point x="309" y="-54" type="curve" smooth="yes"/>
      <point x="193" y="-54"/>
      <point x="124" y="12"/>
      <point x="124" y="178" type="curve" smooth="yes"/>
      <point x="124" y="448"/>
      <point x="244" y="613"/>
      <point x="385" y="613" type="curve" smooth="yes"/>
      <point x="440" y="613"/>
      <point x="474" y="582"/>
      <point x="474" y="536" type="curve" smooth="yes"/>
      <point x="474" y="525"/>
      <point x="471" y="503"/>
      <point x="466" y="487" type="curve"/>
      <point x="456" y="491"/>
      <point x="435" y="496"/>
      <point x="409" y="496" type="curve" smooth="yes"/>
      <point x="265" y="496"/>
      <point x="192" y="354"/>
      <point x="192" y="216" type="curve" smooth="yes"/>
      <point x="192" y="88"/>
      <point x="257" y="39"/>
      <point x="353" y="39" type="curve" smooth="yes"/>
      <point x="391" y="39"/>
      <point x="440" y="48"/>
      <point x="481" y="62" type="curve"/>
      <point x="572" y="439" type="line" smooth="yes"/>
      <point x="580" y="472"/>
      <point x="585" y="510"/>
      <point x="585" y="538" type="curve" smooth="yes"/>
      <point x="585" y="647"/>
      <point x="524" y="709"/>
      <point x="390" y="709" type="curve" smooth="yes"/>
      <point x="173" y="709"/>
      <point x="20" y="478"/>
      <point x="20" y="165" type="curve" smooth="yes"/>
      <point x="20" y="-49"/>
      <point x="118" y="-151"/>
    </contour>
    <contour>
      <point x="365" y="146" type="curve" smooth="yes"/>
      <point x="326" y="146"/>
      <point x="304" y="170"/>
      <point x="304" y="217" type="curve" smooth="yes"/>
      <point x="304" y="300"/>
      <point x="335" y="389"/>
      <point x="413" y="389" type="curve" smooth="yes"/>
      <point x="425" y="389"/>
      <point x="436" y="385"/>
      <point x="441" y="382" type="curve"/>
      <point x="385" y="148" type="line"/>
      <point x="379" y="146"/>
      <point x="369" y="146"/>
    </contour>
  </outline>
</glyph>
<glyph name="G" format="2">
  <advance width="560"/>
  <unicode hex="0047"/>
  <anchor x="217" y="0" name="bottom"/>
  <anchor x="381" y="685" name="top"/>
  <outline>
    <contour>
      <point x="253" y="-15" type="curve" smooth="yes"/>
      <point x="340" y="-15"/>
      <point x="417" y="4"/>
      <point x="452" y="17" type="curve"/>
      <point x="535" y="363" type="line"/>
      <point x="397" y="363" type="line"/>
      <point x="337" y="110" type="line"/>
      <point x="320" y="108"/>
      <point x="301" y="105"/>
      <point x="282" y="105" type="curve" smooth="yes"/>
      <point x="210" y="105"/>
      <point x="183" y="164"/>
      <point x="183" y="243" type="curve" smooth="yes"/>
      <point x="183" y="398"/>
      <point x="262" y="589"/>
      <point x="414" y="589" type="curve" smooth="yes"/>
      <point x="475" y="589"/>
      <point x="515" y="571"/>
      <point x="544" y="549" type="curve"/>
      <point x="595" y="655" type="line"/>
      <point x="580" y="669"/>
      <point x="524" y="709"/>
      <point x="428" y="709" type="curve" smooth="yes"/>
      <point x="173" y="709"/>
      <point x="45" y="455"/>
      <point x="45" y="230" type="curve" smooth="yes"/>
      <point x="45" y="75"/>
      <point x="115" y="-15"/>
    </contour>
  </outline>
</glyph>
<glyph name="M" format="2">
  <advance width="560"/>
  <unicode hex="004D"/>
  <anchor x="217" y="0" name="bottom"/>
  <anchor x="381" y="685" name="top"/>
  <outline>
    <contour>
      <point x="-35" y="0" type="curve"/>
      <point x="91" y="0" type="line"/>
      <point x="133" y="179"/>
      <point x="174" y="360"/>
      <point x="216" y="539" type="curve"/>
      <point x="222" y="449"/>
      <point x="230" y="344"/>
      <point x="234" y="245" type="curve"/>
      <point x="331" y="245" type="line"/>
      <point x="486" y="544" type="line"/>
      <point x="440" y="363"/>
      <point x="393" y="181"/>
      <point x="347" y="0" type="curve"/>
      <point x="473" y="0" type="line"/>
      <point x="526" y="239"/>
      <point x="574" y="469"/>
      <point x="603" y="693" type="curve"/>
      <point x="477" y="693" type="line"/>
      <point x="309" y="370" type="line"/>
      <point x="304" y="478"/>
      <point x="291" y="629"/>
      <point x="284" y="693" type="curve"/>
      <point x="165" y="693" type="line"/>
      <point x="100" y="503"/>
      <point x="27" y="226"/>
    </contour>
  </outline>
</glyph>
<glyph name="N" format="2">
  <advance width="560"/>
  <unicode hex="004E"/>
  <anchor x="217" y="0" name="bottom"/>
  <anchor x="381" y="685" name="top"/>
  <outline>
    <contour>
      <point x="-13" y="0" type="line"/>
      <point x="109" y="0" type="line"/>
      <point x="228" y="497" type="line"/>
      <point x="276" y="312"/>
      <point x="310" y="152"/>
      <point x="335" y="0" type="curve"/>
      <point x="447" y="0" type="line"/>
      <point x="613" y="693" type="line"/>
      <point x="491" y="693" type="line"/>
      <point x="385" y="244" type="line"/>
      <point x="365" y="374"/>
      <point x="313" y="562"/>
      <point x="270" y="693" type="curve"/>
      <point x="153" y="693" type="line"/>
    </contour>
  </outline>
</glyph>
<glyph name="R" format="2">
  <advance width="560"/>
  <unicode hex="0052"/>
  <anchor x="217" y="0" name="bottom"/>
  <anchor x="381" y="685" name="top"/>
  <outline>
    <contour>
      <point x="-4" y="0" type="line"/>
      <point x="132" y="0" type="line"/>
      <point x="193" y="255" type="line"/>
      <point x="265" y="255" type="line"/>
      <point x="305" y="172"/>
      <point x="335" y="88"/>
      <point x="352" y="0" type="curve"/>
      <point x="487" y="0" type="line"/>
      <point x="468" y="92"/>
      <point x="428" y="208"/>
      <point x="385" y="283" type="curve"/>
      <point x="497" y="315"/>
      <point x="555" y="416"/>
      <point x="555" y="521" type="curve" smooth="yes"/>
      <point x="555" y="631"/>
      <point x="481" y="701"/>
      <point x="334" y="701" type="curve" smooth="yes"/>
      <point x="290" y="701"/>
      <point x="216" y="696"/>
      <point x="158" y="682" type="curve"/>
    </contour>
    <contour>
      <point x="220" y="370" type="line"/>
      <point x="272" y="582" type="line"/>
      <point x="284" y="585"/>
      <point x="297" y="587"/>
      <point x="313" y="587" type="curve" smooth="yes"/>
      <point x="389" y="587"/>
      <point x="417" y="557"/>
      <point x="417" y="505" type="curve" smooth="yes"/>
      <point x="417" y="412"/>
      <point x="350" y="370"/>
      <point x="272" y="370" type="curve"/>
    </contour>
  </outline>
</glyph>
<glyph name="S" format="2">
  <advance width="560"/>
  <unicode hex="0053"/>
  <anchor x="217" y="0" name="bottom"/>
  <anchor x="381" y="685" name="top"/>
  <outline>
    <contour>
      <point x="208" y="-15" type="curve" smooth="yes"/>
      <point x="386" y="-15"/>
      <point x="489" y="68"/>
      <point x="489" y="220" type="curve" smooth="yes"/>
      <point x="489" y="330"/>
      <point x="424" y="374"/>
      <point x="335" y="416" type="curve" smooth="yes"/>
      <point x="287" y="437"/>
      <point x="249" y="458"/>
      <point x="249" y="508" type="curve" smooth="yes"/>
      <point x="249" y="571"/>
      <point x="295" y="594"/>
      <point x="351" y="594" type="curve" smooth="yes"/>
      <point x="424" y="594"/>
      <point x="477" y="575"/>
      <point x="510" y="551" type="curve"/>
      <point x="568" y="657" type="line"/>
      <point x="538" y="676"/>
      <point x="477" y="709"/>
      <point x="369" y="709" type="curve" smooth="yes"/>
      <point x="206" y="709"/>
      <point x="113" y="622"/>
      <point x="113" y="491" type="curve" smooth="yes"/>
      <point x="113" y="382"/>
      <point x="169" y="348"/>
      <point x="244" y="310" type="curve" smooth="yes"/>
      <point x="303" y="280"/>
      <point x="351" y="252"/>
      <point x="351" y="197" type="curve" smooth="yes"/>
      <point x="351" y="127"/>
      <point x="292" y="101"/>
      <point x="222" y="101" type="curve" smooth="yes"/>
      <point x="146" y="101"/>
      <point x="81" y="132"/>
      <point x="52" y="151" type="curve"/>
      <point x="-7" y="46" type="line"/>
      <point x="23" y="25"/>
      <point x="88" y="-15"/>
    </contour>
  </outline>
</glyph>
<glyph name="V" format="2">
  <advance width="560"/>
  <unicode hex="0056"/>
  <anchor x="217" y="0" name="bottom"/>
  <anchor x="381" y="685" name="top"/>
  <outline>
    <contour>
      <point x="148" y="0" type="curve"/>
      <point x="295" y="0" type="line"/>
      <point x="440" y="237"/>
      <point x="572" y="515"/>
      <point x="649" y="693" type="curve"/>
      <point x="506" y="693" type="line"/>
      <point x="449" y="550"/>
      <point x="337" y="296"/>
      <point x="255" y="140" type="curve"/>
      <point x="246" y="307"/>
      <point x="247" y="526"/>
      <point x="253" y="693" type="curve"/>
      <point x="111" y="693" type="line"/>
      <point x="104" y="560"/>
      <point x="125" y="174"/>
    </contour>
  </outline>
</glyph>
<glyph name="X" format="2">
  <advance width="560"/>
  <unicode hex="0058"/>
  <anchor x="217" y="0" name="bottom"/>
  <anchor x="381" y="685" name="top"/>
  <outline>
    <contour>
      <point x="-40" y="0" type="line"/>
      <point x="118" y="0" type="line"/>
      <point x="298" y="255" type="line"/>
      <point x="323" y="172"/>
      <point x="343" y="76"/>
      <point x="353" y="0" type="curve"/>
      <point x="490" y="0" type="line"/>
      <point x="480" y="80"/>
      <point x="441" y="241"/>
      <point x="391" y="370" type="curve"/>
      <point x="477" y="474"/>
      <point x="562" y="579"/>
      <point x="641" y="693" type="curve"/>
      <point x="496" y="693" type="line"/>
      <point x="449" y="620"/>
      <point x="393" y="545"/>
      <point x="343" y="482" type="curve"/>
      <point x="267" y="693" type="line"/>
      <point x="126" y="693" type="line"/>
      <point x="249" y="379" type="line"/>
    </contour>
  </outline>
</glyph>
<glyph name="Y" format="2">
  <advance width="560"/>
  <unicode hex="0059"/>
  <anchor x="217" y="0" name="bottom"/>
  <anchor x="381" y="685" name="top"/>
  <anchor x="123" y="693" name="topleft"/>
  <outline>
    <contour>
      <point x="150" y="0" type="line"/>
      <point x="287" y="0" type="line"/>
      <point x="351" y="264" type="line"/>
      <point x="472" y="410"/>
      <point x="558" y="541"/>
      <point x="650" y="693" type="curve"/>
      <point x="502" y="693" type="line"/>
      <point x="449" y="597"/>
      <point x="356" y="450"/>
      <point x="306" y="381" type="curve"/>
      <point x="284" y="473"/>
      <point x="262" y="586"/>
      <point x="253" y="693" type="curve"/>
      <point x="117" y="693" type="line"/>
      <point x="138" y="541"/>
      <point x="166" y="409"/>
      <point x="212" y="263" type="curve"/>
    </contour>
  </outline>
</glyph>
<glyph name="Z" format="2">
  <advance width="560"/>
  <unicode hex="005A"/>
  <anchor x="217" y="0" name="bottom"/>
  <anchor x="300" y="347" name="center"/>
  <anchor x="381" y="685" name="top"/>
  <outline>
    <contour>
      <point x="-11" y="0" type="line"/>
      <point x="444" y="0" type="line"/>
      <point x="472" y="113" type="line"/>
      <point x="171" y="113" type="line"/>
      <point x="282" y="252"/>
      <point x="398" y="388"/>
      <point x="571" y="581" type="curve"/>
      <point x="598" y="693" type="line"/>
      <point x="165" y="693" type="line"/>
      <point x="137" y="580" type="line"/>
      <point x="417" y="580" type="line"/>
      <point x="219" y="358"/>
      <point x="104" y="217"/>
      <point x="12" y="91" type="curve"/>
    </contour>
  </outline>
</glyph>
<glyph name="bracketleft" format="2">
  <advance width="560"/>
  <unicode hex="005B"/>
  <outline>
    <contour>
      <point x="58" y="-185" type="line"/>
      <point x="369" y="-185" type="line"/>
      <point x="395" y="-77" type="line"/>
      <point x="216" y="-77" type="line"/>
      <point x="397" y="675" type="line"/>
      <point x="576" y="675" type="line"/>
      <point x="602" y="783" type="line"/>
      <point x="291" y="783" type="line"/>
    </contour>
  </outline>
</glyph>
<glyph name="bracketright" format="2">
  <advance width="560"/>
  <unicode hex="005D"/>
  <outline>
    <contour>
      <point x="-25" y="-185" type="line"/>
      <point x="286" y="-185" type="line"/>
      <point x="519" y="783" type="line"/>
      <point x="208" y="783" type="line"/>
      <point x="182" y="675" type="line"/>
      <point x="361" y="675" type="line"/>
      <point x="180" y="-77" type="line"/>
      <point x="1" y="-77" type="line"/>
    </contour>
  </outline>
</glyph>
<glyph name="asciicircum" format="2">
  <advance width="560"/>
  <unicode hex="005E"/>
  <outline>
    <contour>
      <point x="434" y="289" type="line"/>
      <point x="559" y="343" type="line"/>
      <point x="442" y="693" type="line"/>
      <point x="325" y="693" type="line"/>
      <point x="44" y="356" type="line"/>
      <point x="148" y="293" type="line"/>
      <point x="352" y="542" type="line"/>
    </contour>
  </outline>
</glyph>
<glyph name="c" format="2">
  <advance width="560"/>
  <unicode hex="0063"/>
  <anchor x="217" y="0" name="bottom"/>
  <anchor x="343" y="526" name="top"/>
  <outline>
    <contour>
      <point x="285" y="-12" type="curve" smooth="yes"/>
      <point x="390" y="-12"/>
      <point x="433" y="4"/>
      <point x="469" y="24" type="curve"/>
      <point x="455" y="133" type="line"/>
      <point x="430" y="122"/>
      <point x="376" y="108"/>
      <point x="318" y="108" type="curve" smooth="yes"/>
      <point x="209" y="108"/>
      <point x="183" y="151"/>
      <point x="183" y="209" type="curve" smooth="yes"/>
      <point x="183" y="344"/>
      <point x="273" y="420"/>
      <point x="394" y="420" type="curve" smooth="yes"/>
      <point x="442" y="420"/>
      <point x="480" y="410"/>
      <point x="503" y="400" type="curve"/>
      <point x="553" y="510" type="line"/>
      <point x="515" y="526"/>
      <point x="473" y="539"/>
      <point x="394" y="539" type="curve" smooth="yes"/>
      <point x="189" y="539"/>
      <point x="44" y="398"/>
      <point x="44" y="204" type="curve" smooth="yes"/>
      <point x="44" y="86"/>
      <point x="104" y="-12"/>
    </contour>
  </outline>
</glyph>
<glyph name="r" format="2">
  <advance width="560"/>
  <unicode hex="0072"/>
  <anchor x="217" y="0" name="bottom"/>
  <anchor x="343" y="526" name="top"/>
  <outline>
    <contour>
      <point x="35" y="0" type="line"/>
      <point x="173" y="0" type="line"/>
      <point x="266" y="390" type="line"/>
      <point x="301" y="402"/>
      <point x="343" y="407"/>
      <point x="382" y="407" type="curve" smooth="yes"/>
      <point x="438" y="407"/>
      <point x="477" y="400"/>
      <point x="505" y="390" type="curve"/>
      <point x="557" y="516" type="line"/>
      <point x="512" y="529"/>
      <point x="465" y="536"/>
      <point x="381" y="536" type="curve" smooth="yes"/>
      <point x="310" y="536"/>
      <point x="222" y="520"/>
      <point x="153" y="492" type="curve"/>
    </contour>
  </outline>
</glyph>
<glyph name="v" format="2">
  <advance width="560"/>
  <unicode hex="0076"/>
  <anchor x="217" y="0" name="bottom"/>
  <anchor x="343" y="526" name="top"/>
  <outline>
    <contour>
      <point x="153" y="0" type="curve"/>
      <point x="277" y="0" type="line"/>
      <point x="374" y="113"/>
      <point x="508" y="335"/>
      <point x="580" y="526" type="curve"/>
      <point x="432" y="526" type="line"/>
      <point x="398" y="416"/>
      <point x="312" y="245"/>
      <point x="249" y="156" type="curve"/>
      <point x="234" y="264"/>
      <point x="222" y="418"/>
      <point x="220" y="526" type="curve"/>
      <point x="77" y="526" type="line"/>
      <point x="88" y="316"/>
      <point x="118" y="136"/>
    </contour>
  </outline>
</glyph>
<glyph name="braceleft" format="2">
  <advance width="560"/>
  <unicode hex="007B"/>
  <outline>
    <contour>
      <point x="282" y="-185" type="curve" smooth="yes"/>
      <point x="386" y="-185" type="line"/>
      <point x="412" y="-77" type="line"/>
      <point x="311" y="-77" type="line" smooth="yes"/>
      <point x="272" y="-77"/>
      <point x="259" y="-58"/>
      <point x="259" y="-34" type="curve" smooth="yes"/>
      <point x="259" y="-19"/>
      <point x="264" y="1"/>
      <point x="267" y="16" type="curve" smooth="yes"/>
      <point x="292" y="127" type="line" smooth="yes"/>
      <point x="297" y="147"/>
      <point x="300" y="169"/>
      <point x="300" y="190" type="curve" smooth="yes"/>
      <point x="300" y="235"/>
      <point x="285" y="277"/>
      <point x="235" y="299" type="curve"/>
      <point x="313" y="314"/>
      <point x="349" y="361"/>
      <point x="369" y="444" type="curve" smooth="yes"/>
      <point x="403" y="586" type="line" smooth="yes"/>
      <point x="418" y="650"/>
      <point x="433" y="675"/>
      <point x="496" y="675" type="curve" smooth="yes"/>
      <point x="580" y="675" type="line"/>
      <point x="606" y="783" type="line"/>
      <point x="487" y="783" type="line" smooth="yes"/>
      <point x="352" y="783"/>
      <point x="309" y="724"/>
      <point x="283" y="613" type="curve" smooth="yes"/>
      <point x="244" y="447" type="line" smooth="yes"/>
      <point x="230" y="386"/>
      <point x="195" y="353"/>
      <point x="150" y="353" type="curve" smooth="yes"/>
      <point x="95" y="353" type="line"/>
      <point x="69" y="245" type="line"/>
      <point x="122" y="245" type="line" smooth="yes"/>
      <point x="165" y="245"/>
      <point x="178" y="220"/>
      <point x="178" y="190" type="curve" smooth="yes"/>
      <point x="178" y="172"/>
      <point x="173" y="155"/>
      <point x="169" y="137" type="curve" smooth="yes"/>
      <point x="141" y="15" type="line" smooth="yes"/>
      <point x="134" y="-12"/>
      <point x="130" y="-35"/>
      <point x="130" y="-55" type="curve" smooth="yes"/>
      <point x="130" y="-151"/>
      <point x="195" y="-185"/>
    </contour>
  </outline>
</glyph>
<glyph name="currency" format="2">
  <advance width="560"/>
  <unicode hex="00A4"/>
  <outline>
    <contour>
      <point x="130" y="99" type="line"/>
      <point x="206" y="170" type="line"/>
      <point x="235" y="157"/>
      <point x="265" y="150"/>
      <point x="300" y="150" type="curve" smooth="yes"/>
      <point x="335" y="150"/>
      <point x="363" y="157"/>
      <point x="391" y="170" type="curve"/>
      <point x="466" y="99" type="line"/>
      <point x="558" y="188" type="line"/>
      <point x="487" y="258" type="line"/>
      <point x="500" y="284"/>
      <point x="507" y="314"/>
      <point x="507" y="349" type="curve" smooth="yes"/>
      <point x="507" y="383"/>
      <point x="500" y="413"/>
      <point x="487" y="439" type="curve"/>
      <point x="558" y="510" type="line"/>
      <point x="468" y="599" type="line"/>
      <point x="393" y="528" type="line"/>
      <point x="363" y="540"/>
      <point x="333" y="547"/>
      <point x="300" y="547" type="curve" smooth="yes"/>
      <point x="263" y="547"/>
      <point x="235" y="540"/>
      <point x="207" y="528" type="curve"/>
      <point x="132" y="599" type="line"/>
      <point x="40" y="510" type="line"/>
      <point x="113" y="439" type="line"/>
      <point x="98" y="413"/>
      <point x="91" y="383"/>
      <point x="91" y="348" type="curve" smooth="yes"/>
      <point x="91" y="314"/>
      <point x="98" y="284"/>
      <point x="113" y="258" type="curve"/>
      <point x="40" y="188" type="line"/>
    </contour>
    <contour>
      <point x="300" y="259" type="curve" smooth="yes"/>
      <point x="253" y="259"/>
      <point x="214" y="290"/>
      <point x="214" y="348" type="curve" smooth="yes"/>
      <point x="214" y="407"/>
      <point x="253" y="438"/>
      <point x="300" y="438" type="curve" smooth="yes"/>
      <point x="346" y="438"/>
      <point x="384" y="407"/>
      <point x="384" y="349" type="curve" smooth="yes"/>
      <point x="384" y="290"/>
      <point x="346" y="259"/>
    </contour>
  </outline>
</glyph>
<glyph name="section" format="2">
  <advance width="560"/>
  <unicode hex="00A7"/>
  <outline>
    <contour>
      <point x="169" y="-109" type="curve" smooth="yes"/>
      <point x="337" y="-109"/>
      <point x="412" y="-20"/>
      <point x="412" y="67" type="curve" smooth="yes"/>
      <point x="412" y="96"/>
      <point x="406" y="127"/>
      <point x="380" y="153" type="curve"/>
      <point x="461" y="199"/>
      <point x="505" y="267"/>
      <point x="505" y="329" type="curve" smooth="yes"/>
      <point x="505" y="412"/>
      <point x="452" y="437"/>
      <point x="382" y="474" type="curve" smooth="yes"/>
      <point x="321" y="506"/>
      <point x="295" y="517"/>
      <point x="295" y="549" type="curve" smooth="yes"/>
      <point x="295" y="579"/>
      <point x="328" y="601"/>
      <point x="394" y="601" type="curve" smooth="yes"/>
      <point x="430" y="601"/>
      <point x="469" y="592"/>
      <point x="510" y="572" type="curve"/>
      <point x="557" y="672" type="line"/>
      <point x="514" y="696"/>
      <point x="454" y="709"/>
      <point x="396" y="709" type="curve" smooth="yes"/>
      <point x="242" y="709"/>
      <point x="164" y="631"/>
      <point x="164" y="549" type="curve" smooth="yes"/>
      <point x="164" y="519"/>
      <point x="172" y="486"/>
      <point x="193" y="463" type="curve"/>
      <point x="118" y="417"/>
      <point x="71" y="351"/>
      <point x="71" y="286" type="curve" smooth="yes"/>
      <point x="71" y="204"/>
      <point x="123" y="174"/>
      <point x="194" y="139" type="curve" smooth="yes"/>
      <point x="256" y="108"/>
      <point x="281" y="96"/>
      <point x="281" y="62" type="curve" smooth="yes"/>
      <point x="281" y="28"/>
      <point x="248" y="0"/>
      <point x="166" y="0" type="curve" smooth="yes"/>
      <point x="124" y="0"/>
      <point x="85" y="9"/>
      <point x="43" y="32" type="curve"/>
      <point x="-4" y="-68" type="line"/>
      <point x="39" y="-95"/>
      <point x="106" y="-109"/>
    </contour>
    <contour>
      <point x="306" y="207" type="curve"/>
      <point x="292" y="214"/>
      <point x="276" y="222"/>
      <point x="262" y="228" type="curve" smooth="yes"/>
      <point x="216" y="250"/>
      <point x="194" y="282"/>
      <point x="194" y="310" type="curve" smooth="yes"/>
      <point x="194" y="351"/>
      <point x="223" y="382"/>
      <point x="267" y="410" type="curve"/>
      <point x="279" y="404"/>
      <point x="293" y="399"/>
      <point x="305" y="393" type="curve" smooth="yes"/>
      <point x="361" y="368"/>
      <point x="382" y="339"/>
      <point x="382" y="306" type="curve" smooth="yes"/>
      <point x="382" y="270"/>
      <point x="351" y="234"/>
    </contour>
  </outline>
</glyph>
<glyph name="guillemetleft" format="2">
  <advance width="560"/>
  <unicode hex="00AB"/>
  <outline>
    <contour>
      <point x="391" y="52" type="line"/>
      <point x="469" y="92" type="line"/>
      <point x="404" y="281" type="line"/>
      <point x="546" y="468" type="line"/>
      <point x="477" y="519" type="line"/>
      <point x="282" y="290" type="line"/>
    </contour>
    <contour>
      <point x="167" y="52" type="line"/>
      <point x="245" y="92" type="line"/>
      <point x="180" y="281" type="line"/>
      <point x="322" y="468" type="line"/>
      <point x="253" y="519" type="line"/>
      <point x="58" y="290" type="line"/>
    </contour>
  </outline>
</glyph>
<glyph name="registered" format="2">
  <advance width="560"/>
  <unicode hex="00AE"/>
  <outline>
    <contour>
      <point x="344" y="280" type="curve" smooth="yes"/>
      <point x="469" y="280"/>
      <point x="586" y="370"/>
      <point x="586" y="527" type="curve" smooth="yes"/>
      <point x="586" y="683"/>
      <point x="470" y="773"/>
      <point x="344" y="773" type="curve" smooth="yes"/>
      <point x="217" y="773"/>
      <point x="101" y="683"/>
      <point x="101" y="527" type="curve" smooth="yes"/>
      <point x="101" y="370"/>
      <point x="218" y="280"/>
    </contour>
    <contour>
      <point x="344" y="352" type="curve" smooth="yes"/>
      <point x="245" y="352"/>
      <point x="177" y="422"/>
      <point x="177" y="527" type="curve" smooth="yes"/>
      <point x="177" y="633"/>
      <point x="246" y="703"/>
      <point x="344" y="703" type="curve" smooth="yes"/>
      <point x="442" y="703"/>
      <point x="510" y="632"/>
      <point x="510" y="527" type="curve" smooth="yes"/>
      <point x="510" y="421"/>
      <point x="441" y="352"/>
    </contour>
    <contour>
      <point x="253" y="416" type="line"/>
      <point x="328" y="416" type="line"/>
      <point x="328" y="489" type="line"/>
      <point x="339" y="489" type="line"/>
      <point x="342" y="489"/>
      <point x="344" y="489"/>
      <point x="346" y="489" type="curve"/>
      <point x="358" y="468"/>
      <point x="367" y="444"/>
      <point x="377" y="416" type="curve"/>
      <point x="456" y="416" type="line"/>
      <point x="445" y="452"/>
      <point x="429" y="485"/>
      <point x="412" y="510" type="curve"/>
      <point x="432" y="523"/>
      <point x="444" y="546"/>
      <point x="444" y="571" type="curve" smooth="yes"/>
      <point x="444" y="621"/>
      <point x="403" y="652"/>
      <point x="336" y="652" type="curve" smooth="yes"/>
      <point x="316" y="652"/>
      <point x="284" y="648"/>
      <point x="253" y="640" type="curve"/>
    </contour>
    <contour>
      <point x="328" y="548" type="line"/>
      <point x="328" y="585" type="line"/>
      <point x="332" y="586"/>
      <point x="336" y="587"/>
      <point x="343" y="587" type="curve" smooth="yes"/>
      <point x="358" y="587"/>
      <point x="369" y="581"/>
      <point x="369" y="567" type="curve" smooth="yes"/>
      <point x="369" y="554"/>
      <point x="357" y="548"/>
      <point x="341" y="548" type="curve" smooth="yes"/>
    </contour>
  </outline>
</glyph>
<glyph name="micro" format="2">
  <advance width="560"/>
  <unicode hex="00B5"/>
  <outline>
    <contour>
      <point x="-41" y="-185" type="line"/>
      <point x="94" y="-185" type="line"/>
      <point x="116" y="-92" type="line" smooth="yes"/>
      <point x="125" y="-53"/>
      <point x="130" y="-24"/>
      <point x="132" y="16" type="curve"/>
      <point x="151" y="0"/>
      <point x="184" y="-12"/>
      <point x="222" y="-12" type="curve" smooth="yes"/>
      <point x="277" y="-12"/>
      <point x="322" y="15"/>
      <point x="351" y="40" type="curve"/>
      <point x="371" y="9"/>
      <point x="400" y="-10"/>
      <point x="468" y="-11" type="curve"/>
      <point x="507" y="102" type="line"/>
      <point x="477" y="108"/>
      <point x="463" y="122"/>
      <point x="463" y="150" type="curve" smooth="yes"/>
      <point x="463" y="169"/>
      <point x="468" y="195"/>
      <point x="475" y="223" type="curve"/>
      <point x="548" y="526" type="line"/>
      <point x="412" y="526" type="line"/>
      <point x="337" y="216" type="line" smooth="yes"/>
      <point x="331" y="192"/>
      <point x="328" y="165"/>
      <point x="332" y="141" type="curve"/>
      <point x="312" y="127"/>
      <point x="286" y="108"/>
      <point x="245" y="108" type="curve" smooth="yes"/>
      <point x="201" y="108"/>
      <point x="186" y="134"/>
      <point x="186" y="171" type="curve" smooth="yes"/>
      <point x="186" y="202"/>
      <point x="197" y="241"/>
      <point x="206" y="274" type="curve" smooth="yes"/>
      <point x="266" y="526" type="line"/>
      <point x="129" y="526" type="line"/>
    </contour>
  </outline>
</glyph>
<glyph name="paragraph" format="2">
  <advance width="560"/>
  <unicode hex="00B6"/>
  <outline>
    <contour>
      <point x="86" y="-185" type="line"/>
      <point x="200" y="-185" type="line"/>
      <point x="385" y="587" type="line"/>
      <point x="394" y="588"/>
      <point x="404" y="588"/>
      <point x="414" y="588" type="curve" smooth="yes"/>
      <point x="440" y="588"/>
      <point x="464" y="586"/>
      <point x="474" y="585" type="curve"/>
      <point x="290" y="-185" type="line"/>
      <point x="403" y="-185" type="line"/>
      <point x="610" y="678" type="line"/>
      <point x="557" y="692"/>
      <point x="479" y="701"/>
      <point x="408" y="701" type="curve" smooth="yes"/>
      <point x="225" y="701"/>
      <point x="62" y="599"/>
      <point x="62" y="416" type="curve" smooth="yes"/>
      <point x="62" y="336"/>
      <point x="106" y="278"/>
      <point x="193" y="260" type="curve"/>
    </contour>
  </outline>
</glyph>
<glyph name="cedilla" format="2">
  <advance width="560"/>
  <unicode hex="00B8"/>
  <outline>
    <contour>
      <point x="195" y="-190" type="curve" smooth="yes"/>
      <point x="275" y="-190"/>
      <point x="333" y="-155"/>
      <point x="333" y="-94" type="curve" smooth="yes"/>
      <point x="333" y="-67"/>
      <point x="321" y="-45"/>
      <point x="288" y="-28" type="curve"/>
      <point x="300" y="-11"/>
      <point x="311" y="6"/>
      <point x="322" y="20" type="curve"/>
      <point x="230" y="20" type="line"/>
      <point x="213" y="-2"/>
      <point x="200" y="-20"/>
      <point x="182" y="-48" type="curve"/>
      <point x="226" y="-59"/>
      <point x="231" y="-74"/>
      <point x="231" y="-90" type="curve" smooth="yes"/>
      <point x="231" y="-100"/>
      <point x="222" y="-118"/>
      <point x="189" y="-118" type="curve" smooth="yes"/>
      <point x="169" y="-118"/>
      <point x="145" y="-112"/>
      <point x="128" y="-103" type="curve"/>
      <point x="99" y="-168" type="line"/>
      <point x="127" y="-183"/>
      <point x="160" y="-190"/>
    </contour>
  </outline>
</glyph>
<glyph name="ordmasculine" format="2">
  <advance width="560"/>
  <unicode hex="00BA"/>
  <outline>
    <contour>
      <point x="303" y="306" type="curve" smooth="yes"/>
      <point x="453" y="306"/>
      <point x="531" y="435"/>
      <point x="531" y="567" type="curve" smooth="yes"/>
      <point x="531" y="654"/>
      <point x="484" y="709"/>
      <point x="380" y="709" type="curve" smooth="yes"/>
      <point x="230" y="709"/>
      <point x="152" y="581"/>
      <point x="152" y="448" type="curve" smooth="yes"/>
      <point x="152" y="361"/>
      <point x="199" y="306"/>
    </contour>
    <contour>
      <point x="314" y="396" type="curve" smooth="yes"/>
      <point x="285" y="396"/>
      <point x="256" y="407"/>
      <point x="256" y="456" type="curve" smooth="yes"/>
      <point x="256" y="548"/>
      <point x="310" y="619"/>
      <point x="369" y="619" type="curve" smooth="yes"/>
      <point x="398" y="619"/>
      <point x="427" y="608"/>
      <point x="427" y="559" type="curve" smooth="yes"/>
      <point x="427" y="467"/>
      <point x="374" y="396"/>
    </contour>
  </outline>
</glyph>
<glyph name="guillemetright" format="2">
  <advance width="560"/>
  <unicode hex="00BB"/>
  <outline>
    <contour>
      <point x="324" y="52" type="line"/>
      <point x="518" y="280" type="line"/>
      <point x="409" y="519" type="line"/>
      <point x="331" y="478" type="line"/>
      <point x="396" y="289" type="line"/>
      <point x="254" y="102" type="line"/>
    </contour>
    <contour>
      <point x="100" y="52" type="line"/>
      <point x="294" y="280" type="line"/>
      <point x="185" y="519" type="line"/>
      <point x="107" y="478" type="line"/>
      <point x="172" y="289" type="line"/>
      <point x="30" y="102" type="line"/>
    </contour>
  </outline>
</glyph>
<glyph name="AE" format="2">
  <advance width="560"/>
  <unicode hex="00C6"/>
  <anchor x="217" y="0" name="bottom"/>
  <anchor x="381" y="685" name="top"/>
  <outline>
    <contour>
      <point x="-57" y="0" type="curve"/>
      <point x="81" y="0" type="line"/>
      <point x="151" y="161" type="line"/>
      <point x="262" y="161" type="line"/>
      <point x="223" y="0" type="line"/>
      <point x="486" y="0" type="line"/>
      <point x="512" y="114" type="line"/>
      <point x="371" y="114" type="line"/>
      <point x="418" y="309" type="line"/>
      <point x="518" y="309" type="line"/>
      <point x="545" y="423" type="line"/>
      <point x="445" y="423" type="line"/>
      <point x="483" y="579" type="line"/>
      <point x="609" y="579" type="line"/>
      <point x="636" y="693" type="line"/>
      <point x="315" y="693" type="line"/>
      <point x="173" y="469"/>
      <point x="96" y="317"/>
    </contour>
    <contour>
      <point x="201" y="272" type="line"/>
      <point x="258" y="396"/>
      <point x="310" y="501"/>
      <point x="367" y="600" type="curve"/>
      <point x="288" y="272" type="line"/>
    </contour>
  </outline>
</glyph>
<glyph name="Thorn" format="2">
  <advance width="560"/>
  <unicode hex="00DE"/>
  <anchor x="217" y="0" name="bottom"/>
  <anchor x="381" y="685" name="top"/>
  <outline>
    <contour>
      <point x="1" y="0" type="line"/>
      <point x="138" y="0" type="line"/>
      <point x="169" y="129" type="line"/>
      <point x="201" y="129" type="line" smooth="yes"/>
      <point x="409" y="129"/>
      <point x="553" y="214"/>
      <point x="553" y="404" type="curve" smooth="yes"/>
      <point x="553" y="516"/>
      <point x="491" y="594"/>
      <point x="321" y="594" type="curve" smooth="yes"/>
      <point x="309" y="594"/>
      <point x="292" y="594"/>
      <point x="281" y="592" type="curve"/>
      <point x="305" y="693" type="line"/>
      <point x="167" y="693" type="line"/>
    </contour>
    <contour>
      <point x="197" y="248" type="line"/>
      <point x="253" y="473" type="line"/>
      <point x="270" y="475"/>
      <point x="286" y="476"/>
      <point x="304" y="476" type="curve" smooth="yes"/>
      <point x="391" y="476"/>
      <point x="415" y="441"/>
      <point x="415" y="384" type="curve" smooth="yes"/>
      <point x="415" y="300"/>
      <point x="352" y="248"/>
      <point x="234" y="248" type="curve" smooth="yes"/>
    </contour>
  </outline>
</glyph>
<glyph name="ccedilla" format="2">
  <advance width="560"/>
  <unicode hex="00E7"/>
  <outline>
    <contour>
      <point x="213" y="-190" type="curve" smooth="yes"/>
      <point x="293" y="-190"/>
      <point x="351" y="-155"/>
      <point x="351" y="-94" type="curve" smooth="yes"/>
      <point x="351" y="-67"/>
      <point x="339" y="-45"/>
      <point x="306" y="-28" type="curve"/>
      <point x="316" y="-11" type="line"/>
      <point x="399" y="-8"/>
      <point x="436" y="7"/>
      <point x="469" y="24" type="curve"/>
      <point x="455" y="133" type="line"/>
      <point x="430" y="122"/>
      <point x="376" y="108"/>
      <point x="318" y="108" type="curve" smooth="yes"/>
      <point x="209" y="108"/>
      <point x="183" y="151"/>
      <point x="183" y="209" type="curve" smooth="yes"/>
      <point x="183" y="344"/>
      <point x="273" y="420"/>
      <point x="394" y="420" type="curve" smooth="yes"/>
      <point x="442" y="420"/>
      <point x="480" y="410"/>
      <point x="503" y="400" type="curve"/>
      <point x="553" y="510" type="line"/>
      <point x="515" y="526"/>
      <point x="473" y="539"/>
      <point x="394" y="539" type="curve" smooth="yes"/>
      <point x="189" y="539"/>
      <point x="44" y="398"/>
      <point x="44" y="204" type="curve" smooth="yes"/>
      <point x="44" y="100"/>
      <point x="90" y="10"/>
      <point x="227" y="-8" type="curve"/>
      <point x="218" y="-20"/>
      <point x="210" y="-32"/>
      <point x="200" y="-48" type="curve"/>
      <point x="245" y="-59"/>
      <point x="249" y="-74"/>
      <point x="249" y="-90" type="curve" smooth="yes"/>
      <point x="249" y="-100"/>
      <point x="240" y="-118"/>
      <point x="207" y="-118" type="curve" smooth="yes"/>
      <point x="186" y="-118"/>
      <point x="163" y="-112"/>
      <point x="146" y="-103" type="curve"/>
      <point x="117" y="-168" type="line"/>
      <point x="145" y="-183"/>
      <point x="178" y="-190"/>
    </contour>
  </outline>
</glyph>
<glyph name="eth" format="2">
  <advance width="560"/>
  <unicode hex="00F0"/>
  <anchor x="217" y="0" name="bottom"/>
  <anchor x="403" y="776" name="top"/>
  <outline>
    <contour>
      <point x="209" y="-15" type="curve" smooth="yes"/>
      <point x="434" y="-15"/>
      <point x="524" y="218"/>
      <point x="524" y="438" type="curve" smooth="yes"/>
      <point x="524" y="493"/>
      <point x="517" y="547"/>
      <point x="505" y="598" type="curve"/>
      <point x="614" y="632" type="line"/>
      <point x="599" y="715" type="line"/>
      <point x="474" y="675" type="line"/>
      <point x="451" y="715"/>
      <point x="413" y="749"/>
      <point x="374" y="776" type="curve"/>
      <point x="282" y="711" type="line"/>
      <point x="306" y="693"/>
      <point x="337" y="661"/>
      <point x="350" y="637" type="curve"/>
      <point x="262" y="609" type="line"/>
      <point x="272" y="526" type="line"/>
      <point x="385" y="561" type="line"/>
      <point x="396" y="526"/>
      <point x="399" y="477"/>
      <point x="399" y="442" type="curve"/>
      <point x="376" y="460"/>
      <point x="339" y="472"/>
      <point x="298" y="472" type="curve" smooth="yes"/>
      <point x="123" y="472"/>
      <point x="29" y="328"/>
      <point x="29" y="175" type="curve" smooth="yes"/>
      <point x="29" y="75"/>
      <point x="85" y="-15"/>
    </contour>
    <contour>
      <point x="222" y="105" type="curve" smooth="yes"/>
      <point x="181" y="105"/>
      <point x="163" y="141"/>
      <point x="163" y="186" type="curve" smooth="yes"/>
      <point x="163" y="264"/>
      <point x="207" y="362"/>
      <point x="292" y="362" type="curve" smooth="yes"/>
      <point x="322" y="362"/>
      <point x="354" y="354"/>
      <point x="376" y="329" type="curve"/>
      <point x="360" y="246"/>
      <point x="325" y="105"/>
    </contour>
  </outline>
</glyph>
<glyph name="divide" format="2">
  <advance width="560"/>
  <unicode hex="00F7"/>
  <outline>
    <contour>
      <point x="49" y="237" type="line"/>
      <point x="519" y="237" type="line"/>
      <point x="546" y="351" type="line"/>
      <point x="76" y="351" type="line"/>
    </contour>
    <contour>
      <point x="235" y="8" type="curve" smooth="yes"/>
      <point x="282" y="8"/>
      <point x="325" y="43"/>
      <point x="325" y="101" type="curve" smooth="yes"/>
      <point x="325" y="151"/>
      <point x="294" y="172"/>
      <point x="253" y="172" type="curve" smooth="yes"/>
      <point x="206" y="172"/>
      <point x="162" y="138"/>
      <point x="162" y="80" type="curve" smooth="yes"/>
      <point x="162" y="29"/>
      <point x="192" y="8"/>
    </contour>
    <contour>
      <point x="335" y="416" type="curve" smooth="yes"/>
      <point x="382" y="416"/>
      <point x="426" y="450"/>
      <point x="426" y="508" type="curve" smooth="yes"/>
      <point x="426" y="559"/>
      <point x="395" y="580"/>
      <point x="353" y="580" type="curve" smooth="yes"/>
      <point x="306" y="580"/>
      <point x="263" y="545"/>
      <point x="263" y="487" type="curve" smooth="yes"/>
      <point x="263" y="437"/>
      <point x="293" y="416"/>
    </contour>
  </outline>
</glyph>
<glyph name="eogonek" format="2">
  <advance width="560"/>
  <unicode hex="0119"/>
  <anchor x="343" y="526" name="top"/>
  <outline>
    <contour>
      <point x="306" y="-190" type="curve" smooth="yes"/>
      <point x="341" y="-190"/>
      <point x="377" y="-184"/>
      <point x="402" y="-175" type="curve"/>
      <point x="410" y="-103" type="line"/>
      <point x="402" y="-106"/>
      <point x="376" y="-113"/>
      <point x="357" y="-113" type="curve" smooth="yes"/>
      <point x="340" y="-113"/>
      <point x="332" y="-108"/>
      <point x="332" y="-97" type="curve" smooth="yes"/>
      <point x="332" y="-80"/>
      <point x="352" y="-45"/>
      <point x="463" y="24" type="curve"/>
      <point x="454" y="128" type="line"/>
      <point x="428" y="116"/>
      <point x="369" y="100"/>
      <point x="310" y="100" type="curve" smooth="yes"/>
      <point x="209" y="100"/>
      <point x="178" y="132"/>
      <point x="178" y="187" type="curve"/>
      <point x="384" y="187"/>
      <point x="543" y="243"/>
      <point x="543" y="395" type="curve" smooth="yes"/>
      <point x="543" y="486"/>
      <point x="470" y="540"/>
      <point x="367" y="540" type="curve" smooth="yes"/>
      <point x="162" y="540"/>
      <point x="42" y="380"/>
      <point x="42" y="205" type="curve" smooth="yes"/>
      <point x="42" y="80"/>
      <point x="109" y="-10"/>
      <point x="275" y="-13" type="curve" smooth="yes"/>
      <point x="278" y="-13"/>
      <point x="282" y="-13"/>
      <point x="285" y="-13" type="curve"/>
      <point x="219" y="-56"/>
      <point x="195" y="-93"/>
      <point x="195" y="-131" type="curve" smooth="yes"/>
      <point x="195" y="-162"/>
      <point x="225" y="-190"/>
    </contour>
    <contour>
      <point x="179" y="282" type="curve"/>
      <point x="202" y="385"/>
      <point x="273" y="430"/>
      <point x="341" y="430" type="curve" smooth="yes"/>
      <point x="386" y="430"/>
      <point x="412" y="411"/>
      <point x="412" y="376" type="curve" smooth="yes"/>
      <point x="412" y="337"/>
      <point x="367" y="282"/>
    </contour>
  </outline>
</glyph>
<glyph name="hcircumflex" format="2">
  <advance width="560"/>
  <unicode hex="0125"/>
  <outline>
    <contour>
      <point x="7" y="0" type="line"/>
      <point x="145" y="0" type="line"/>
      <point x="244" y="407" type="line"/>
      <point x="265" y="416"/>
      <point x="290" y="419"/>
      <point x="309" y="419" type="curve" smooth="yes"/>
      <point x="359" y="419"/>
      <point x="374" y="389"/>
      <point x="374" y="354" type="curve" smooth="yes"/>
      <point x="374" y="329"/>
      <point x="366" y="302"/>
      <point x="361" y="279" type="curve" smooth="yes"/>
      <point x="294" y="0" type="line"/>
      <point x="432" y="0" type="line"/>
      <point x="503" y="297" type="line" smooth="yes"/>
      <point x="511" y="329"/>
      <point x="515" y="360"/>
      <point x="515" y="385" type="curve" smooth="yes"/>
      <point x="515" y="482"/>
      <point x="459" y="538"/>
      <point x="349" y="538" type="curve" smooth="yes"/>
      <point x="323" y="538"/>
      <point x="295" y="531"/>
      <point x="270" y="524" type="curve"/>
      <point x="321" y="732" type="line"/>
      <point x="178" y="709" type="line"/>
    </contour>
    <contour>
      <point x="169" y="758" type="line"/>
      <point x="281" y="819" type="line"/>
      <point x="362" y="759" type="line"/>
      <point x="416" y="818" type="line"/>
      <point x="292" y="928" type="line"/>
      <point x="134" y="816" type="line"/>
    </contour>
  </outline>
</glyph>
<glyph name="Hbar" format="2">
  <advance width="560"/>
  <unicode hex="0126"/>
  <outline>
    <contour>
      <point x="17" y="0" type="line"/>
      <point x="155" y="0" type="line"/>
      <point x="229" y="306" type="line"/>
      <point x="353" y="306" type="line"/>
      <point x="279" y="0" type="line"/>
      <point x="417" y="0" type="line"/>
      <point x="538" y="502" type="line"/>
      <point x="600" y="502" type="line"/>
      <point x="627" y="613" type="line"/>
      <point x="564" y="613" type="line"/>
      <point x="584" y="693" type="line"/>
      <point x="446" y="693" type="line"/>
      <point x="426" y="613" type="line"/>
      <point x="302" y="613" type="line"/>
      <point x="322" y="693" type="line"/>
      <point x="184" y="693" type="line"/>
      <point x="164" y="613" type="line"/>
      <point x="104" y="613" type="line"/>
      <point x="77" y="502" type="line"/>
      <point x="138" y="502" type="line"/>
    </contour>
    <contour>
      <point x="256" y="420" type="line"/>
      <point x="276" y="502" type="line"/>
      <point x="400" y="502" type="line"/>
      <point x="380" y="420" type="line"/>
    </contour>
  </outline>
</glyph>
<glyph name="iogonek" format="2">
  <advance width="560"/>
  <unicode hex="012F"/>
  <outline>
    <contour>
      <point x="330" y="-190" type="curve" smooth="yes"/>
      <point x="365" y="-190"/>
      <point x="400" y="-184"/>
      <point x="425" y="-175" type="curve"/>
      <point x="434" y="-103" type="line"/>
      <point x="425" y="-106"/>
      <point x="399" y="-113"/>
      <point x="380" y="-113" type="curve" smooth="yes"/>
      <point x="363" y="-113"/>
      <point x="356" y="-108"/>
      <point x="356" y="-97" type="curve" smooth="yes"/>
      <point x="356" y="-80"/>
      <point x="378" y="-48"/>
      <point x="472" y="15" type="curve"/>
      <point x="470" y="127" type="line"/>
      <point x="428" y="112"/>
      <point x="393" y="108"/>
      <point x="368" y="108" type="curve" smooth="yes"/>
      <point x="329" y="108"/>
      <point x="311" y="127"/>
      <point x="311" y="164" type="curve" smooth="yes"/>
      <point x="311" y="175"/>
      <point x="313" y="189"/>
      <point x="318" y="205" type="curve"/>
      <point x="394" y="526" type="line"/>
      <point x="110" y="526" type="line"/>
      <point x="82" y="412" type="line"/>
      <point x="228" y="412" type="line"/>
      <point x="183" y="222" type="line" smooth="yes"/>
      <point x="175" y="190"/>
      <point x="171" y="161"/>
      <point x="171" y="136" type="curve" smooth="yes"/>
      <point x="171" y="47"/>
      <point x="216" y="-7"/>
      <point x="311" y="-11" type="curve"/>
      <point x="242" y="-55"/>
      <point x="219" y="-92"/>
      <point x="219" y="-131" type="curve" smooth="yes"/>
      <point x="219" y="-162"/>
      <point x="248" y="-190"/>
    </contour>
    <contour>
      <point x="330" y="590" type="curve" smooth="yes"/>
      <point x="375" y="590"/>
      <point x="424" y="631"/>
      <point x="424" y="685" type="curve" smooth="yes"/>
      <point x="424" y="741"/>
      <point x="387" y="766"/>
      <point x="343" y="766" type="curve" smooth="yes"/>
      <point x="296" y="766"/>
      <point x="250" y="727"/>
      <point x="250" y="669" type="curve" smooth="yes"/>
      <point x="250" y="615"/>
      <point x="283" y="590"/>
    </contour>
  </outline>
</glyph>
<glyph name="IJ" format="2">
  <advance width="560"/>
  <unicode hex="0132"/>
  <outline>
    <contour>
      <point x="300" y="-15" type="curve" smooth="yes"/>
      <point x="445" y="-15"/>
      <point x="494" y="91"/>
      <point x="522" y="232" type="curve" smooth="yes"/>
      <point x="632" y="693" type="line"/>
      <point x="505" y="693" type="line"/>
      <point x="393" y="230" type="line" smooth="yes"/>
      <point x="369" y="128"/>
      <point x="348" y="95"/>
      <point x="291" y="95" type="curve" smooth="yes"/>
      <point x="263" y="95"/>
      <point x="227" y="116"/>
      <point x="207" y="139" type="curve"/>
      <point x="143" y="50" type="line"/>
      <point x="171" y="17"/>
      <point x="227" y="-15"/>
    </contour>
    <contour>
      <point x="-27" y="0" type="line"/>
      <point x="101" y="0" type="line"/>
      <point x="268" y="693" type="line"/>
      <point x="141" y="693" type="line"/>
    </contour>
  </outline>
</glyph>
<glyph name="ij" format="2">
  <advance width="560"/>
  <unicode hex="0133"/>
  <outline>
    <contour>
      <point x="206" y="-185" type="curve" smooth="yes"/>
      <point x="331" y="-185"/>
      <point x="393" y="-119"/>
      <point x="426" y="19" type="curve" smooth="yes"/>
      <point x="548" y="526" type="line"/>
      <point x="409" y="526" type="line"/>
      <point x="288" y="24" type="line" smooth="yes"/>
      <point x="276" y="-30"/>
      <point x="254" y="-59"/>
      <point x="207" y="-59" type="curve" smooth="yes"/>
      <point x="184" y="-59"/>
      <point x="169" y="-55"/>
      <point x="150" y="-48" type="curve"/>
      <point x="111" y="-166" type="line"/>
      <point x="141" y="-177"/>
      <point x="169" y="-185"/>
    </contour>
    <contour>
      <point x="33" y="0" type="line"/>
      <point x="171" y="0" type="line"/>
      <point x="298" y="526" type="line"/>
      <point x="160" y="526" type="line"/>
    </contour>
    <contour>
      <point x="255" y="590" type="curve" smooth="yes"/>
      <point x="300" y="590"/>
      <point x="348" y="631"/>
      <point x="348" y="685" type="curve" smooth="yes"/>
      <point x="348" y="741"/>
      <point x="311" y="766"/>
      <point x="267" y="766" type="curve" smooth="yes"/>
      <point x="220" y="766"/>
      <point x="174" y="727"/>
      <point x="174" y="669" type="curve" smooth="yes"/>
      <point x="174" y="615"/>
      <point x="208" y="590"/>
    </contour>
    <contour>
      <point x="503" y="590" type="curve" smooth="yes"/>
      <point x="548" y="590"/>
      <point x="598" y="631"/>
      <point x="598" y="685" type="curve" smooth="yes"/>
      <point x="598" y="741"/>
      <point x="561" y="766"/>
      <point x="516" y="766" type="curve" smooth="yes"/>
      <point x="469" y="766"/>
      <point x="423" y="727"/>
      <point x="423" y="669" type="curve" smooth="yes"/>
      <point x="423" y="615"/>
      <point x="456" y="590"/>
    </contour>
  </outline>
</glyph>
<glyph name="Lslash" format="2">
  <advance width="560"/>
  <unicode hex="0141"/>
  <outline>
    <contour>
      <point x="48" y="0" type="line"/>
      <point x="438" y="0" type="line"/>
      <point x="465" y="114" type="line"/>
      <point x="213" y="114" type="line"/>
      <point x="267" y="342" type="line"/>
      <point x="432" y="419" type="line"/>
      <point x="407" y="520" type="line"/>
      <point x="298" y="468" type="line"/>
      <point x="352" y="693" type="line"/>
      <point x="214" y="693" type="line"/>
      <point x="143" y="395" type="line"/>
      <point x="10" y="333" type="line"/>
      <point x="34" y="232" type="line"/>
      <point x="113" y="269" type="line"/>
    </contour>
  </outline>
</glyph>
<glyph name="lslash" format="2">
  <advance width="560"/>
  <unicode hex="0142"/>
  <outline>
    <contour>
      <point x="303" y="-12" type="curve" smooth="yes"/>
      <point x="396" y="-12"/>
      <point x="456" y="16"/>
      <point x="468" y="22" type="curve"/>
      <point x="459" y="131" type="line"/>
      <point x="445" y="127"/>
      <point x="395" y="108"/>
      <point x="353" y="108" type="curve" smooth="yes"/>
      <point x="303" y="108"/>
      <point x="291" y="134"/>
      <point x="291" y="164" type="curve" smooth="yes"/>
      <point x="291" y="177"/>
      <point x="295" y="196"/>
      <point x="298" y="211" type="curve" smooth="yes"/>
      <point x="343" y="402" type="line"/>
      <point x="474" y="461" type="line"/>
      <point x="451" y="553" type="line"/>
      <point x="371" y="517" type="line"/>
      <point x="431" y="771" type="line"/>
      <point x="147" y="771" type="line"/>
      <point x="120" y="656" type="line"/>
      <point x="266" y="656" type="line"/>
      <point x="217" y="448" type="line"/>
      <point x="98" y="396" type="line"/>
      <point x="120" y="304" type="line"/>
      <point x="189" y="334" type="line"/>
      <point x="162" y="220" type="line" smooth="yes"/>
      <point x="155" y="190"/>
      <point x="151" y="162"/>
      <point x="151" y="137" type="curve" smooth="yes"/>
      <point x="151" y="43"/>
      <point x="202" y="-12"/>
    </contour>
  </outline>
</glyph>
<glyph name="Eng" format="2">
  <advance width="560"/>
  <unicode hex="014A"/>
  <anchor x="217" y="0" name="bottom"/>
  <anchor x="381" y="685" name="top"/>
  <outline>
    <contour>
      <point x="244" y="-187" type="curve" smooth="yes"/>
      <point x="372" y="-187"/>
      <point x="419" y="-116"/>
      <point x="452" y="21" type="curve" smooth="yes"/>
      <point x="613" y="693" type="line"/>
      <point x="491" y="693" type="line"/>
      <point x="385" y="244" type="line"/>
      <point x="365" y="374"/>
      <point x="313" y="562"/>
      <point x="270" y="693" type="curve"/>
      <point x="153" y="693" type="line"/>
      <point x="-13" y="0" type="line"/>
      <point x="109" y="0" type="line"/>
      <point x="227" y="497" type="line"/>
      <point x="268" y="337"/>
      <point x="309" y="158"/>
      <point x="332" y="24" type="curve"/>
      <point x="328" y="8" type="line" smooth="yes"/>
      <point x="316" y="-40"/>
      <point x="295" y="-69"/>
      <point x="244" y="-69" type="curve" smooth="yes"/>
      <point x="218" y="-69"/>
      <point x="207" y="-66"/>
      <point x="190" y="-60" type="curve"/>
      <point x="150" y="-167" type="line"/>
      <point x="174" y="-180"/>
      <point x="206" y="-187"/>
    </contour>
  </outline>
</glyph>
<glyph name="OE" format="2">
  <advance width="560"/>
  <unicode hex="0152"/>
  <anchor x="217" y="0" name="bottom"/>
  <anchor x="381" y="685" name="top"/>
  <outline>
    <contour>
      <point x="192" y="-6" type="curve" smooth="yes"/>
      <point x="212" y="-6"/>
      <point x="232" y="-4"/>
      <point x="251" y="0" type="curve"/>
      <point x="489" y="0" type="line"/>
      <point x="516" y="114" type="line"/>
      <point x="375" y="114" type="line"/>
      <point x="422" y="309" type="line"/>
      <point x="522" y="309" type="line"/>
      <point x="549" y="423" type="line"/>
      <point x="449" y="423" type="line"/>
      <point x="487" y="579" type="line"/>
      <point x="613" y="579" type="line"/>
      <point x="640" y="693" type="line"/>
      <point x="417" y="693" type="line"/>
      <point x="398" y="697"/>
      <point x="371" y="700"/>
      <point x="349" y="700" type="curve" smooth="yes"/>
      <point x="99" y="700"/>
      <point x="18" y="381"/>
      <point x="18" y="195" type="curve" smooth="yes"/>
      <point x="18" y="67"/>
      <point x="81" y="-6"/>
    </contour>
    <contour>
      <point x="214" y="111" type="curve" smooth="yes"/>
      <point x="164" y="111"/>
      <point x="147" y="144"/>
      <point x="147" y="204" type="curve" smooth="yes"/>
      <point x="147" y="338"/>
      <point x="218" y="584"/>
      <point x="328" y="584" type="curve" smooth="yes"/>
      <point x="341" y="584"/>
      <point x="352" y="581"/>
      <point x="362" y="578" type="curve"/>
      <point x="251" y="116" type="line"/>
      <point x="239" y="113"/>
      <point x="227" y="111"/>
    </contour>
  </outline>
</glyph>
<glyph name="Scedilla" format="2">
  <advance width="560"/>
  <unicode hex="015E"/>
  <outline>
    <contour>
      <point x="144" y="-190" type="curve" smooth="yes"/>
      <point x="223" y="-190"/>
      <point x="282" y="-155"/>
      <point x="282" y="-94" type="curve" smooth="yes"/>
      <point x="282" y="-67"/>
      <point x="269" y="-45"/>
      <point x="237" y="-28" type="curve"/>
      <point x="246" y="-13" type="line"/>
      <point x="400" y="-2"/>
      <point x="489" y="80"/>
      <point x="489" y="220" type="curve" smooth="yes"/>
      <point x="489" y="330"/>
      <point x="424" y="374"/>
      <point x="335" y="416" type="curve"/>
      <point x="287" y="437"/>
      <point x="249" y="458"/>
      <point x="249" y="508" type="curve" smooth="yes"/>
      <point x="249" y="571"/>
      <point x="295" y="594"/>
      <point x="351" y="594" type="curve" smooth="yes"/>
      <point x="424" y="594"/>
      <point x="477" y="575"/>
      <point x="510" y="551" type="curve"/>
      <point x="568" y="657" type="line"/>
      <point x="538" y="676"/>
      <point x="477" y="709"/>
      <point x="369" y="709" type="curve" smooth="yes"/>
      <point x="206" y="709"/>
      <point x="113" y="622"/>
      <point x="113" y="491" type="curve" smooth="yes"/>
      <point x="113" y="382"/>
      <point x="169" y="348"/>
      <point x="244" y="310" type="curve" smooth="yes"/>
      <point x="303" y="280"/>
      <point x="351" y="252"/>
      <point x="351" y="197" type="curve" smooth="yes"/>
      <point x="351" y="127"/>
      <point x="292" y="101"/>
      <point x="222" y="101" type="curve" smooth="yes"/>
      <point x="146" y="101"/>
      <point x="81" y="132"/>
      <point x="52" y="151" type="curve"/>
      <point x="-7" y="46" type="line"/>
      <point x="17" y="28"/>
      <point x="68" y="-2"/>
      <point x="154" y="-11" type="curve"/>
      <point x="146" y="-22"/>
      <point x="139" y="-34"/>
      <point x="130" y="-48" type="curve"/>
      <point x="175" y="-59"/>
      <point x="180" y="-74"/>
      <point x="180" y="-90" type="curve" smooth="yes"/>
      <point x="180" y="-100"/>
      <point x="171" y="-118"/>
      <point x="137" y="-118" type="curve" smooth="yes"/>
      <point x="117" y="-118"/>
      <point x="94" y="-112"/>
      <point x="77" y="-103" type="curve"/>
      <point x="48" y="-168" type="line"/>
      <point x="76" y="-183"/>
      <point x="108" y="-190"/>
    </contour>
  </outline>
</glyph>
<glyph name="scedilla" format="2">
  <advance width="560"/>
  <unicode hex="015F"/>
  <outline>
    <contour>
      <point x="154" y="-190" type="curve" smooth="yes"/>
      <point x="234" y="-190"/>
      <point x="292" y="-155"/>
      <point x="292" y="-94" type="curve" smooth="yes"/>
      <point x="292" y="-67"/>
      <point x="279" y="-45"/>
      <point x="247" y="-28" type="curve"/>
      <point x="256" y="-13" type="line"/>
      <point x="404" y="-2"/>
      <point x="464" y="82"/>
      <point x="464" y="162" type="curve" smooth="yes"/>
      <point x="464" y="245"/>
      <point x="425" y="278"/>
      <point x="335" y="312" type="curve" smooth="yes"/>
      <point x="260" y="340"/>
      <point x="250" y="351"/>
      <point x="250" y="377" type="curve" smooth="yes"/>
      <point x="250" y="418"/>
      <point x="302" y="426"/>
      <point x="331" y="426" type="curve" smooth="yes"/>
      <point x="398" y="426"/>
      <point x="440" y="413"/>
      <point x="473" y="398" type="curve"/>
      <point x="524" y="506" type="line"/>
      <point x="487" y="524"/>
      <point x="418" y="540"/>
      <point x="343" y="540" type="curve" smooth="yes"/>
      <point x="190" y="540"/>
      <point x="113" y="468"/>
      <point x="113" y="360" type="curve" smooth="yes"/>
      <point x="113" y="281"/>
      <point x="154" y="251"/>
      <point x="238" y="220" type="curve" smooth="yes"/>
      <point x="306" y="193"/>
      <point x="324" y="183"/>
      <point x="324" y="155" type="curve" smooth="yes"/>
      <point x="324" y="127"/>
      <point x="298" y="102"/>
      <point x="220" y="102" type="curve" smooth="yes"/>
      <point x="147" y="102"/>
      <point x="94" y="127"/>
      <point x="64" y="143" type="curve"/>
      <point x="13" y="35" type="line"/>
      <point x="35" y="22"/>
      <point x="81" y="-2"/>
      <point x="165" y="-11" type="curve"/>
      <point x="157" y="-22"/>
      <point x="150" y="-34"/>
      <point x="141" y="-48" type="curve"/>
      <point x="186" y="-60"/>
      <point x="190" y="-74"/>
      <point x="190" y="-90" type="curve" smooth="yes"/>
      <point x="190" y="-100"/>
      <point x="181" y="-118"/>
      <point x="147" y="-118" type="curve" smooth="yes"/>
      <point x="127" y="-118"/>
      <point x="104" y="-112"/>
      <point x="87" y="-103" type="curve"/>
      <point x="58" y="-168" type="line"/>
      <point x="86" y="-183"/>
      <point x="118" y="-190"/>
    </contour>
  </outline>
</glyph>
<glyph name="tbar" format="2">
  <advance width="560"/>
  <unicode hex="0167"/>
  <outline>
    <contour>
      <point x="307" y="-12" type="curve" smooth="yes"/>
      <point x="362" y="-12"/>
      <point x="422" y="-1"/>
      <point x="468" y="19" type="curve"/>
      <point x="469" y="134" type="line"/>
      <point x="428" y="118"/>
      <point x="385" y="108"/>
      <point x="344" y="108" type="curve" smooth="yes"/>
      <point x="305" y="108"/>
      <point x="269" y="119"/>
      <point x="269" y="164" type="curve" smooth="yes"/>
      <point x="269" y="176"/>
      <point x="272" y="190"/>
      <point x="275" y="207" type="curve" smooth="yes"/>
      <point x="281" y="228" type="line"/>
      <point x="492" y="228" type="line"/>
      <point x="515" y="321" type="line"/>
      <point x="302" y="321" type="line"/>
      <point x="324" y="412" type="line"/>
      <point x="524" y="412" type="line"/>
      <point x="552" y="526" type="line"/>
      <point x="351" y="526" type="line"/>
      <point x="389" y="681" type="line"/>
      <point x="245" y="659" type="line"/>
      <point x="213" y="526" type="line"/>
      <point x="109" y="526" type="line"/>
      <point x="81" y="412" type="line"/>
      <point x="186" y="412" type="line"/>
      <point x="164" y="321" type="line"/>
      <point x="59" y="321" type="line"/>
      <point x="38" y="228" type="line"/>
      <point x="142" y="228" type="line"/>
      <point x="139" y="215" type="line" smooth="yes"/>
      <point x="132" y="187"/>
      <point x="129" y="162"/>
      <point x="129" y="139" type="curve" smooth="yes"/>
      <point x="129" y="41"/>
      <point x="189" y="-12"/>
    </contour>
  </outline>
</glyph>
<glyph name="Uogonek" format="2">
  <advance width="560"/>
  <unicode hex="0172"/>
  <outline>
    <contour>
      <point x="221" y="-190" type="curve" smooth="yes"/>
      <point x="256" y="-190"/>
      <point x="292" y="-184"/>
      <point x="316" y="-175" type="curve"/>
      <point x="325" y="-103" type="line"/>
      <point x="316" y="-106"/>
      <point x="291" y="-113"/>
      <point x="272" y="-113" type="curve" smooth="yes"/>
      <point x="255" y="-113"/>
      <point x="247" y="-108"/>
      <point x="247" y="-97" type="curve" smooth="yes"/>
      <point x="247" y="-82"/>
      <point x="268" y="-47"/>
      <point x="338" y="-3" type="curve" smooth="yes"/>
      <point x="353" y="7"/>
      <point x="368" y="17"/>
      <point x="381" y="27" type="curve" smooth="yes"/>
      <point x="455" y="87"/>
      <point x="474" y="150"/>
      <point x="498" y="246" type="curve" smooth="yes"/>
      <point x="605" y="693" type="line"/>
      <point x="468" y="693" type="line"/>
      <point x="362" y="256" type="line" smooth="yes"/>
      <point x="334" y="140"/>
      <point x="310" y="105"/>
      <point x="244" y="105" type="curve" smooth="yes"/>
      <point x="189" y="105"/>
      <point x="171" y="132"/>
      <point x="171" y="177" type="curve" smooth="yes"/>
      <point x="171" y="202"/>
      <point x="178" y="233"/>
      <point x="185" y="268" type="curve" smooth="yes"/>
      <point x="287" y="693" type="line"/>
      <point x="150" y="693" type="line"/>
      <point x="46" y="267" type="line" smooth="yes"/>
      <point x="38" y="228"/>
      <point x="33" y="195"/>
      <point x="33" y="164" type="curve" smooth="yes"/>
      <point x="33" y="58"/>
      <point x="86" y="-6"/>
      <point x="199" y="-13" type="curve"/>
      <point x="133" y="-56"/>
      <point x="110" y="-93"/>
      <point x="110" y="-131" type="curve" smooth="yes"/>
      <point x="110" y="-162"/>
      <point x="139" y="-190"/>
    </contour>
  </outline>
</glyph>
<glyph name="uogonek" format="2">
  <advance width="560"/>
  <unicode hex="0173"/>
  <outline>
    <contour>
      <point x="347" y="-190" type="curve" smooth="yes"/>
      <point x="381" y="-190"/>
      <point x="417" y="-184"/>
      <point x="442" y="-175" type="curve"/>
      <point x="451" y="-103" type="line"/>
      <point x="442" y="-106"/>
      <point x="416" y="-113"/>
      <point x="397" y="-113" type="curve" smooth="yes"/>
      <point x="380" y="-113"/>
      <point x="372" y="-108"/>
      <point x="372" y="-97" type="curve" smooth="yes"/>
      <point x="372" y="-80"/>
      <point x="395" y="-48"/>
      <point x="484" y="11" type="curve"/>
      <point x="471" y="52"/>
      <point x="461" y="92"/>
      <point x="461" y="136" type="curve" smooth="yes"/>
      <point x="461" y="162"/>
      <point x="465" y="188"/>
      <point x="471" y="215" type="curve"/>
      <point x="546" y="526" type="line"/>
      <point x="408" y="526" type="line"/>
      <point x="334" y="216" type="line" smooth="yes"/>
      <point x="328" y="190"/>
      <point x="325" y="174"/>
      <point x="323" y="152" type="curve"/>
      <point x="301" y="127"/>
      <point x="279" y="108"/>
      <point x="238" y="108" type="curve" smooth="yes"/>
      <point x="200" y="108"/>
      <point x="182" y="128"/>
      <point x="182" y="166" type="curve" smooth="yes"/>
      <point x="182" y="194"/>
      <point x="190" y="231"/>
      <point x="200" y="276" type="curve" smooth="yes"/>
      <point x="259" y="526" type="line"/>
      <point x="122" y="526" type="line"/>
      <point x="59" y="267" type="line" smooth="yes"/>
      <point x="49" y="223"/>
      <point x="43" y="183"/>
      <point x="43" y="147" type="curve" smooth="yes"/>
      <point x="43" y="49"/>
      <point x="85" y="-12"/>
      <point x="206" y="-12" type="curve" smooth="yes"/>
      <point x="263" y="-12"/>
      <point x="313" y="18"/>
      <point x="342" y="40" type="curve"/>
      <point x="343" y="35"/>
      <point x="350" y="18"/>
      <point x="356" y="6" type="curve"/>
      <point x="265" y="-46"/>
      <point x="236" y="-87"/>
      <point x="236" y="-131" type="curve" smooth="yes"/>
      <point x="236" y="-162"/>
      <point x="265" y="-190"/>
    </contour>
  </outline>
</glyph>
<glyph name="bstroke" format="2">
  <advance width="560"/>
  <unicode hex="0180"/>
  <outline>
    <contour>
      <point x="213" y="-15" type="curve" smooth="yes"/>
      <point x="402" y="-15"/>
      <point x="529" y="127"/>
      <point x="529" y="330" type="curve" smooth="yes"/>
      <point x="529" y="472"/>
      <point x="468" y="531"/>
      <point x="374" y="531" type="curve" smooth="yes"/>
      <point x="340" y="531"/>
      <point x="304" y="522"/>
      <point x="272" y="506" type="curve"/>
      <point x="294" y="596" type="line"/>
      <point x="437" y="596" type="line"/>
      <point x="459" y="689" type="line"/>
      <point x="316" y="689" type="line"/>
      <point x="338" y="777" type="line"/>
      <point x="197" y="754" type="line"/>
      <point x="180" y="689" type="line"/>
      <point x="119" y="689" type="line"/>
      <point x="97" y="596" type="line"/>
      <point x="158" y="596" type="line"/>
      <point x="20" y="19" type="line"/>
      <point x="77" y="-1"/>
      <point x="153" y="-15"/>
    </contour>
    <contour>
      <point x="228" y="104" type="curve" smooth="yes"/>
      <point x="212" y="104"/>
      <point x="194" y="105"/>
      <point x="178" y="109" type="curve"/>
      <point x="245" y="390" type="line"/>
      <point x="267" y="407"/>
      <point x="301" y="416"/>
      <point x="325" y="416" type="curve" smooth="yes"/>
      <point x="365" y="416"/>
      <point x="395" y="396"/>
      <point x="395" y="319" type="curve" smooth="yes"/>
      <point x="395" y="207"/>
      <point x="334" y="104"/>
    </contour>
  </outline>
</glyph>
<glyph name="tonesix" format="2">
  <advance width="560"/>
  <unicode hex="0185"/>
  <outline>
    <contour>
      <point x="202" y="-9" type="curve" smooth="yes"/>
      <point x="400" y="-9"/>
      <point x="524" y="104"/>
      <point x="524" y="270" type="curve" smooth="yes"/>
      <point x="524" y="379"/>
      <point x="449" y="454"/>
      <point x="314" y="454" type="curve" smooth="yes"/>
      <point x="303" y="454"/>
      <point x="281" y="454"/>
      <point x="268" y="451" type="curve"/>
      <point x="329" y="703" type="line"/>
      <point x="237" y="680"/>
      <point x="161" y="647"/>
      <point x="85" y="610" type="curve"/>
      <point x="152" y="520" type="line"/>
      <point x="29" y="12" type="line"/>
      <point x="82" y="-3"/>
      <point x="152" y="-9"/>
    </contour>
    <contour>
      <point x="230" y="111" type="curve" smooth="yes"/>
      <point x="221" y="111"/>
      <point x="197" y="111"/>
      <point x="188" y="112" type="curve"/>
      <point x="244" y="342" type="line"/>
      <point x="256" y="343"/>
      <point x="274" y="343"/>
      <point x="279" y="343" type="curve" smooth="yes"/>
      <point x="349" y="343"/>
      <point x="388" y="310"/>
      <point x="388" y="259" type="curve" smooth="yes"/>
      <point x="388" y="176"/>
      <point x="337" y="111"/>
    </contour>
  </outline>
</glyph>
<glyph name="chook" format="2">
  <advance width="560"/>
  <unicode hex="0188"/>
  <anchor x="217" y="0" name="bottom"/>
  <anchor x="343" y="526" name="top"/>
  <outline>
    <contour>
      <point x="267" y="-15" type="curve" smooth="yes"/>
      <point x="330" y="-15"/>
      <point x="377" y="1"/>
      <point x="414" y="16" type="curve"/>
      <point x="399" y="130" type="line"/>
      <point x="371" y="118"/>
      <point x="334" y="109"/>
      <point x="295" y="109" type="curve" smooth="yes"/>
      <point x="216" y="109"/>
      <point x="178" y="146"/>
      <point x="178" y="226" type="curve" smooth="yes"/>
      <point x="178" y="342"/>
      <point x="254" y="420"/>
      <point x="353" y="420" type="curve" smooth="yes"/>
      <point x="394" y="420"/>
      <point x="421" y="410"/>
      <point x="447" y="399" type="curve"/>
      <point x="479" y="473" type="line" smooth="yes"/>
      <point x="492" y="503"/>
      <point x="515" y="516"/>
      <point x="543" y="516" type="curve" smooth="yes"/>
      <point x="556" y="516"/>
      <point x="571" y="513"/>
      <point x="586" y="507" type="curve"/>
      <point x="637" y="612" type="line"/>
      <point x="608" y="623"/>
      <point x="578" y="629"/>
      <point x="549" y="629" type="curve" smooth="yes"/>
      <point x="488" y="629"/>
      <point x="441" y="604"/>
      <point x="409" y="534" type="curve"/>
      <point x="394" y="538"/>
      <point x="370" y="540"/>
      <point x="353" y="540" type="curve" smooth="yes"/>
      <point x="166" y="540"/>
      <point x="38" y="391"/>
      <point x="38" y="211" type="curve" smooth="yes"/>
      <point x="38" y="88"/>
      <point x="102" y="-15"/>
    </contour>
  </outline>
</glyph>
<glyph name="Dtopbar" format="2">
  <advance width="560"/>
  <unicode hex="018B"/>
  <anchor x="217" y="0" name="bottom"/>
  <anchor x="381" y="685" name="top"/>
  <outline>
    <contour>
      <point x="267" y="-7" type="curve" smooth="yes"/>
      <point x="319" y="-7"/>
      <point x="372" y="-4"/>
      <point x="443" y="12" type="curve"/>
      <point x="608" y="693" type="line"/>
      <point x="198" y="693" type="line"/>
      <point x="171" y="579" type="line"/>
      <point x="442" y="579" type="line"/>
      <point x="409" y="447" type="line"/>
      <point x="365" y="447" type="line" smooth="yes"/>
      <point x="175" y="447"/>
      <point x="27" y="379"/>
      <point x="27" y="186" type="curve" smooth="yes"/>
      <point x="27" y="77"/>
      <point x="113" y="-7"/>
    </contour>
    <contour>
      <point x="272" y="110" type="curve" smooth="yes"/>
      <point x="202" y="110"/>
      <point x="165" y="144"/>
      <point x="165" y="200" type="curve" smooth="yes"/>
      <point x="165" y="297"/>
      <point x="250" y="329"/>
      <point x="330" y="329" type="curve" smooth="yes"/>
      <point x="381" y="329" type="line"/>
      <point x="330" y="114" type="line"/>
      <point x="316" y="111"/>
      <point x="292" y="110"/>
    </contour>
  </outline>
</glyph>
<glyph name="dtopbar" format="2">
  <advance width="560"/>
  <unicode hex="018C"/>
  <anchor x="217" y="0" name="bottom"/>
  <anchor x="343" y="526" name="top"/>
  <outline>
    <contour>
      <point x="189" y="-12" type="curve" smooth="yes"/>
      <point x="269" y="-12"/>
      <point x="319" y="18"/>
      <point x="348" y="40" type="curve"/>
      <point x="350" y="32"/>
      <point x="363" y="2"/>
      <point x="369" y="-9" type="curve"/>
      <point x="490" y="11" type="line"/>
      <point x="477" y="52"/>
      <point x="468" y="92"/>
      <point x="468" y="136" type="curve" smooth="yes"/>
      <point x="468" y="162"/>
      <point x="471" y="188"/>
      <point x="477" y="215" type="curve" smooth="yes"/>
      <point x="610" y="769" type="line"/>
      <point x="223" y="769" type="line"/>
      <point x="197" y="655" type="line"/>
      <point x="446" y="655" type="line"/>
      <point x="415" y="526" type="line"/>
      <point x="395" y="532"/>
      <point x="376" y="534"/>
      <point x="357" y="534" type="curve" smooth="yes"/>
      <point x="176" y="534"/>
      <point x="30" y="396"/>
      <point x="30" y="193" type="curve" smooth="yes"/>
      <point x="30" y="60"/>
      <point x="91" y="-11"/>
    </contour>
    <contour>
      <point x="239" y="105" type="curve" smooth="yes"/>
      <point x="195" y="105"/>
      <point x="166" y="125"/>
      <point x="166" y="204" type="curve" smooth="yes"/>
      <point x="166" y="316"/>
      <point x="232" y="421"/>
      <point x="337" y="421" type="curve" smooth="yes"/>
      <point x="353" y="421"/>
      <point x="371" y="420"/>
      <point x="388" y="416" type="curve"/>
      <point x="340" y="216" type="line" smooth="yes"/>
      <point x="334" y="190"/>
      <point x="331" y="174"/>
      <point x="329" y="152" type="curve"/>
      <point x="307" y="127"/>
      <point x="281" y="105"/>
    </contour>
  </outline>
</glyph>
<glyph name="Iota-latin" format="2">
  <advance width="560"/>
  <unicode hex="0196"/>
  <anchor x="217" y="0" name="bottom"/>
  <anchor x="381" y="685" name="top"/>
  <outline>
    <contour>
      <point x="322" y="-15" type="curve" smooth="yes"/>
      <point x="399" y="-15"/>
      <point x="442" y="2"/>
      <point x="475" y="16" type="curve"/>
      <point x="470" y="129" type="line"/>
      <point x="443" y="119"/>
      <point x="402" y="108"/>
      <point x="369" y="108" type="curve" smooth="yes"/>
      <point x="318" y="108"/>
      <point x="296" y="123"/>
      <point x="296" y="162" type="curve" smooth="yes"/>
      <point x="296" y="175"/>
      <point x="300" y="189"/>
      <point x="303" y="207" type="curve" smooth="yes"/>
      <point x="393" y="579" type="line"/>
      <point x="544" y="579" type="line"/>
      <point x="571" y="693" type="line"/>
      <point x="151" y="693" type="line"/>
      <point x="124" y="579" type="line"/>
      <point x="254" y="579" type="line"/>
      <point x="165" y="209" type="line" smooth="yes"/>
      <point x="158" y="180"/>
      <point x="154" y="152"/>
      <point x="154" y="127" type="curve" smooth="yes"/>
      <point x="154" y="45"/>
      <point x="197" y="-15"/>
    </contour>
  </outline>
</glyph>
<glyph name="lbar" format="2">
  <advance width="560"/>
  <unicode hex="019A"/>
  <outline>
    <contour>
      <point x="315" y="-12" type="curve" smooth="yes"/>
      <point x="408" y="-12"/>
      <point x="468" y="16"/>
      <point x="479" y="22" type="curve"/>
      <point x="471" y="131" type="line"/>
      <point x="458" y="127"/>
      <point x="407" y="108"/>
      <point x="365" y="108" type="curve" smooth="yes"/>
      <point x="315" y="108"/>
      <point x="303" y="134"/>
      <point x="303" y="164" type="curve" smooth="yes"/>
      <point x="303" y="177"/>
      <point x="307" y="196"/>
      <point x="310" y="211" type="curve" smooth="yes"/>
      <point x="344" y="353" type="line"/>
      <point x="493" y="353" type="line"/>
      <point x="516" y="448" type="line"/>
      <point x="366" y="448" type="line"/>
      <point x="445" y="776" type="line"/>
      <point x="161" y="776" type="line"/>
      <point x="134" y="662" type="line"/>
      <point x="281" y="662" type="line"/>
      <point x="229" y="448" type="line"/>
      <point x="85" y="448" type="line"/>
      <point x="62" y="353" type="line"/>
      <point x="206" y="353" type="line"/>
      <point x="174" y="220" type="line" smooth="yes"/>
      <point x="167" y="190"/>
      <point x="163" y="162"/>
      <point x="163" y="137" type="curve" smooth="yes"/>
      <point x="163" y="43"/>
      <point x="214" y="-12"/>
    </contour>
  </outline>
</glyph>
<glyph name="lambdastroke" format="2">
  <advance width="560"/>
  <unicode hex="019B"/>
  <anchor x="217" y="0" name="bottom"/>
  <anchor x="403" y="776" name="top"/>
  <outline>
    <contour>
      <point x="-26" y="0" type="curve"/>
      <point x="119" y="0" type="line"/>
      <point x="169" y="121"/>
      <point x="247" y="271"/>
      <point x="311" y="372" type="curve"/>
      <point x="321" y="284"/>
      <point x="326" y="144"/>
      <point x="328" y="0" type="curve"/>
      <point x="475" y="0" type="line"/>
      <point x="469" y="205"/>
      <point x="447" y="400"/>
      <point x="410" y="591" type="curve"/>
      <point x="533" y="632" type="line"/>
      <point x="522" y="715" type="line"/>
      <point x="389" y="671" type="line"/>
      <point x="365" y="734"/>
      <point x="322" y="776"/>
      <point x="239" y="776" type="curve" smooth="yes"/>
      <point x="201" y="776"/>
      <point x="171" y="772"/>
      <point x="150" y="764" type="curve"/>
      <point x="144" y="656" type="line"/>
      <point x="158" y="659"/>
      <point x="178" y="664"/>
      <point x="198" y="664" type="curve" smooth="yes"/>
      <point x="234" y="664"/>
      <point x="251" y="654"/>
      <point x="265" y="631" type="curve"/>
      <point x="144" y="590" type="line"/>
      <point x="155" y="507" type="line"/>
      <point x="288" y="551" type="line"/>
      <point x="290" y="530" type="line"/>
      <point x="189" y="394"/>
      <point x="68" y="226"/>
    </contour>
  </outline>
</glyph>
<glyph name="oi" format="2">
  <advance width="560"/>
  <unicode hex="01A3"/>
  <outline>
    <contour>
      <point x="320" y="-185" type="line"/>
      <point x="423" y="-185" type="line"/>
      <point x="543" y="310" type="line" smooth="yes"/>
      <point x="552" y="346"/>
      <point x="559" y="388"/>
      <point x="559" y="424" type="curve" smooth="yes"/>
      <point x="559" y="486"/>
      <point x="535" y="538"/>
      <point x="449" y="538" type="curve" smooth="yes"/>
      <point x="419" y="538"/>
      <point x="379" y="530"/>
      <point x="338" y="506" type="curve"/>
      <point x="319" y="528"/>
      <point x="291" y="540"/>
      <point x="253" y="540" type="curve" smooth="yes"/>
      <point x="72" y="540"/>
      <point x="15" y="279"/>
      <point x="15" y="141" type="curve" smooth="yes"/>
      <point x="15" y="60"/>
      <point x="44" y="-12"/>
      <point x="136" y="-12" type="curve" smooth="yes"/>
      <point x="318" y="-12"/>
      <point x="374" y="249"/>
      <point x="374" y="388" type="curve" smooth="yes"/>
      <point x="374" y="400"/>
      <point x="374" y="412"/>
      <point x="371" y="426" type="curve"/>
      <point x="384" y="432"/>
      <point x="395" y="436"/>
      <point x="412" y="436" type="curve" smooth="yes"/>
      <point x="443" y="436"/>
      <point x="452" y="412"/>
      <point x="452" y="384" type="curve" smooth="yes"/>
      <point x="452" y="352"/>
      <point x="440" y="314"/>
      <point x="436" y="297" type="curve" smooth="yes"/>
    </contour>
    <contour>
      <point x="155" y="92" type="curve" smooth="yes"/>
      <point x="132" y="92"/>
      <point x="117" y="109"/>
      <point x="117" y="166" type="curve" smooth="yes"/>
      <point x="117" y="245"/>
      <point x="150" y="436"/>
      <point x="234" y="436" type="curve" smooth="yes"/>
      <point x="257" y="436"/>
      <point x="272" y="419"/>
      <point x="272" y="362" type="curve" smooth="yes"/>
      <point x="272" y="283"/>
      <point x="240" y="92"/>
    </contour>
  </outline>
</glyph>
<glyph name="eshreversedloop" format="2">
  <advance width="560"/>
  <unicode hex="01AA"/>
  <outline>
    <contour>
      <point x="352" y="-188" type="curve"/>
      <point x="381" y="-188"/>
      <point x="410" y="-186"/>
      <point x="432" y="-184" type="curve"/>
      <point x="460" y="-68" type="line"/>
      <point x="405" y="-68" type="line" smooth="yes"/>
      <point x="352" y="-68"/>
      <point x="340" y="-43"/>
      <point x="340" y="-12" type="curve" smooth="yes"/>
      <point x="340" y="1"/>
      <point x="344" y="20"/>
      <point x="347" y="34" type="curve" smooth="yes"/>
      <point x="470" y="544" type="line" smooth="yes"/>
      <point x="478" y="575"/>
      <point x="482" y="605"/>
      <point x="482" y="632" type="curve" smooth="yes"/>
      <point x="482" y="721"/>
      <point x="437" y="781"/>
      <point x="328" y="781" type="curve" smooth="yes"/>
      <point x="192" y="781"/>
      <point x="117" y="678"/>
      <point x="117" y="582" type="curve" smooth="yes"/>
      <point x="117" y="511"/>
      <point x="153" y="448"/>
      <point x="245" y="448" type="curve" smooth="yes"/>
      <point x="263" y="448"/>
      <point x="286" y="452"/>
      <point x="312" y="464" type="curve"/>
      <point x="211" y="44" type="line" smooth="yes"/>
      <point x="204" y="15"/>
      <point x="200" y="-15"/>
      <point x="200" y="-39" type="curve" smooth="yes"/>
      <point x="200" y="-133"/>
      <point x="251" y="-188"/>
    </contour>
    <contour>
      <point x="273" y="553" type="curve" smooth="yes"/>
      <point x="239" y="553"/>
      <point x="229" y="575"/>
      <point x="229" y="601" type="curve" smooth="yes"/>
      <point x="229" y="638"/>
      <point x="257" y="683"/>
      <point x="302" y="683" type="curve" smooth="yes"/>
      <point x="342" y="683"/>
      <point x="351" y="659"/>
      <point x="351" y="632" type="curve" smooth="yes"/>
      <point x="351" y="622"/>
      <point x="349" y="613"/>
      <point x="338" y="578" type="curve"/>
      <point x="320" y="561"/>
      <point x="296" y="553"/>
    </contour>
  </outline>
</glyph>
<glyph name="thook" format="2">
  <advance width="560"/>
  <unicode hex="01AD"/>
  <anchor x="217" y="0" name="bottom"/>
  <anchor x="343" y="526" name="top"/>
  <outline>
    <contour>
      <point x="307" y="-12" type="curve" smooth="yes"/>
      <point x="362" y="-12"/>
      <point x="431" y="1"/>
      <point x="477" y="21" type="curve"/>
      <point x="469" y="134" type="line"/>
      <point x="428" y="118"/>
      <point x="385" y="108"/>
      <point x="344" y="108" type="curve" smooth="yes"/>
      <point x="305" y="108"/>
      <point x="269" y="119"/>
      <point x="269" y="164" type="curve" smooth="yes"/>
      <point x="269" y="176"/>
      <point x="272" y="190"/>
      <point x="275" y="207" type="curve" smooth="yes"/>
      <point x="324" y="412" type="line"/>
      <point x="535" y="412" type="line"/>
      <point x="563" y="526" type="line"/>
      <point x="351" y="526" type="line"/>
      <point x="358" y="557" type="line" smooth="yes"/>
      <point x="379" y="647"/>
      <point x="417" y="659"/>
      <point x="469" y="659" type="curve" smooth="yes"/>
      <point x="510" y="659"/>
      <point x="540" y="648"/>
      <point x="571" y="634" type="curve"/>
      <point x="619" y="746" type="line"/>
      <point x="581" y="764"/>
      <point x="530" y="776"/>
      <point x="472" y="776" type="curve" smooth="yes"/>
      <point x="352" y="776"/>
      <point x="260" y="726"/>
      <point x="220" y="557" type="curve" smooth="yes"/>
      <point x="213" y="526" type="line"/>
      <point x="94" y="526" type="line"/>
      <point x="66" y="412" type="line"/>
      <point x="186" y="412" type="line"/>
      <point x="139" y="215" type="line" smooth="yes"/>
      <point x="132" y="187"/>
      <point x="129" y="162"/>
      <point x="129" y="139" type="curve" smooth="yes"/>
      <point x="129" y="41"/>
      <point x="189" y="-12"/>
    </contour>
  </outline>
</glyph>
<glyph name="ezhtail" format="2">
  <advance width="560"/>
  <unicode hex="01BA"/>
  <anchor x="217" y="0" name="bottom"/>
  <anchor x="343" y="526" name="top"/>
  <outline>
    <contour>
      <point x="-35" y="-190" type="curve"/>
      <point x="79" y="-167" type="line"/>
      <point x="76" y="-156"/>
      <point x="74" y="-150"/>
      <point x="74" y="-139" type="curve" smooth="yes"/>
      <point x="74" y="-110"/>
      <point x="91" y="-87"/>
      <point x="158" y="-71" type="curve" smooth="yes"/>
      <point x="290" y="-40" type="line" smooth="yes"/>
      <point x="406" y="-12"/>
      <point x="459" y="54"/>
      <point x="459" y="138" type="curve" smooth="yes"/>
      <point x="459" y="200"/>
      <point x="431" y="260"/>
      <point x="321" y="277" type="curve"/>
      <point x="379" y="317"/>
      <point x="473" y="398"/>
      <point x="522" y="436" type="curve"/>
      <point x="544" y="526" type="line"/>
      <point x="141" y="526" type="line"/>
      <point x="114" y="412" type="line"/>
      <point x="346" y="412" type="line"/>
      <point x="309" y="382"/>
      <point x="234" y="323"/>
      <point x="181" y="283" type="curve"/>
      <point x="165" y="211" type="line"/>
      <point x="293" y="214"/>
      <point x="318" y="183"/>
      <point x="318" y="139" type="curve" smooth="yes"/>
      <point x="318" y="85"/>
      <point x="270" y="72"/>
      <point x="219" y="60" type="curve" smooth="yes"/>
      <point x="146" y="43" type="line" smooth="yes"/>
      <point x="30" y="13"/>
      <point x="-46" y="-24"/>
      <point x="-46" y="-122" type="curve" smooth="yes"/>
      <point x="-46" y="-144"/>
      <point x="-45" y="-161"/>
    </contour>
  </outline>
</glyph>
<glyph name="twostroke" format="2">
  <advance width="560"/>
  <unicode hex="01BB"/>
  <anchor x="217" y="0" name="bottom"/>
  <anchor x="403" y="776" name="top"/>
  <outline>
    <contour>
      <point x="10" y="0" type="curve"/>
      <point x="455" y="0" type="line"/>
      <point x="483" y="114" type="line"/>
      <point x="183" y="114" type="line"/>
      <point x="239" y="194"/>
      <point x="305" y="241"/>
      <point x="370" y="288" type="curve"/>
      <point x="522" y="288" type="line"/>
      <point x="546" y="388" type="line"/>
      <point x="477" y="388" type="line"/>
      <point x="533" y="450"/>
      <point x="554" y="501"/>
      <point x="554" y="552" type="curve" smooth="yes"/>
      <point x="554" y="641"/>
      <point x="494" y="708"/>
      <point x="371" y="708" type="curve" smooth="yes"/>
      <point x="286" y="708"/>
      <point x="201" y="685"/>
      <point x="150" y="625" type="curve"/>
      <point x="194" y="530" type="line"/>
      <point x="250" y="579"/>
      <point x="298" y="590"/>
      <point x="341" y="590" type="curve" smooth="yes"/>
      <point x="388" y="590"/>
      <point x="413" y="566"/>
      <point x="413" y="526" type="curve" smooth="yes"/>
      <point x="413" y="484"/>
      <point x="387" y="448"/>
      <point x="314" y="388" type="curve"/>
      <point x="129" y="388" type="line"/>
      <point x="107" y="288" type="line"/>
      <point x="195" y="288" type="line"/>
      <point x="105" y="220"/>
      <point x="25" y="136"/>
    </contour>
  </outline>
</glyph>
<glyph name="Tonefive" format="2">
  <advance width="560"/>
  <unicode hex="01BC"/>
  <anchor x="217" y="0" name="bottom"/>
  <anchor x="381" y="685" name="top"/>
  <outline>
    <contour>
      <point x="218" y="-18" type="curve" smooth="yes"/>
      <point x="396" y="-18"/>
      <point x="511" y="71"/>
      <point x="511" y="240" type="curve" smooth="yes"/>
      <point x="511" y="349"/>
      <point x="433" y="424"/>
      <point x="287" y="433" type="curve"/>
      <point x="303" y="476"/>
      <point x="320" y="536"/>
      <point x="332" y="579" type="curve"/>
      <point x="567" y="579" type="line"/>
      <point x="599" y="693" type="line"/>
      <point x="150" y="693" type="line"/>
      <point x="118" y="579" type="line"/>
      <point x="207" y="579" type="line"/>
      <point x="183" y="501"/>
      <point x="162" y="437"/>
      <point x="129" y="344" type="curve"/>
      <point x="326" y="351"/>
      <point x="370" y="288"/>
      <point x="370" y="228" type="curve" smooth="yes"/>
      <point x="370" y="161"/>
      <point x="333" y="100"/>
      <point x="220" y="100" type="curve" smooth="yes"/>
      <point x="148" y="100"/>
      <point x="94" y="124"/>
      <point x="62" y="140" type="curve"/>
      <point x="12" y="26" type="line"/>
      <point x="81" y="-8"/>
      <point x="139" y="-18"/>
    </contour>
  </outline>
</glyph>
<glyph name="tonefive" format="2">
  <advance width="560"/>
  <unicode hex="01BD"/>
  <anchor x="217" y="0" name="bottom"/>
  <anchor x="343" y="526" name="top"/>
  <outline>
    <contour>
      <point x="206" y="-18" type="curve" smooth="yes"/>
      <point x="358" y="-18"/>
      <point x="475" y="43"/>
      <point x="475" y="177" type="curve" smooth="yes"/>
      <point x="475" y="290"/>
      <point x="406" y="325"/>
      <point x="277" y="333" type="curve"/>
      <point x="286" y="356"/>
      <point x="294" y="382"/>
      <point x="302" y="412" type="curve"/>
      <point x="507" y="412" type="line"/>
      <point x="538" y="526" type="line"/>
      <point x="139" y="526" type="line"/>
      <point x="108" y="412" type="line"/>
      <point x="180" y="412" type="line"/>
      <point x="161" y="353"/>
      <point x="146" y="310"/>
      <point x="123" y="244" type="curve"/>
      <point x="141" y="245"/>
      <point x="157" y="245"/>
      <point x="172" y="245" type="curve" smooth="yes"/>
      <point x="283" y="245"/>
      <point x="334" y="231"/>
      <point x="334" y="168" type="curve" smooth="yes"/>
      <point x="334" y="122"/>
      <point x="290" y="100"/>
      <point x="216" y="100" type="curve" smooth="yes"/>
      <point x="166" y="100"/>
      <point x="111" y="112"/>
      <point x="76" y="130" type="curve"/>
      <point x="26" y="16" type="line"/>
      <point x="81" y="-7"/>
      <point x="144" y="-18"/>
    </contour>
  </outline>
</glyph>
<glyph name="wynn" format="2">
  <advance width="560"/>
  <unicode hex="01BF"/>
  <outline>
    <contour>
      <point x="-46" y="-185" type="line"/>
      <point x="101" y="-185" type="line"/>
      <point x="132" y="-53" type="line"/>
      <point x="397" y="8"/>
      <point x="525" y="177"/>
      <point x="525" y="348" type="curve" smooth="yes"/>
      <point x="525" y="469"/>
      <point x="464" y="538"/>
      <point x="335" y="538" type="curve" smooth="yes"/>
      <point x="269" y="538"/>
      <point x="181" y="521"/>
      <point x="115" y="496" type="curve"/>
    </contour>
    <contour>
      <point x="166" y="88" type="curve"/>
      <point x="241" y="398" type="line"/>
      <point x="262" y="407"/>
      <point x="281" y="410"/>
      <point x="300" y="410" type="curve" smooth="yes"/>
      <point x="351" y="410"/>
      <point x="375" y="374"/>
      <point x="375" y="325" type="curve" smooth="yes"/>
      <point x="375" y="244"/>
      <point x="302" y="122"/>
    </contour>
  </outline>
</glyph>
<glyph name="clickalveolar" format="2">
  <advance width="560"/>
  <unicode hex="01C2"/>
  <outline>
    <contour>
      <point x="102" y="-185" type="line"/>
      <point x="241" y="-185" type="line"/>
      <point x="322" y="151" type="line"/>
      <point x="505" y="151" type="line"/>
      <point x="531" y="259" type="line"/>
      <point x="347" y="259" type="line"/>
      <point x="369" y="349" type="line"/>
      <point x="553" y="349" type="line"/>
      <point x="578" y="457" type="line"/>
      <point x="395" y="457" type="line"/>
      <point x="473" y="783" type="line"/>
      <point x="335" y="783" type="line"/>
      <point x="257" y="457" type="line"/>
      <point x="74" y="457" type="line"/>
      <point x="49" y="349" type="line"/>
      <point x="231" y="349" type="line"/>
      <point x="209" y="259" type="line"/>
      <point x="27" y="259" type="line"/>
      <point x="2" y="151" type="line"/>
      <point x="184" y="151" type="line"/>
    </contour>
  </outline>
</glyph>
<glyph name="DZcaron" format="2">
  <advance width="560"/>
  <unicode hex="01C4"/>
  <outline>
    <contour>
      <point x="63" y="-7" type="curve" smooth="yes"/>
      <point x="268" y="-7"/>
      <point x="374" y="298"/>
      <point x="374" y="511" type="curve" smooth="yes"/>
      <point x="374" y="646"/>
      <point x="334" y="701"/>
      <point x="235" y="701" type="curve" smooth="yes"/>
      <point x="199" y="701"/>
      <point x="167" y="697"/>
      <point x="130" y="689" type="curve"/>
      <point x="-33" y="4" type="line"/>
      <point x="1" y="-6"/>
      <point x="52" y="-7"/>
    </contour>
    <contour>
      <point x="98" y="97" type="curve" smooth="yes"/>
      <point x="94" y="97"/>
      <point x="91" y="97"/>
      <point x="87" y="99" type="curve"/>
      <point x="208" y="604" type="line"/>
      <point x="269" y="619"/>
      <point x="276" y="567"/>
      <point x="276" y="500" type="curve" smooth="yes"/>
      <point x="276" y="330"/>
      <point x="195" y="97"/>
    </contour>
    <contour>
      <point x="268" y="0" type="line"/>
      <point x="496" y="0" type="line"/>
      <point x="520" y="104" type="line"/>
      <point x="389" y="104" type="line"/>
      <point x="464" y="267"/>
      <point x="574" y="480"/>
      <point x="641" y="606" type="curve"/>
      <point x="662" y="693" type="line"/>
      <point x="455" y="693" type="line"/>
      <point x="430" y="589" type="line"/>
      <point x="538" y="589" type="line"/>
      <point x="447" y="407"/>
      <point x="393" y="301"/>
      <point x="290" y="85" type="curve"/>
    </contour>
    <contour>
      <point x="563" y="743" type="line"/>
      <point x="730" y="856" type="line"/>
      <point x="697" y="908" type="line"/>
      <point x="578" y="832" type="line"/>
      <point x="506" y="907" type="line"/>
      <point x="462" y="865" type="line"/>
    </contour>
  </outline>
</glyph>
<glyph name="Dzcaron" format="2">
  <advance width="560"/>
  <unicode hex="01C5"/>
  <outline>
    <contour>
      <point x="63" y="-7" type="curve" smooth="yes"/>
      <point x="268" y="-7"/>
      <point x="374" y="298"/>
      <point x="374" y="511" type="curve" smooth="yes"/>
      <point x="374" y="646"/>
      <point x="334" y="701"/>
      <point x="235" y="701" type="curve" smooth="yes"/>
      <point x="199" y="701"/>
      <point x="167" y="697"/>
      <point x="130" y="689" type="curve"/>
      <point x="-33" y="4" type="line"/>
      <point x="1" y="-6"/>
      <point x="52" y="-7"/>
    </contour>
    <contour>
      <point x="98" y="97" type="curve" smooth="yes"/>
      <point x="94" y="97"/>
      <point x="91" y="97"/>
      <point x="87" y="99" type="curve"/>
      <point x="208" y="604" type="line"/>
      <point x="212" y="605"/>
      <point x="217" y="605"/>
      <point x="221" y="605" type="curve" smooth="yes"/>
      <point x="265" y="605"/>
      <point x="276" y="581"/>
      <point x="276" y="500" type="curve" smooth="yes"/>
      <point x="276" y="330"/>
      <point x="195" y="97"/>
    </contour>
    <contour>
      <point x="286" y="0" type="line"/>
      <point x="503" y="0" type="line"/>
      <point x="528" y="104" type="line"/>
      <point x="412" y="104" type="line"/>
      <point x="472" y="213"/>
      <point x="550" y="347"/>
      <point x="608" y="435" type="curve"/>
      <point x="629" y="526" type="line"/>
      <point x="422" y="526" type="line"/>
      <point x="398" y="422" type="line"/>
      <point x="500" y="422" type="line"/>
      <point x="432" y="311"/>
      <point x="385" y="223"/>
      <point x="305" y="80" type="curve"/>
    </contour>
    <contour>
      <point x="530" y="587" type="line"/>
      <point x="670" y="687" type="line"/>
      <point x="637" y="739" type="line"/>
      <point x="545" y="678" type="line"/>
      <point x="487" y="739" type="line"/>
      <point x="443" y="697" type="line"/>
    </contour>
  </outline>
</glyph>
<glyph name="LJ" format="2">
  <advance width="560"/>
  <unicode hex="01C7"/>
  <outline>
    <contour>
      <point x="262" y="-13" type="line"/>
      <point x="272" y="-13" type="line"/>
      <point x="454" y="-11"/>
      <point x="487" y="54"/>
      <point x="521" y="200" type="curve" smooth="yes"/>
      <point x="639" y="693" type="line"/>
      <point x="542" y="693" type="line"/>
      <point x="418" y="179" type="line" smooth="yes"/>
      <point x="398" y="96"/>
      <point x="347" y="83"/>
      <point x="285" y="83" type="curve"/>
    </contour>
    <contour>
      <point x="-45" y="0" type="line"/>
      <point x="217" y="0" type="line"/>
      <point x="240" y="96" type="line"/>
      <point x="74" y="96" type="line"/>
      <point x="218" y="693" type="line"/>
      <point x="120" y="693" type="line"/>
    </contour>
  </outline>
</glyph>
<glyph name="NJ" format="2">
  <advance width="560"/>
  <unicode hex="01CA"/>
  <outline>
    <contour>
      <point x="-45" y="0" type="line"/>
      <point x="52" y="0" type="line"/>
      <point x="120" y="283" type="line"/>
      <point x="158" y="440" type="line"/>
      <point x="153" y="259"/>
      <point x="154" y="172"/>
      <point x="157" y="0" type="curve"/>
      <point x="241" y="0" type="line"/>
      <point x="407" y="693" type="line"/>
      <point x="309" y="693" type="line"/>
      <point x="249" y="444" type="line"/>
      <point x="212" y="287" type="line"/>
      <point x="204" y="693" type="line"/>
      <point x="120" y="693" type="line"/>
    </contour>
    <contour>
      <point x="276" y="-15" type="line"/>
      <point x="468" y="-15"/>
      <point x="490" y="71"/>
      <point x="521" y="200" type="curve" smooth="yes"/>
      <point x="639" y="693" type="line"/>
      <point x="542" y="693" type="line"/>
      <point x="418" y="179" type="line" smooth="yes"/>
      <point x="398" y="96"/>
      <point x="354" y="81"/>
      <point x="300" y="81" type="curve"/>
    </contour>
  </outline>
</glyph>
<glyph name="Nj" format="2">
  <advance width="560"/>
  <unicode hex="01CB"/>
  <outline>
    <contour>
      <point x="-35" y="0" type="line"/>
      <point x="62" y="0" type="line"/>
      <point x="129" y="279" type="line"/>
      <point x="169" y="440" type="line"/>
      <point x="163" y="259"/>
      <point x="164" y="172"/>
      <point x="167" y="0" type="curve"/>
      <point x="251" y="0" type="line"/>
      <point x="417" y="693" type="line"/>
      <point x="319" y="693" type="line"/>
      <point x="257" y="432" type="line"/>
      <point x="222" y="287" type="line"/>
      <point x="214" y="693" type="line"/>
      <point x="130" y="693" type="line"/>
    </contour>
    <contour>
      <point x="248" y="-186" type="curve" smooth="yes"/>
      <point x="361" y="-186"/>
      <point x="416" y="-113"/>
      <point x="450" y="27" type="curve" smooth="yes"/>
      <point x="571" y="526" type="line"/>
      <point x="472" y="526" type="line"/>
      <point x="349" y="15" type="line" smooth="yes"/>
      <point x="331" y="-60"/>
      <point x="301" y="-87"/>
      <point x="256" y="-87" type="curve" smooth="yes"/>
      <point x="235" y="-87"/>
      <point x="209" y="-81"/>
      <point x="180" y="-71" type="curve"/>
      <point x="150" y="-166" type="line"/>
      <point x="186" y="-180"/>
      <point x="219" y="-186"/>
    </contour>
    <contour>
      <point x="533" y="589" type="curve" smooth="yes"/>
      <point x="587" y="589"/>
      <point x="628" y="640"/>
      <point x="628" y="685" type="curve" smooth="yes"/>
      <point x="628" y="720"/>
      <point x="603" y="743"/>
      <point x="568" y="743" type="curve" smooth="yes"/>
      <point x="524" y="743"/>
      <point x="472" y="703"/>
      <point x="472" y="645" type="curve" smooth="yes"/>
      <point x="472" y="612"/>
      <point x="498" y="589"/>
    </contour>
  </outline>
</glyph>
<glyph name="eturned" format="2">
  <advance width="560"/>
  <unicode hex="01DD"/>
  <outline>
    <contour>
      <point x="191" y="-12" type="curve" smooth="yes"/>
      <point x="405" y="-12"/>
      <point x="516" y="148"/>
      <point x="516" y="323" type="curve" smooth="yes"/>
      <point x="516" y="451"/>
      <point x="447" y="540"/>
      <point x="275" y="540" type="curve" smooth="yes"/>
      <point x="199" y="540"/>
      <point x="130" y="520"/>
      <point x="95" y="502" type="curve"/>
      <point x="108" y="400" type="line"/>
      <point x="134" y="411"/>
      <point x="189" y="428"/>
      <point x="248" y="428" type="curve" smooth="yes"/>
      <point x="349" y="428"/>
      <point x="377" y="388"/>
      <point x="380" y="337" type="curve"/>
      <point x="179" y="336"/>
      <point x="16" y="286"/>
      <point x="16" y="133" type="curve" smooth="yes"/>
      <point x="16" y="43"/>
      <point x="88" y="-12"/>
    </contour>
    <contour>
      <point x="217" y="99" type="curve" smooth="yes"/>
      <point x="172" y="99"/>
      <point x="146" y="116"/>
      <point x="146" y="152" type="curve" smooth="yes"/>
      <point x="146" y="192"/>
      <point x="183" y="242"/>
      <point x="380" y="244" type="curve"/>
      <point x="366" y="156"/>
      <point x="297" y="99"/>
    </contour>
  </outline>
</glyph>
<glyph name="Gstroke" format="2">
  <advance width="560"/>
  <unicode hex="01E4"/>
  <outline>
    <contour>
      <point x="247" y="-15" type="curve" smooth="yes"/>
      <point x="321" y="-15"/>
      <point x="403" y="3"/>
      <point x="437" y="17" type="curve"/>
      <point x="484" y="212" type="line"/>
      <point x="534" y="212" type="line"/>
      <point x="558" y="312" type="line"/>
      <point x="508" y="312" type="line"/>
      <point x="526" y="386" type="line"/>
      <point x="393" y="386" type="line"/>
      <point x="375" y="312" type="line"/>
      <point x="295" y="312" type="line"/>
      <point x="272" y="212" type="line"/>
      <point x="351" y="212" type="line"/>
      <point x="328" y="110" type="line"/>
      <point x="312" y="108"/>
      <point x="290" y="105"/>
      <point x="277" y="105" type="curve" smooth="yes"/>
      <point x="206" y="105"/>
      <point x="183" y="164"/>
      <point x="183" y="243" type="curve" smooth="yes"/>
      <point x="183" y="398"/>
      <point x="257" y="589"/>
      <point x="409" y="589" type="curve" smooth="yes"/>
      <point x="470" y="589"/>
      <point x="496" y="571"/>
      <point x="525" y="549" type="curve"/>
      <point x="580" y="655" type="line"/>
      <point x="564" y="669"/>
      <point x="519" y="709"/>
      <point x="423" y="709" type="curve" smooth="yes"/>
      <point x="169" y="709"/>
      <point x="45" y="455"/>
      <point x="45" y="230" type="curve" smooth="yes"/>
      <point x="45" y="75"/>
      <point x="110" y="-15"/>
    </contour>
  </outline>
</glyph>
<glyph name="Hwair" format="2">
  <advance width="560"/>
  <unicode hex="01F6"/>
  <outline>
    <contour>
      <point x="326" y="-15" type="curve" smooth="yes"/>
      <point x="468" y="-15"/>
      <point x="491" y="78"/>
      <point x="530" y="241" type="curve" smooth="yes"/>
      <point x="599" y="526" type="line"/>
      <point x="490" y="526" type="line"/>
      <point x="425" y="251" type="line" smooth="yes"/>
      <point x="393" y="116"/>
      <point x="385" y="85"/>
      <point x="343" y="85" type="curve" smooth="yes"/>
      <point x="290" y="85"/>
      <point x="328" y="209"/>
      <point x="339" y="260" type="curve" smooth="yes"/>
      <point x="442" y="693" type="line"/>
      <point x="332" y="693" type="line"/>
      <point x="266" y="416" type="line"/>
      <point x="173" y="416" type="line"/>
      <point x="240" y="693" type="line"/>
      <point x="130" y="693" type="line"/>
      <point x="-36" y="0" type="line"/>
      <point x="73" y="0" type="line"/>
      <point x="148" y="310" type="line"/>
      <point x="240" y="310" type="line"/>
      <point x="227" y="255" type="line" smooth="yes"/>
      <point x="194" y="115"/>
      <point x="174" y="-15"/>
    </contour>
  </outline>
</glyph>
<glyph name="Aringacute" format="2">
  <advance width="560"/>
  <unicode hex="01FA"/>
  <outline>
    <contour>
      <point x="-49" y="0" type="curve"/>
      <point x="91" y="0" type="line"/>
      <point x="115" y="55"/>
      <point x="136" y="102"/>
      <point x="158" y="149" type="curve"/>
      <point x="356" y="149" type="line"/>
      <point x="352" y="0" type="line"/>
      <point x="491" y="0" type="line"/>
      <point x="493" y="227"/>
      <point x="477" y="427"/>
      <point x="456" y="606" type="curve"/>
      <point x="475" y="623"/>
      <point x="488" y="647"/>
      <point x="488" y="680" type="curve" smooth="yes"/>
      <point x="488" y="744"/>
      <point x="440" y="778"/>
      <point x="386" y="778" type="curve" smooth="yes"/>
      <point x="334" y="778"/>
      <point x="285" y="744"/>
      <point x="285" y="680" type="curve" smooth="yes"/>
      <point x="285" y="664"/>
      <point x="287" y="650"/>
      <point x="293" y="638" type="curve"/>
      <point x="188" y="467"/>
      <point x="76" y="255"/>
    </contour>
    <contour>
      <point x="211" y="263" type="line"/>
      <point x="287" y="420"/>
      <point x="311" y="466"/>
      <point x="348" y="530" type="curve"/>
      <point x="353" y="468"/>
      <point x="360" y="401"/>
      <point x="359" y="263" type="curve"/>
    </contour>
    <contour>
      <point x="386" y="638" type="curve" smooth="yes"/>
      <point x="367" y="638"/>
      <point x="347" y="653"/>
      <point x="347" y="680" type="curve" smooth="yes"/>
      <point x="347" y="707"/>
      <point x="367" y="721"/>
      <point x="386" y="721" type="curve" smooth="yes"/>
      <point x="406" y="721"/>
      <point x="425" y="707"/>
      <point x="426" y="680" type="curve"/>
      <point x="425" y="653"/>
      <point x="406" y="638"/>
    </contour>
    <contour>
      <point x="334" y="794" type="line"/>
      <point x="508" y="856" type="line"/>
      <point x="479" y="930" type="line"/>
      <point x="315" y="848" type="line"/>
    </contour>
  </outline>
</glyph>
<glyph name="dcurl" format="2">
  <advance width="560"/>
  <unicode hex="0221"/>
  <outline>
    <contour>
      <point x="349" y="-185" type="curve" smooth="yes"/>
      <point x="446" y="-185"/>
      <point x="521" y="-105"/>
      <point x="521" y="11" type="curve" smooth="yes"/>
      <point x="521" y="83"/>
      <point x="479" y="140"/>
      <point x="414" y="140" type="curve" smooth="yes"/>
      <point x="404" y="140"/>
      <point x="391" y="139"/>
      <point x="378" y="136" type="curve"/>
      <point x="533" y="776" type="line"/>
      <point x="403" y="754" type="line"/>
      <point x="348" y="524" type="line"/>
      <point x="333" y="529"/>
      <point x="309" y="532"/>
      <point x="277" y="532" type="curve" smooth="yes"/>
      <point x="157" y="532"/>
      <point x="7" y="412"/>
      <point x="7" y="170" type="curve" smooth="yes"/>
      <point x="7" y="64"/>
      <point x="66" y="-4"/>
      <point x="141" y="-4" type="curve" smooth="yes"/>
      <point x="170" y="-4"/>
      <point x="195" y="4"/>
      <point x="212" y="12" type="curve"/>
      <point x="212" y="12" type="line"/>
      <point x="76" y="-111" type="line"/>
      <point x="127" y="-175" type="line"/>
      <point x="232" y="-80" type="line"/>
      <point x="240" y="-137"/>
      <point x="274" y="-185"/>
    </contour>
    <contour>
      <point x="360" y="-91" type="curve" smooth="yes"/>
      <point x="335" y="-91"/>
      <point x="328" y="-68"/>
      <point x="328" y="-44" type="curve" smooth="yes"/>
      <point x="328" y="-31"/>
      <point x="330" y="-17"/>
      <point x="333" y="-6" type="curve" smooth="yes"/>
      <point x="346" y="35" type="line"/>
      <point x="358" y="43"/>
      <point x="372" y="48"/>
      <point x="386" y="48" type="curve" smooth="yes"/>
      <point x="413" y="48"/>
      <point x="424" y="24"/>
      <point x="424" y="0" type="curve" smooth="yes"/>
      <point x="424" y="-59"/>
      <point x="393" y="-91"/>
    </contour>
    <contour>
      <point x="186" y="99" type="curve" smooth="yes"/>
      <point x="141" y="99"/>
      <point x="124" y="143"/>
      <point x="124" y="183" type="curve" smooth="yes"/>
      <point x="124" y="360"/>
      <point x="217" y="424"/>
      <point x="277" y="424" type="curve" smooth="yes"/>
      <point x="295" y="424"/>
      <point x="312" y="422"/>
      <point x="322" y="416" type="curve"/>
      <point x="253" y="122" type="line"/>
      <point x="239" y="110"/>
      <point x="211" y="99"/>
    </contour>
  </outline>
</glyph>
<glyph name="Ecedilla" format="2">
  <advance width="560"/>
  <unicode hex="0228"/>
  <outline>
    <contour>
      <point x="184" y="-190" type="curve" smooth="yes"/>
      <point x="264" y="-190"/>
      <point x="322" y="-155"/>
      <point x="322" y="-94" type="curve" smooth="yes"/>
      <point x="322" y="-67"/>
      <point x="310" y="-45"/>
      <point x="277" y="-28" type="curve"/>
      <point x="283" y="-18"/>
      <point x="290" y="-9"/>
      <point x="296" y="0" type="curve"/>
      <point x="453" y="0" type="line"/>
      <point x="480" y="114" type="line"/>
      <point x="182" y="114" type="line"/>
      <point x="229" y="309" type="line"/>
      <point x="466" y="309" type="line"/>
      <point x="493" y="423" type="line"/>
      <point x="256" y="423" type="line"/>
      <point x="294" y="579" type="line"/>
      <point x="567" y="579" type="line"/>
      <point x="594" y="693" type="line"/>
      <point x="183" y="693" type="line"/>
      <point x="17" y="0" type="line"/>
      <point x="203" y="0" type="line"/>
      <point x="192" y="-16"/>
      <point x="182" y="-32"/>
      <point x="171" y="-48" type="curve"/>
      <point x="214" y="-59"/>
      <point x="220" y="-74"/>
      <point x="220" y="-90" type="curve" smooth="yes"/>
      <point x="220" y="-100"/>
      <point x="211" y="-118"/>
      <point x="178" y="-118" type="curve" smooth="yes"/>
      <point x="157" y="-118"/>
      <point x="134" y="-112"/>
      <point x="117" y="-103" type="curve"/>
      <point x="88" y="-168" type="line"/>
      <point x="116" y="-183"/>
      <point x="148" y="-190"/>
    </contour>
  </outline>
</glyph>
<glyph name="ncurl" format="2">
  <advance width="560"/>
  <unicode hex="0235"/>
  <outline>
    <contour>
      <point x="351" y="-185" type="curve" smooth="yes"/>
      <point x="449" y="-185"/>
      <point x="524" y="-105"/>
      <point x="524" y="11" type="curve" smooth="yes"/>
      <point x="524" y="83"/>
      <point x="481" y="140"/>
      <point x="416" y="140" type="curve" smooth="yes"/>
      <point x="406" y="140"/>
      <point x="393" y="139"/>
      <point x="379" y="136" type="curve"/>
      <point x="418" y="295" type="line" smooth="yes"/>
      <point x="426" y="326"/>
      <point x="431" y="360"/>
      <point x="431" y="390" type="curve" smooth="yes"/>
      <point x="431" y="472"/>
      <point x="397" y="538"/>
      <point x="291" y="538" type="curve" smooth="yes"/>
      <point x="213" y="538"/>
      <point x="152" y="523"/>
      <point x="102" y="510" type="curve"/>
      <point x="-18" y="0" type="line"/>
      <point x="104" y="0" type="line"/>
      <point x="206" y="422" type="line"/>
      <point x="222" y="426"/>
      <point x="244" y="427"/>
      <point x="256" y="427" type="curve" smooth="yes"/>
      <point x="297" y="427"/>
      <point x="306" y="396"/>
      <point x="306" y="362" type="curve" smooth="yes"/>
      <point x="306" y="336"/>
      <point x="300" y="307"/>
      <point x="295" y="287" type="curve" smooth="yes"/>
      <point x="240" y="58" type="line"/>
      <point x="239" y="52"/>
      <point x="237" y="46"/>
      <point x="236" y="39" type="curve"/>
      <point x="74" y="-106" type="line"/>
      <point x="129" y="-175" type="line"/>
      <point x="234" y="-80" type="line"/>
      <point x="242" y="-137"/>
      <point x="276" y="-185"/>
    </contour>
    <contour>
      <point x="362" y="-91" type="curve" smooth="yes"/>
      <point x="337" y="-91"/>
      <point x="330" y="-68"/>
      <point x="330" y="-44" type="curve" smooth="yes"/>
      <point x="330" y="-31"/>
      <point x="332" y="-17"/>
      <point x="347" y="35" type="curve"/>
      <point x="360" y="43"/>
      <point x="374" y="48"/>
      <point x="388" y="48" type="curve" smooth="yes"/>
      <point x="415" y="48"/>
      <point x="426" y="24"/>
      <point x="426" y="0" type="curve" smooth="yes"/>
      <point x="426" y="-59"/>
      <point x="395" y="-91"/>
    </contour>
  </outline>
</glyph>
<glyph name="tcurl" format="2">
  <advance width="560"/>
  <unicode hex="0236"/>
  <outline>
    <contour>
      <point x="247" y="-185" type="curve" smooth="yes"/>
      <point x="377" y="-185"/>
      <point x="452" y="-81"/>
      <point x="452" y="15" type="curve" smooth="yes"/>
      <point x="452" y="85"/>
      <point x="413" y="148"/>
      <point x="321" y="148" type="curve" smooth="yes"/>
      <point x="303" y="148"/>
      <point x="283" y="144"/>
      <point x="257" y="132" type="curve"/>
      <point x="324" y="412" type="line"/>
      <point x="535" y="412" type="line"/>
      <point x="563" y="526" type="line"/>
      <point x="351" y="526" type="line"/>
      <point x="389" y="681" type="line"/>
      <point x="245" y="659" type="line"/>
      <point x="213" y="526" type="line"/>
      <point x="94" y="526" type="line"/>
      <point x="66" y="412" type="line"/>
      <point x="186" y="412" type="line"/>
      <point x="106" y="57" type="line"/>
      <point x="104" y="49"/>
      <point x="102" y="40"/>
      <point x="100" y="32" type="curve"/>
      <point x="-57" y="-106" type="line"/>
      <point x="-1" y="-175" type="line"/>
      <point x="106" y="-80" type="line"/>
      <point x="125" y="-159"/>
      <point x="183" y="-185"/>
    </contour>
    <contour>
      <point x="267" y="-87" type="curve" smooth="yes"/>
      <point x="227" y="-87"/>
      <point x="218" y="-63"/>
      <point x="218" y="-36" type="curve" smooth="yes"/>
      <point x="218" y="-30"/>
      <point x="220" y="-16"/>
      <point x="229" y="15" type="curve"/>
      <point x="249" y="35"/>
      <point x="273" y="43"/>
      <point x="296" y="43" type="curve" smooth="yes"/>
      <point x="330" y="43"/>
      <point x="340" y="21"/>
      <point x="340" y="-4" type="curve" smooth="yes"/>
      <point x="340" y="-43"/>
      <point x="312" y="-87"/>
    </contour>
  </outline>
</glyph>
<glyph name="Astroke" format="2">
  <advance width="560"/>
  <unicode hex="023A"/>
  <outline>
    <contour>
      <point x="154" y="-104" type="line"/>
      <point x="287" y="161" type="line"/>
      <point x="369" y="161" type="line"/>
      <point x="362" y="0" type="line"/>
      <point x="501" y="0" type="line"/>
      <point x="494" y="205"/>
      <point x="481" y="368"/>
      <point x="464" y="519" type="curve"/>
      <point x="580" y="749" type="line"/>
      <point x="509" y="774" type="line"/>
      <point x="449" y="655" type="line"/>
      <point x="447" y="668"/>
      <point x="445" y="681"/>
      <point x="444" y="693" type="curve"/>
      <point x="297" y="693" type="line"/>
      <point x="186" y="512"/>
      <point x="60" y="276"/>
      <point x="-67" y="0" type="curve"/>
      <point x="73" y="0" type="line"/>
      <point x="95" y="57"/>
      <point x="122" y="111"/>
      <point x="144" y="161" type="curve"/>
      <point x="200" y="161" type="line"/>
      <point x="82" y="-77" type="line"/>
    </contour>
    <contour>
      <point x="329" y="272" type="line"/>
      <point x="368" y="344" type="line"/>
      <point x="369" y="320"/>
      <point x="371" y="296"/>
      <point x="372" y="272" type="curve"/>
    </contour>
    <contour>
      <point x="201" y="272" type="line"/>
      <point x="272" y="426"/>
      <point x="303" y="488"/>
      <point x="342" y="562" type="curve"/>
      <point x="347" y="531"/>
      <point x="350" y="517"/>
      <point x="354" y="486" type="curve"/>
      <point x="246" y="272" type="line"/>
    </contour>
  </outline>
</glyph>
<glyph name="Cstroke" format="2">
  <advance width="560"/>
  <unicode hex="023B"/>
  <outline>
    <contour>
      <point x="162" y="-102" type="line"/>
      <point x="211" y="-7" type="line"/>
      <point x="231" y="-12"/>
      <point x="253" y="-15"/>
      <point x="276" y="-15" type="curve" smooth="yes"/>
      <point x="380" y="-15"/>
      <point x="458" y="19"/>
      <point x="494" y="44" type="curve"/>
      <point x="479" y="155" type="line"/>
      <point x="436" y="130"/>
      <point x="390" y="106"/>
      <point x="311" y="106" type="curve" smooth="yes"/>
      <point x="297" y="106"/>
      <point x="284" y="108"/>
      <point x="273" y="109" type="curve"/>
      <point x="514" y="568" type="line"/>
      <point x="533" y="559"/>
      <point x="549" y="549"/>
      <point x="564" y="539" type="curve"/>
      <point x="615" y="645" type="line"/>
      <point x="605" y="654"/>
      <point x="592" y="662"/>
      <point x="571" y="674" type="curve"/>
      <point x="610" y="752" type="line"/>
      <point x="521" y="790" type="line"/>
      <point x="477" y="706" type="line"/>
      <point x="460" y="707"/>
      <point x="443" y="709"/>
      <point x="424" y="709" type="curve" smooth="yes"/>
      <point x="160" y="709"/>
      <point x="46" y="455"/>
      <point x="46" y="230" type="curve" smooth="yes"/>
      <point x="46" y="143"/>
      <point x="72" y="73"/>
      <point x="125" y="30" type="curve"/>
      <point x="76" y="-64" type="line"/>
    </contour>
    <contour>
      <point x="197" y="169" type="line"/>
      <point x="188" y="190"/>
      <point x="185" y="215"/>
      <point x="185" y="243" type="curve" smooth="yes"/>
      <point x="185" y="398"/>
      <point x="249" y="589"/>
      <point x="416" y="589" type="curve"/>
    </contour>
  </outline>
</glyph>
<glyph name="cstroke" format="2">
  <advance width="560"/>
  <unicode hex="023C"/>
  <outline>
    <contour>
      <point x="183" y="-88" type="line"/>
      <point x="225" y="-8" type="line"/>
      <point x="244" y="-10"/>
      <point x="263" y="-12"/>
      <point x="285" y="-12" type="curve" smooth="yes"/>
      <point x="390" y="-12"/>
      <point x="433" y="4"/>
      <point x="469" y="24" type="curve"/>
      <point x="455" y="133" type="line"/>
      <point x="430" y="122"/>
      <point x="376" y="108"/>
      <point x="318" y="108" type="curve" smooth="yes"/>
      <point x="305" y="108"/>
      <point x="295" y="108"/>
      <point x="285" y="109" type="curve"/>
      <point x="444" y="416" type="line"/>
      <point x="469" y="412"/>
      <point x="489" y="407"/>
      <point x="503" y="400" type="curve"/>
      <point x="553" y="510" type="line"/>
      <point x="537" y="516"/>
      <point x="521" y="522"/>
      <point x="502" y="528" type="curve"/>
      <point x="536" y="594" type="line"/>
      <point x="466" y="616" type="line"/>
      <point x="426" y="538" type="line"/>
      <point x="416" y="539"/>
      <point x="405" y="539"/>
      <point x="394" y="539" type="curve" smooth="yes"/>
      <point x="189" y="539"/>
      <point x="44" y="398"/>
      <point x="44" y="204" type="curve" smooth="yes"/>
      <point x="44" y="120"/>
      <point x="74" y="46"/>
      <point x="156" y="11" type="curve"/>
      <point x="117" y="-66" type="line"/>
    </contour>
    <contour>
      <point x="217" y="130" type="line"/>
      <point x="191" y="148"/>
      <point x="183" y="176"/>
      <point x="183" y="209" type="curve" smooth="yes"/>
      <point x="183" y="333"/>
      <point x="259" y="407"/>
      <point x="365" y="418" type="curve"/>
    </contour>
  </outline>
</glyph>
<glyph name="Lbar" format="2">
  <advance width="560"/>
  <unicode hex="023D"/>
  <outline>
    <contour>
      <point x="42" y="0" type="line"/>
      <point x="438" y="0" type="line"/>
      <point x="465" y="114" type="line"/>
      <point x="207" y="114" type="line"/>
      <point x="255" y="316" type="line"/>
      <point x="387" y="316" type="line"/>
      <point x="414" y="426" type="line"/>
      <point x="282" y="426" type="line"/>
      <point x="346" y="693" type="line"/>
      <point x="208" y="693" type="line"/>
      <point x="144" y="426" type="line"/>
      <point x="68" y="426" type="line"/>
      <point x="41" y="316" type="line"/>
      <point x="117" y="316" type="line"/>
    </contour>
  </outline>
</glyph>
<glyph name="sswashtail" format="2">
  <advance width="560"/>
  <unicode hex="023F"/>
  <outline>
    <contour>
      <point x="277" y="-185" type="curve" smooth="yes"/>
      <point x="316" y="-185"/>
      <point x="337" y="-183"/>
      <point x="369" y="-172" type="curve"/>
      <point x="379" y="-72" type="line"/>
      <point x="351" y="-77"/>
      <point x="334" y="-80"/>
      <point x="318" y="-80" type="curve" smooth="yes"/>
      <point x="287" y="-80"/>
      <point x="257" y="-73"/>
      <point x="225" y="-45" type="curve" smooth="yes"/>
      <point x="212" y="-34"/>
      <point x="200" y="-19"/>
      <point x="186" y="-1" type="curve"/>
      <point x="202" y="-3"/>
      <point x="217" y="-4"/>
      <point x="235" y="-4" type="curve" smooth="yes"/>
      <point x="407" y="-4"/>
      <point x="464" y="76"/>
      <point x="464" y="162" type="curve" smooth="yes"/>
      <point x="464" y="245"/>
      <point x="425" y="278"/>
      <point x="335" y="312" type="curve" smooth="yes"/>
      <point x="260" y="340"/>
      <point x="250" y="351"/>
      <point x="250" y="377" type="curve" smooth="yes"/>
      <point x="250" y="418"/>
      <point x="302" y="426"/>
      <point x="331" y="426" type="curve" smooth="yes"/>
      <point x="398" y="426"/>
      <point x="440" y="413"/>
      <point x="473" y="398" type="curve"/>
      <point x="524" y="506" type="line"/>
      <point x="487" y="524"/>
      <point x="418" y="540"/>
      <point x="343" y="540" type="curve" smooth="yes"/>
      <point x="190" y="540"/>
      <point x="113" y="468"/>
      <point x="113" y="360" type="curve" smooth="yes"/>
      <point x="113" y="281"/>
      <point x="154" y="251"/>
      <point x="238" y="220" type="curve" smooth="yes"/>
      <point x="306" y="193"/>
      <point x="324" y="183"/>
      <point x="324" y="155" type="curve" smooth="yes"/>
      <point x="324" y="127"/>
      <point x="298" y="102"/>
      <point x="220" y="102" type="curve" smooth="yes"/>
      <point x="147" y="102"/>
      <point x="94" y="127"/>
      <point x="64" y="143" type="curve"/>
      <point x="13" y="35" type="line"/>
      <point x="67" y="9"/>
      <point x="94" y="-52"/>
      <point x="132" y="-103" type="curve" smooth="yes"/>
      <point x="165" y="-148"/>
      <point x="206" y="-185"/>
    </contour>
  </outline>
</glyph>
<glyph name="Estroke" format="2">
  <advance width="560"/>
  <unicode hex="0246"/>
  <outline>
    <contour>
      <point x="133" y="-115" type="line"/>
      <point x="204" y="0" type="line"/>
      <point x="451" y="0" type="line"/>
      <point x="479" y="114" type="line"/>
      <point x="276" y="114" type="line"/>
      <point x="397" y="309" type="line"/>
      <point x="496" y="309" type="line"/>
      <point x="522" y="423" type="line"/>
      <point x="468" y="423" type="line"/>
      <point x="660" y="734" type="line"/>
      <point x="580" y="762" type="line"/>
      <point x="537" y="693" type="line"/>
      <point x="169" y="693" type="line"/>
      <point x="2" y="0" type="line"/>
      <point x="108" y="0" type="line"/>
      <point x="55" y="-85" type="line"/>
    </contour>
    <contour>
      <point x="167" y="114" type="line"/>
      <point x="214" y="309" type="line"/>
      <point x="300" y="309" type="line"/>
      <point x="179" y="114" type="line"/>
    </contour>
    <contour>
      <point x="241" y="423" type="line"/>
      <point x="278" y="579" type="line"/>
      <point x="466" y="579" type="line"/>
      <point x="370" y="423" type="line"/>
    </contour>
  </outline>
</glyph>
<glyph name="ezh" format="2">
  <advance width="560"/>
  <unicode hex="0292"/>
  <anchor x="217" y="0" name="bottom"/>
  <anchor x="343" y="526" name="top"/>
  <outline>
    <contour>
      <point x="150" y="-185" type="curve" smooth="yes"/>
      <point x="314" y="-185"/>
      <point x="444" y="-99"/>
      <point x="444" y="69" type="curve" smooth="yes"/>
      <point x="444" y="151"/>
      <point x="388" y="217"/>
      <point x="303" y="234" type="curve"/>
      <point x="384" y="304"/>
      <point x="477" y="399"/>
      <point x="517" y="440" type="curve"/>
      <point x="538" y="526" type="line"/>
      <point x="123" y="526" type="line"/>
      <point x="95" y="412" type="line"/>
      <point x="351" y="412" type="line"/>
      <point x="302" y="363"/>
      <point x="213" y="277"/>
      <point x="158" y="228" type="curve"/>
      <point x="141" y="153" type="line"/>
      <point x="173" y="153" type="line" smooth="yes"/>
      <point x="253" y="153"/>
      <point x="303" y="125"/>
      <point x="303" y="64" type="curve" smooth="yes"/>
      <point x="303" y="-21"/>
      <point x="239" y="-67"/>
      <point x="158" y="-67" type="curve" smooth="yes"/>
      <point x="105" y="-67"/>
      <point x="43" y="-55"/>
      <point x="4" y="-36" type="curve"/>
      <point x="-38" y="-144" type="line"/>
      <point x="2" y="-167"/>
      <point x="81" y="-185"/>
    </contour>
  </outline>
</glyph>
<glyph name="ring" format="2">
  <advance width="560"/>
  <unicode hex="02DA"/>
  <outline>
    <contour>
      <point x="377" y="585" type="curve" smooth="yes"/>
      <point x="441" y="585"/>
      <point x="496" y="624"/>
      <point x="496" y="699" type="curve" smooth="yes"/>
      <point x="496" y="774"/>
      <point x="441" y="814"/>
      <point x="377" y="814" type="curve" smooth="yes"/>
      <point x="316" y="814"/>
      <point x="260" y="774"/>
      <point x="260" y="699" type="curve" smooth="yes"/>
      <point x="260" y="624"/>
      <point x="316" y="585"/>
    </contour>
    <contour>
      <point x="377" y="652" type="curve" smooth="yes"/>
      <point x="354" y="652"/>
      <point x="332" y="669"/>
      <point x="332" y="699" type="curve" smooth="yes"/>
      <point x="332" y="730"/>
      <point x="354" y="746"/>
      <point x="377" y="746" type="curve" smooth="yes"/>
      <point x="402" y="746"/>
      <point x="423" y="730"/>
      <point x="423" y="699" type="curve" smooth="yes"/>
      <point x="423" y="669"/>
      <point x="402" y="652"/>
    </contour>
  </outline>
</glyph>
<glyph name="commaturnedabovecomb" format="2">
  <unicode hex="0312"/>
  <anchor x="356" y="526" name="_top"/>
  <anchor x="420" y="793" name="top"/>
  <outline>
    <contour>
      <point x="287" y="599" type="curve"/>
      <point x="409" y="599" type="line"/>
      <point x="418" y="676"/>
      <point x="444" y="709"/>
      <point x="493" y="728" type="curve"/>
      <point x="458" y="793" type="line"/>
      <point x="340" y="764"/>
      <point x="297" y="681"/>
    </contour>
  </outline>
</glyph>
<glyph name="Theta" format="2">
  <advance width="560"/>
  <unicode hex="0398"/>
  <outline>
    <contour>
      <point x="229" y="-15" type="curve" smooth="yes"/>
      <point x="487" y="-15"/>
      <point x="563" y="318"/>
      <point x="563" y="494" type="curve" smooth="yes"/>
      <point x="563" y="624"/>
      <point x="491" y="709"/>
      <point x="370" y="709" type="curve" smooth="yes"/>
      <point x="111" y="709"/>
      <point x="35" y="376"/>
      <point x="35" y="200" type="curve" smooth="yes"/>
      <point x="35" y="71"/>
      <point x="107" y="-15"/>
    </contour>
    <contour>
      <point x="244" y="105" type="curve" smooth="yes"/>
      <point x="186" y="105"/>
      <point x="164" y="157"/>
      <point x="164" y="215" type="curve" smooth="yes"/>
      <point x="164" y="367"/>
      <point x="227" y="589"/>
      <point x="354" y="589" type="curve" smooth="yes"/>
      <point x="414" y="589"/>
      <point x="434" y="538"/>
      <point x="434" y="479" type="curve" smooth="yes"/>
      <point x="434" y="327"/>
      <point x="371" y="105"/>
    </contour>
    <contour>
      <point x="206" y="296" type="line"/>
      <point x="370" y="296" type="line"/>
      <point x="395" y="400" type="line"/>
      <point x="231" y="400" type="line"/>
    </contour>
  </outline>
</glyph>
<glyph name="Lambda" format="2">
  <advance width="560"/>
  <unicode hex="039B"/>
  <outline>
    <contour>
      <point x="-48" y="0" type="curve"/>
      <point x="95" y="0" type="line"/>
      <point x="153" y="143"/>
      <point x="265" y="398"/>
      <point x="346" y="553" type="curve"/>
      <point x="357" y="390"/>
      <point x="354" y="161"/>
      <point x="349" y="0" type="curve"/>
      <point x="490" y="0" type="line"/>
      <point x="498" y="133"/>
      <point x="477" y="520"/>
      <point x="453" y="693" type="curve"/>
      <point x="306" y="693" type="line"/>
      <point x="161" y="456"/>
      <point x="29" y="178"/>
    </contour>
  </outline>
</glyph>
<glyph name="Sigma" format="2">
  <advance width="560"/>
  <unicode hex="03A3"/>
  <outline>
    <contour>
      <point x="-21" y="0" type="line"/>
      <point x="463" y="0" type="line"/>
      <point x="491" y="114" type="line"/>
      <point x="179" y="114" type="line"/>
      <point x="246" y="172"/>
      <point x="380" y="293"/>
      <point x="430" y="338" type="curve"/>
      <point x="393" y="399"/>
      <point x="330" y="502"/>
      <point x="290" y="579" type="curve"/>
      <point x="599" y="579" type="line"/>
      <point x="627" y="693" type="line"/>
      <point x="154" y="693" type="line"/>
      <point x="134" y="609" type="line"/>
      <point x="172" y="547"/>
      <point x="239" y="426"/>
      <point x="283" y="354" type="curve"/>
      <point x="193" y="274"/>
      <point x="81" y="170"/>
      <point x="3" y="99" type="curve"/>
    </contour>
  </outline>
</glyph>
<glyph name="gamma" format="2">
  <advance width="560"/>
  <unicode hex="03B3"/>
  <outline>
    <contour>
      <point x="101" y="-185" type="curve"/>
      <point x="235" y="-185" type="line"/>
      <point x="242" y="-138"/>
      <point x="246" y="-80"/>
      <point x="250" y="-10" type="curve"/>
      <point x="425" y="149"/>
      <point x="511" y="301"/>
      <point x="577" y="526" type="curve"/>
      <point x="433" y="526" type="line"/>
      <point x="395" y="391"/>
      <point x="344" y="261"/>
      <point x="248" y="148" type="curve"/>
      <point x="248" y="269"/>
      <point x="242" y="430"/>
      <point x="227" y="526" type="curve"/>
      <point x="85" y="526" type="line"/>
      <point x="104" y="380"/>
      <point x="120" y="224"/>
      <point x="120" y="56" type="curve" smooth="yes"/>
      <point x="120" y="-22"/>
      <point x="113" y="-100"/>
    </contour>
  </outline>
</glyph>
<glyph name="zeta" format="2">
  <advance width="560"/>
  <unicode hex="03B6"/>
  <outline>
    <contour>
      <point x="384" y="-190" type="line"/>
      <point x="455" y="-127"/>
      <point x="483" y="-71"/>
      <point x="483" y="-18" type="curve" smooth="yes"/>
      <point x="483" y="54"/>
      <point x="430" y="82"/>
      <point x="346" y="108" type="curve" smooth="yes"/>
      <point x="281" y="127"/>
      <point x="212" y="148"/>
      <point x="212" y="220" type="curve" smooth="yes"/>
      <point x="212" y="343"/>
      <point x="395" y="514"/>
      <point x="585" y="652" type="curve"/>
      <point x="614" y="769" type="line"/>
      <point x="209" y="769" type="line"/>
      <point x="183" y="654" type="line"/>
      <point x="428" y="654" type="line"/>
      <point x="167" y="460"/>
      <point x="67" y="319"/>
      <point x="67" y="189" type="curve" smooth="yes"/>
      <point x="67" y="64"/>
      <point x="158" y="32"/>
      <point x="256" y="4" type="curve" smooth="yes"/>
      <point x="305" y="-10"/>
      <point x="342" y="-21"/>
      <point x="342" y="-52" type="curve" smooth="yes"/>
      <point x="342" y="-80"/>
      <point x="315" y="-108"/>
      <point x="286" y="-139" type="curve"/>
    </contour>
  </outline>
</glyph>
<glyph name="eta" format="2">
  <advance width="560"/>
  <unicode hex="03B7"/>
  <anchor x="343" y="526" name="top"/>
  <outline>
    <contour>
      <point x="249" y="-185" type="line"/>
      <point x="387" y="-185" type="line"/>
      <point x="503" y="297" type="line" smooth="yes"/>
      <point x="511" y="329"/>
      <point x="515" y="360"/>
      <point x="515" y="385" type="curve" smooth="yes"/>
      <point x="515" y="482"/>
      <point x="453" y="538"/>
      <point x="328" y="538" type="curve" smooth="yes"/>
      <point x="244" y="538"/>
      <point x="182" y="523"/>
      <point x="129" y="510" type="curve"/>
      <point x="7" y="0" type="line"/>
      <point x="145" y="0" type="line"/>
      <point x="244" y="413" type="line"/>
      <point x="266" y="417"/>
      <point x="288" y="419"/>
      <point x="309" y="419" type="curve" smooth="yes"/>
      <point x="358" y="419"/>
      <point x="374" y="389"/>
      <point x="374" y="354" type="curve" smooth="yes"/>
      <point x="374" y="329"/>
      <point x="366" y="302"/>
      <point x="361" y="279" type="curve" smooth="yes"/>
    </contour>
  </outline>
</glyph>
<glyph name="xi" format="2">
  <advance width="560"/>
  <unicode hex="03BE"/>
  <outline>
    <contour>
      <point x="365" y="-190" type="line"/>
      <point x="436" y="-127"/>
      <point x="464" y="-71"/>
      <point x="464" y="-22" type="curve" smooth="yes"/>
      <point x="464" y="50"/>
      <point x="410" y="84"/>
      <point x="328" y="101" type="curve" smooth="yes"/>
      <point x="256" y="116"/>
      <point x="191" y="141"/>
      <point x="191" y="213" type="curve" smooth="yes"/>
      <point x="191" y="288"/>
      <point x="260" y="352"/>
      <point x="405" y="352" type="curve" smooth="yes"/>
      <point x="482" y="352" type="line"/>
      <point x="510" y="467" type="line"/>
      <point x="440" y="467" type="line" smooth="yes"/>
      <point x="371" y="467"/>
      <point x="315" y="492"/>
      <point x="315" y="550" type="curve" smooth="yes"/>
      <point x="315" y="622"/>
      <point x="374" y="661"/>
      <point x="453" y="661" type="curve" smooth="yes"/>
      <point x="486" y="661"/>
      <point x="533" y="655"/>
      <point x="568" y="637" type="curve"/>
      <point x="615" y="748" type="line"/>
      <point x="566" y="766"/>
      <point x="526" y="776"/>
      <point x="449" y="776" type="curve" smooth="yes"/>
      <point x="262" y="776"/>
      <point x="179" y="665"/>
      <point x="179" y="559" type="curve" smooth="yes"/>
      <point x="179" y="508"/>
      <point x="200" y="457"/>
      <point x="262" y="424" type="curve"/>
      <point x="117" y="386"/>
      <point x="51" y="282"/>
      <point x="51" y="189" type="curve" smooth="yes"/>
      <point x="51" y="64"/>
      <point x="133" y="26"/>
      <point x="237" y="2" type="curve" smooth="yes"/>
      <point x="286" y="-9"/>
      <point x="323" y="-21"/>
      <point x="323" y="-52" type="curve" smooth="yes"/>
      <point x="323" y="-80"/>
      <point x="296" y="-108"/>
      <point x="267" y="-139" type="curve"/>
    </contour>
  </outline>
</glyph>
<glyph name="rho" format="2">
  <advance width="560"/>
  <unicode hex="03C1"/>
  <outline>
    <contour>
      <point x="-49" y="-185" type="line"/>
      <point x="89" y="-185" type="line"/>
      <point x="135" y="4" type="line"/>
      <point x="153" y="-3"/>
      <point x="184" y="-12"/>
      <point x="218" y="-12" type="curve" smooth="yes"/>
      <point x="418" y="-12"/>
      <point x="520" y="161"/>
      <point x="520" y="347" type="curve" smooth="yes"/>
      <point x="520" y="464"/>
      <point x="458" y="538"/>
      <point x="331" y="538" type="curve" smooth="yes"/>
      <point x="182" y="538"/>
      <point x="104" y="448"/>
      <point x="68" y="300" type="curve" smooth="yes"/>
    </contour>
    <contour>
      <point x="212" y="106" type="curve" smooth="yes"/>
      <point x="191" y="106"/>
      <point x="169" y="113"/>
      <point x="162" y="119" type="curve"/>
      <point x="206" y="299" type="line" smooth="yes"/>
      <point x="228" y="396"/>
      <point x="272" y="421"/>
      <point x="322" y="421" type="curve" smooth="yes"/>
      <point x="365" y="421"/>
      <point x="384" y="388"/>
      <point x="384" y="337" type="curve" smooth="yes"/>
      <point x="384" y="214"/>
      <point x="335" y="106"/>
    </contour>
  </outline>
</glyph>
<glyph name="tau" format="2">
  <advance width="560"/>
  <unicode hex="03C4"/>
  <outline>
    <contour>
      <point x="309" y="-12" type="curve" smooth="yes"/>
      <point x="365" y="-12"/>
      <point x="431" y="1"/>
      <point x="477" y="21" type="curve"/>
      <point x="469" y="134" type="line"/>
      <point x="428" y="118"/>
      <point x="387" y="108"/>
      <point x="346" y="108" type="curve" smooth="yes"/>
      <point x="307" y="108"/>
      <point x="273" y="119"/>
      <point x="273" y="164" type="curve" smooth="yes"/>
      <point x="273" y="176"/>
      <point x="275" y="190"/>
      <point x="279" y="207" type="curve" smooth="yes"/>
      <point x="328" y="412" type="line"/>
      <point x="535" y="412" type="line"/>
      <point x="563" y="526" type="line"/>
      <point x="94" y="526" type="line"/>
      <point x="66" y="412" type="line"/>
      <point x="190" y="412" type="line"/>
      <point x="143" y="215" type="line" smooth="yes"/>
      <point x="136" y="187"/>
      <point x="133" y="162"/>
      <point x="133" y="139" type="curve" smooth="yes"/>
      <point x="133" y="41"/>
      <point x="191" y="-12"/>
    </contour>
  </outline>
</glyph>
<glyph name="Nje-cy" format="2">
  <advance width="560"/>
  <unicode hex="040A"/>
  <outline>
    <contour>
      <point x="307" y="-7" type="curve" smooth="yes"/>
      <point x="468" y="-7"/>
      <point x="543" y="146"/>
      <point x="543" y="289" type="curve" smooth="yes"/>
      <point x="543" y="372"/>
      <point x="488" y="438"/>
      <point x="407" y="438" type="curve" smooth="yes"/>
      <point x="400" y="438"/>
      <point x="390" y="438"/>
      <point x="384" y="437" type="curve"/>
      <point x="444" y="693" type="line"/>
      <point x="340" y="693" type="line"/>
      <point x="277" y="435" type="line"/>
      <point x="182" y="435" type="line"/>
      <point x="244" y="693" type="line"/>
      <point x="141" y="693" type="line"/>
      <point x="-27" y="0" type="line"/>
      <point x="77" y="0" type="line"/>
      <point x="160" y="340" type="line"/>
      <point x="255" y="340" type="line"/>
      <point x="176" y="10" type="line"/>
      <point x="222" y="-3"/>
      <point x="262" y="-7"/>
    </contour>
    <contour>
      <point x="318" y="83" type="curve" smooth="yes"/>
      <point x="312" y="83"/>
      <point x="304" y="84"/>
      <point x="298" y="85" type="curve"/>
      <point x="361" y="347" type="line"/>
      <point x="366" y="348"/>
      <point x="371" y="348"/>
      <point x="375" y="348" type="curve" smooth="yes"/>
      <point x="412" y="348"/>
      <point x="440" y="332"/>
      <point x="440" y="274" type="curve" smooth="yes"/>
      <point x="440" y="197"/>
      <point x="399" y="83"/>
    </contour>
  </outline>
</glyph>
<glyph name="Be-cy" format="2">
  <advance width="560"/>
  <unicode hex="0411"/>
  <outline>
    <contour>
      <point x="174" y="-9" type="curve" smooth="yes"/>
      <point x="366" y="-9"/>
      <point x="512" y="75"/>
      <point x="512" y="261" type="curve"/>
      <point x="512" y="373"/>
      <point x="441" y="447"/>
      <point x="293" y="447" type="curve"/>
      <point x="236" y="447" type="line"/>
      <point x="268" y="579" type="line"/>
      <point x="525" y="579" type="line"/>
      <point x="552" y="693" type="line"/>
      <point x="158" y="693" type="line"/>
      <point x="-5" y="12" type="line"/>
      <point x="59" y="-4"/>
      <point x="120" y="-9"/>
    </contour>
    <contour>
      <point x="198" y="110" type="curve" smooth="yes"/>
      <point x="183" y="110"/>
      <point x="170" y="111"/>
      <point x="156" y="113" type="curve"/>
      <point x="207" y="329" type="line"/>
      <point x="260" y="329" type="line" smooth="yes"/>
      <point x="347" y="329"/>
      <point x="374" y="297"/>
      <point x="374" y="246" type="curve" smooth="yes"/>
      <point x="374" y="159"/>
      <point x="309" y="110"/>
    </contour>
  </outline>
</glyph>
<glyph name="Zhe-cy" format="2">
  <advance width="560"/>
  <unicode hex="0416"/>
  <anchor x="477" y="0" name="bottomright"/>
  <anchor x="381" y="685" name="top"/>
  <outline>
    <contour>
      <point x="-54" y="0" type="curve"/>
      <point x="60" y="0" type="line"/>
      <point x="108" y="125"/>
      <point x="188" y="254"/>
      <point x="247" y="338" type="curve"/>
      <point x="165" y="0" type="line"/>
      <point x="273" y="0" type="line"/>
      <point x="353" y="334" type="line"/>
      <point x="374" y="258"/>
      <point x="384" y="125"/>
      <point x="385" y="0" type="curve"/>
      <point x="500" y="0" type="line"/>
      <point x="496" y="139"/>
      <point x="472" y="280"/>
      <point x="436" y="357" type="curve"/>
      <point x="524" y="465"/>
      <point x="600" y="585"/>
      <point x="660" y="693" type="curve"/>
      <point x="545" y="693" type="line"/>
      <point x="491" y="580"/>
      <point x="435" y="495"/>
      <point x="371" y="410" type="curve"/>
      <point x="440" y="693" type="line"/>
      <point x="332" y="693" type="line"/>
      <point x="265" y="414" type="line"/>
      <point x="247" y="488"/>
      <point x="235" y="580"/>
      <point x="231" y="693" type="curve"/>
      <point x="119" y="693" type="line"/>
      <point x="129" y="594"/>
      <point x="148" y="488"/>
      <point x="180" y="376" type="curve"/>
      <point x="98" y="284"/>
      <point x="8" y="143"/>
    </contour>
  </outline>
</glyph>
<glyph name="Ef-cy" format="2">
  <advance width="560"/>
  <unicode hex="0424"/>
  <outline>
    <contour>
      <point x="160" y="0" type="line"/>
      <point x="270" y="0" type="line"/>
      <point x="290" y="78" type="line"/>
      <point x="478" y="90"/>
      <point x="571" y="291"/>
      <point x="571" y="463" type="curve" smooth="yes"/>
      <point x="571" y="568"/>
      <point x="533" y="637"/>
      <point x="430" y="665" type="curve"/>
      <point x="447" y="738" type="line"/>
      <point x="337" y="738" type="line"/>
      <point x="319" y="665" type="line"/>
      <point x="130" y="653"/>
      <point x="38" y="452"/>
      <point x="38" y="281" type="curve" smooth="yes"/>
      <point x="38" y="175"/>
      <point x="76" y="106"/>
      <point x="178" y="78" type="curve"/>
    </contour>
    <contour>
      <point x="202" y="177" type="line"/>
      <point x="155" y="192"/>
      <point x="150" y="237"/>
      <point x="150" y="289" type="curve" smooth="yes"/>
      <point x="150" y="404"/>
      <point x="208" y="547"/>
      <point x="295" y="566" type="curve"/>
    </contour>
    <contour>
      <point x="313" y="177" type="curve"/>
      <point x="406" y="566" type="line"/>
      <point x="453" y="552"/>
      <point x="459" y="506"/>
      <point x="459" y="454" type="curve" smooth="yes"/>
      <point x="459" y="339"/>
      <point x="400" y="197"/>
    </contour>
  </outline>
</glyph>
<glyph name="Shcha-cy" format="2">
  <advance width="560"/>
  <unicode hex="0429"/>
  <outline>
    <contour>
      <point x="335" y="-185" type="line"/>
      <point x="443" y="-185" type="line"/>
      <point x="515" y="111" type="line"/>
      <point x="474" y="111" type="line"/>
      <point x="614" y="693" type="line"/>
      <point x="506" y="693" type="line"/>
      <point x="366" y="111" type="line"/>
      <point x="293" y="111" type="line"/>
      <point x="370" y="430" type="line"/>
      <point x="265" y="430" type="line"/>
      <point x="188" y="111" type="line"/>
      <point x="115" y="111" type="line"/>
      <point x="255" y="693" type="line"/>
      <point x="147" y="693" type="line"/>
      <point x="-18" y="0" type="line"/>
      <point x="380" y="0" type="line"/>
    </contour>
  </outline>
</glyph>
<glyph name="Softsign-cy" format="2">
  <advance width="560"/>
  <unicode hex="042C"/>
  <outline>
    <contour>
      <point x="178" y="-9" type="curve" smooth="yes"/>
      <point x="370" y="-9"/>
      <point x="516" y="76"/>
      <point x="516" y="267" type="curve" smooth="yes"/>
      <point x="516" y="379"/>
      <point x="449" y="454"/>
      <point x="300" y="454" type="curve" smooth="yes"/>
      <point x="281" y="454"/>
      <point x="262" y="451"/>
      <point x="242" y="448" type="curve"/>
      <point x="301" y="693" type="line"/>
      <point x="163" y="693" type="line"/>
      <point x="-1" y="12" type="line"/>
      <point x="63" y="-4"/>
      <point x="124" y="-9"/>
    </contour>
    <contour>
      <point x="202" y="110" type="curve" smooth="yes"/>
      <point x="186" y="110"/>
      <point x="174" y="111"/>
      <point x="161" y="112" type="curve"/>
      <point x="216" y="336" type="line"/>
      <point x="230" y="338"/>
      <point x="253" y="339"/>
      <point x="266" y="339" type="curve" smooth="yes"/>
      <point x="353" y="339"/>
      <point x="378" y="302"/>
      <point x="378" y="251" type="curve" smooth="yes"/>
      <point x="378" y="161"/>
      <point x="313" y="110"/>
    </contour>
  </outline>
</glyph>
<glyph name="be-cy" format="2">
  <advance width="560"/>
  <unicode hex="0431"/>
  <outline>
    <contour>
      <point x="223" y="-15" type="curve" smooth="yes"/>
      <point x="394" y="-15"/>
      <point x="522" y="110"/>
      <point x="522" y="325" type="curve" smooth="yes"/>
      <point x="522" y="461"/>
      <point x="435" y="512"/>
      <point x="344" y="512" type="curve" smooth="yes"/>
      <point x="310" y="512"/>
      <point x="272" y="504"/>
      <point x="229" y="485" type="curve"/>
      <point x="279" y="606"/>
      <point x="357" y="631"/>
      <point x="442" y="643" type="curve" smooth="yes"/>
      <point x="505" y="653"/>
      <point x="561" y="659"/>
      <point x="583" y="666" type="curve"/>
      <point x="587" y="781" type="line"/>
      <point x="556" y="773"/>
      <point x="516" y="771"/>
      <point x="441" y="759" type="curve" smooth="yes"/>
      <point x="251" y="731"/>
      <point x="152" y="640"/>
      <point x="101" y="497" type="curve" smooth="yes"/>
      <point x="68" y="407"/>
      <point x="32" y="305"/>
      <point x="32" y="202" type="curve" smooth="yes"/>
      <point x="32" y="48"/>
      <point x="111" y="-15"/>
    </contour>
    <contour>
      <point x="245" y="104" type="curve" smooth="yes"/>
      <point x="194" y="104"/>
      <point x="167" y="133"/>
      <point x="167" y="218" type="curve" smooth="yes"/>
      <point x="167" y="260"/>
      <point x="179" y="312"/>
      <point x="200" y="368" type="curve"/>
      <point x="227" y="384"/>
      <point x="269" y="399"/>
      <point x="306" y="399" type="curve" smooth="yes"/>
      <point x="352" y="399"/>
      <point x="384" y="374"/>
      <point x="384" y="302" type="curve" smooth="yes"/>
      <point x="384" y="190"/>
      <point x="315" y="104"/>
    </contour>
  </outline>
</glyph>
<glyph name="ve-cy" format="2">
  <advance width="560"/>
  <unicode hex="0432"/>
  <outline>
    <contour>
      <point x="210" y="-11" type="curve" smooth="yes"/>
      <point x="440" y="-11"/>
      <point x="492" y="82"/>
      <point x="492" y="161" type="curve" smooth="yes"/>
      <point x="492" y="208"/>
      <point x="466" y="251"/>
      <point x="414" y="271" type="curve"/>
      <point x="475" y="295"/>
      <point x="518" y="346"/>
      <point x="518" y="408" type="curve" smooth="yes"/>
      <point x="518" y="486"/>
      <point x="449" y="540"/>
      <point x="337" y="540" type="curve" smooth="yes"/>
      <point x="218" y="540"/>
      <point x="124" y="501"/>
      <point x="80" y="320" type="curve" smooth="yes"/>
      <point x="7" y="17" type="line"/>
      <point x="85" y="-2"/>
      <point x="147" y="-11"/>
    </contour>
    <contour>
      <point x="236" y="96" type="curve" smooth="yes"/>
      <point x="216" y="96"/>
      <point x="183" y="99"/>
      <point x="160" y="103" type="curve"/>
      <point x="189" y="224" type="line"/>
      <point x="263" y="224" type="line" smooth="yes"/>
      <point x="325" y="224"/>
      <point x="360" y="212"/>
      <point x="360" y="175" type="curve" smooth="yes"/>
      <point x="360" y="113"/>
      <point x="295" y="96"/>
    </contour>
    <contour>
      <point x="211" y="316" type="line"/>
      <point x="216" y="339" type="line" smooth="yes"/>
      <point x="228" y="396"/>
      <point x="259" y="433"/>
      <point x="328" y="433" type="curve" smooth="yes"/>
      <point x="368" y="433"/>
      <point x="389" y="416"/>
      <point x="389" y="386" type="curve" smooth="yes"/>
      <point x="389" y="351"/>
      <point x="359" y="316"/>
      <point x="276" y="316" type="curve" smooth="yes"/>
    </contour>
  </outline>
</glyph>
<glyph name="de-cy" format="2">
  <advance width="560"/>
  <unicode hex="0434"/>
  <outline>
    <contour>
      <point x="229" y="-15" type="curve" smooth="yes"/>
      <point x="406" y="-15"/>
      <point x="534" y="123"/>
      <point x="534" y="458" type="curve" smooth="yes"/>
      <point x="534" y="696"/>
      <point x="419" y="776"/>
      <point x="263" y="776" type="curve" smooth="yes"/>
      <point x="219" y="776"/>
      <point x="184" y="771"/>
      <point x="139" y="756" type="curve"/>
      <point x="148" y="638" type="line"/>
      <point x="184" y="653"/>
      <point x="212" y="659"/>
      <point x="247" y="659" type="curve" smooth="yes"/>
      <point x="333" y="659"/>
      <point x="397" y="631"/>
      <point x="402" y="501" type="curve"/>
      <point x="380" y="512"/>
      <point x="348" y="517"/>
      <point x="312" y="517" type="curve" smooth="yes"/>
      <point x="157" y="517"/>
      <point x="34" y="383"/>
      <point x="34" y="194" type="curve" smooth="yes"/>
      <point x="34" y="66"/>
      <point x="102" y="-15"/>
    </contour>
    <contour>
      <point x="245" y="105" type="curve" smooth="yes"/>
      <point x="190" y="105"/>
      <point x="171" y="142"/>
      <point x="171" y="194" type="curve" smooth="yes"/>
      <point x="171" y="309"/>
      <point x="225" y="407"/>
      <point x="326" y="407" type="curve" smooth="yes"/>
      <point x="350" y="407"/>
      <point x="369" y="400"/>
      <point x="397" y="388" type="curve"/>
      <point x="385" y="177"/>
      <point x="318" y="105"/>
    </contour>
  </outline>
</glyph>
<glyph name="el-cy" format="2">
  <advance width="560"/>
  <unicode hex="043B"/>
  <outline>
    <contour>
      <point x="-22" y="-13" type="line"/>
      <point x="55" y="-10"/>
      <point x="111" y="24"/>
      <point x="154" y="73" type="curve" smooth="yes"/>
      <point x="223" y="152"/>
      <point x="258" y="278"/>
      <point x="291" y="394" type="curve"/>
      <point x="295" y="412" type="line"/>
      <point x="393" y="412" type="line"/>
      <point x="295" y="0" type="line"/>
      <point x="430" y="0" type="line"/>
      <point x="557" y="526" type="line"/>
      <point x="199" y="526" type="line"/>
      <point x="184" y="466" type="line" smooth="yes"/>
      <point x="162" y="373"/>
      <point x="130" y="246"/>
      <point x="79" y="176" type="curve" smooth="yes"/>
      <point x="55" y="144"/>
      <point x="35" y="115"/>
      <point x="-29" y="104" type="curve"/>
    </contour>
  </outline>
</glyph>
<glyph name="sha-cy" format="2">
  <advance width="560"/>
  <unicode hex="0448"/>
  <outline>
    <contour>
      <point x="117" y="-13" type="curve" smooth="yes"/>
      <point x="150" y="-13"/>
      <point x="188" y="-2"/>
      <point x="214" y="22" type="curve"/>
      <point x="236" y="-2"/>
      <point x="263" y="-12"/>
      <point x="296" y="-12" type="curve" smooth="yes"/>
      <point x="332" y="-12"/>
      <point x="372" y="10"/>
      <point x="390" y="32" type="curve"/>
      <point x="394" y="18"/>
      <point x="402" y="4"/>
      <point x="409" y="-6" type="curve"/>
      <point x="505" y="9" type="line"/>
      <point x="480" y="77"/>
      <point x="474" y="121"/>
      <point x="494" y="192" type="curve"/>
      <point x="574" y="526" type="line"/>
      <point x="466" y="526" type="line"/>
      <point x="388" y="200" type="line" smooth="yes"/>
      <point x="384" y="180"/>
      <point x="379" y="159"/>
      <point x="374" y="114" type="curve"/>
      <point x="365" y="102"/>
      <point x="351" y="88"/>
      <point x="329" y="88" type="curve" smooth="yes"/>
      <point x="281" y="88"/>
      <point x="297" y="157"/>
      <point x="307" y="195" type="curve" smooth="yes"/>
      <point x="356" y="400" type="line"/>
      <point x="253" y="400" type="line"/>
      <point x="204" y="198" type="line" smooth="yes"/>
      <point x="197" y="165"/>
      <point x="194" y="134"/>
      <point x="194" y="106" type="curve"/>
      <point x="182" y="97"/>
      <point x="170" y="88"/>
      <point x="147" y="88" type="curve" smooth="yes"/>
      <point x="101" y="88"/>
      <point x="114" y="156"/>
      <point x="125" y="197" type="curve" smooth="yes"/>
      <point x="204" y="526" type="line"/>
      <point x="96" y="526" type="line"/>
      <point x="18" y="202" type="line" smooth="yes"/>
      <point x="-7" y="108"/>
      <point x="-3" y="-13"/>
    </contour>
  </outline>
</glyph>
<glyph name="shcha-cy" format="2">
  <advance width="560"/>
  <unicode hex="0449"/>
  <outline>
    <contour>
      <point x="363" y="-144" type="line"/>
      <point x="462" y="-144" type="line"/>
      <point x="515" y="75" type="line"/>
      <point x="458" y="90"/>
      <point x="474" y="175"/>
      <point x="486" y="218" type="curve" smooth="yes"/>
      <point x="559" y="526" type="line"/>
      <point x="453" y="526" type="line"/>
      <point x="375" y="200" type="line" smooth="yes"/>
      <point x="370" y="180"/>
      <point x="366" y="159"/>
      <point x="362" y="114" type="curve"/>
      <point x="353" y="102"/>
      <point x="338" y="88"/>
      <point x="318" y="88" type="curve" smooth="yes"/>
      <point x="269" y="88"/>
      <point x="288" y="159"/>
      <point x="297" y="195" type="curve" smooth="yes"/>
      <point x="346" y="400" type="line"/>
      <point x="245" y="400" type="line"/>
      <point x="197" y="198" type="line" smooth="yes"/>
      <point x="188" y="165"/>
      <point x="186" y="134"/>
      <point x="186" y="106" type="curve"/>
      <point x="174" y="97"/>
      <point x="163" y="88"/>
      <point x="141" y="88" type="curve" smooth="yes"/>
      <point x="95" y="88"/>
      <point x="107" y="157"/>
      <point x="118" y="197" type="curve" smooth="yes"/>
      <point x="197" y="526" type="line"/>
      <point x="91" y="526" type="line"/>
      <point x="13" y="202" type="line" smooth="yes"/>
      <point x="-10" y="106"/>
      <point x="-7" y="-13"/>
      <point x="110" y="-13" type="curve" smooth="yes"/>
      <point x="141" y="-13"/>
      <point x="181" y="-2"/>
      <point x="206" y="22" type="curve"/>
      <point x="228" y="-2"/>
      <point x="254" y="-12"/>
      <point x="286" y="-12" type="curve" smooth="yes"/>
      <point x="321" y="-12"/>
      <point x="361" y="8"/>
      <point x="387" y="43" type="curve"/>
      <point x="390" y="30"/>
      <point x="397" y="20"/>
      <point x="402" y="16" type="curve"/>
    </contour>
  </outline>
</glyph>
<glyph name="softsign-cy" format="2">
  <advance width="560"/>
  <unicode hex="044C"/>
  <outline>
    <contour>
      <point x="216" y="-11" type="curve" smooth="yes"/>
      <point x="410" y="-11"/>
      <point x="507" y="77"/>
      <point x="507" y="189" type="curve" smooth="yes"/>
      <point x="507" y="288"/>
      <point x="440" y="347"/>
      <point x="319" y="347" type="curve" smooth="yes"/>
      <point x="296" y="347"/>
      <point x="248" y="345"/>
      <point x="225" y="337" type="curve"/>
      <point x="270" y="526" type="line"/>
      <point x="132" y="526" type="line"/>
      <point x="8" y="15" type="line"/>
      <point x="83" y="-3"/>
      <point x="151" y="-11"/>
    </contour>
    <contour>
      <point x="239" y="96" type="curve" smooth="yes"/>
      <point x="218" y="96"/>
      <point x="192" y="97"/>
      <point x="169" y="101" type="curve"/>
      <point x="199" y="230" type="line"/>
      <point x="217" y="236"/>
      <point x="247" y="240"/>
      <point x="272" y="240" type="curve" smooth="yes"/>
      <point x="337" y="240"/>
      <point x="371" y="220"/>
      <point x="371" y="178" type="curve" smooth="yes"/>
      <point x="371" y="127"/>
      <point x="323" y="96"/>
    </contour>
  </outline>
</glyph>
<glyph name="ereversed-cy" format="2">
  <advance width="560"/>
  <unicode hex="044D"/>
  <anchor x="343" y="526" name="top"/>
  <outline>
    <contour>
      <point x="178" y="-12" type="curve" smooth="yes"/>
      <point x="394" y="-12"/>
      <point x="511" y="113"/>
      <point x="511" y="318" type="curve" smooth="yes"/>
      <point x="511" y="438"/>
      <point x="447" y="539"/>
      <point x="275" y="539" type="curve" smooth="yes"/>
      <point x="199" y="539"/>
      <point x="150" y="524"/>
      <point x="113" y="505" type="curve"/>
      <point x="123" y="394" type="line"/>
      <point x="150" y="405"/>
      <point x="184" y="420"/>
      <point x="244" y="420" type="curve" smooth="yes"/>
      <point x="337" y="420"/>
      <point x="370" y="382"/>
      <point x="374" y="318" type="curve"/>
      <point x="171" y="318" type="line"/>
      <point x="146" y="214" type="line"/>
      <point x="361" y="214" type="line"/>
      <point x="337" y="144"/>
      <point x="278" y="108"/>
      <point x="179" y="108" type="curve" smooth="yes"/>
      <point x="125" y="108"/>
      <point x="80" y="121"/>
      <point x="57" y="131" type="curve"/>
      <point x="14" y="21" type="line"/>
      <point x="48" y="1"/>
      <point x="117" y="-12"/>
    </contour>
  </outline>
</glyph>
<glyph name="yu-cy" format="2">
  <advance width="560"/>
  <unicode hex="044E"/>
  <anchor x="343" y="526" name="top"/>
  <outline>
    <contour>
      <point x="314" y="-12" type="curve" smooth="yes"/>
      <point x="494" y="-12"/>
      <point x="552" y="249"/>
      <point x="552" y="388" type="curve" smooth="yes"/>
      <point x="552" y="468"/>
      <point x="522" y="540"/>
      <point x="430" y="540" type="curve" smooth="yes"/>
      <point x="314" y="540"/>
      <point x="249" y="432"/>
      <point x="217" y="318" type="curve"/>
      <point x="150" y="318" type="line"/>
      <point x="201" y="526" type="line"/>
      <point x="98" y="526" type="line"/>
      <point x="-27" y="0" type="line"/>
      <point x="74" y="0" type="line"/>
      <point x="128" y="222" type="line"/>
      <point x="197" y="222" type="line"/>
      <point x="193" y="192"/>
      <point x="192" y="165"/>
      <point x="192" y="141" type="curve" smooth="yes"/>
      <point x="192" y="60"/>
      <point x="222" y="-12"/>
    </contour>
    <contour>
      <point x="332" y="92" type="curve" smooth="yes"/>
      <point x="309" y="92"/>
      <point x="294" y="109"/>
      <point x="294" y="166" type="curve" smooth="yes"/>
      <point x="294" y="245"/>
      <point x="326" y="436"/>
      <point x="412" y="436" type="curve" smooth="yes"/>
      <point x="434" y="436"/>
      <point x="449" y="419"/>
      <point x="449" y="362" type="curve" smooth="yes"/>
      <point x="449" y="283"/>
      <point x="417" y="92"/>
    </contour>
  </outline>
</glyph>
<glyph name="lje-cy" format="2">
  <advance width="560"/>
  <unicode hex="0459"/>
  <outline>
    <contour>
      <point x="-43" y="-15" type="line"/>
      <point x="-22" y="-13"/>
      <point x="1" y="-10"/>
      <point x="18" y="0" type="curve" smooth="yes"/>
      <point x="111" y="49"/>
      <point x="153" y="209"/>
      <point x="186" y="332" type="curve" smooth="yes"/>
      <point x="214" y="435" type="line"/>
      <point x="283" y="435" type="line"/>
      <point x="180" y="9" type="line"/>
      <point x="217" y="-4"/>
      <point x="277" y="-9"/>
      <point x="315" y="-9" type="curve" smooth="yes"/>
      <point x="449" y="-9"/>
      <point x="526" y="73"/>
      <point x="526" y="209" type="curve" smooth="yes"/>
      <point x="526" y="277"/>
      <point x="477" y="336"/>
      <point x="391" y="336" type="curve" smooth="yes"/>
      <point x="379" y="336"/>
      <point x="367" y="336"/>
      <point x="359" y="335" type="curve"/>
      <point x="405" y="526" type="line"/>
      <point x="138" y="526" type="line"/>
      <point x="95" y="348" type="line" smooth="yes"/>
      <point x="71" y="248"/>
      <point x="45" y="150"/>
      <point x="-4" y="108" type="curve" smooth="yes"/>
      <point x="-15" y="97"/>
      <point x="-29" y="92"/>
      <point x="-43" y="92" type="curve"/>
    </contour>
    <contour>
      <point x="328" y="80" type="curve" smooth="yes"/>
      <point x="319" y="80"/>
      <point x="309" y="80"/>
      <point x="300" y="83" type="curve"/>
      <point x="338" y="248" type="line"/>
      <point x="346" y="248"/>
      <point x="350" y="248"/>
      <point x="359" y="248" type="curve" smooth="yes"/>
      <point x="405" y="248"/>
      <point x="425" y="222"/>
      <point x="425" y="187" type="curve" smooth="yes"/>
      <point x="425" y="127"/>
      <point x="389" y="80"/>
    </contour>
  </outline>
</glyph>
<glyph name="yat-cy" format="2">
  <advance width="560"/>
  <unicode hex="0463"/>
  <outline>
    <contour>
      <point x="307" y="-9" type="curve" smooth="yes"/>
      <point x="440" y="-9"/>
      <point x="518" y="71"/>
      <point x="518" y="207" type="curve" smooth="yes"/>
      <point x="518" y="276"/>
      <point x="468" y="332"/>
      <point x="382" y="332" type="curve" smooth="yes"/>
      <point x="370" y="332"/>
      <point x="356" y="332"/>
      <point x="348" y="332" type="curve"/>
      <point x="352" y="353"/>
      <point x="356" y="375"/>
      <point x="356" y="398" type="curve" smooth="yes"/>
      <point x="356" y="469"/>
      <point x="326" y="531"/>
      <point x="236" y="531" type="curve" smooth="yes"/>
      <point x="186" y="531"/>
      <point x="124" y="520"/>
      <point x="81" y="504" type="curve"/>
      <point x="-40" y="0" type="line"/>
      <point x="68" y="0" type="line"/>
      <point x="171" y="426" type="line"/>
      <point x="184" y="432"/>
      <point x="206" y="435"/>
      <point x="216" y="435" type="curve" smooth="yes"/>
      <point x="236" y="435"/>
      <point x="247" y="420"/>
      <point x="247" y="386" type="curve" smooth="yes"/>
      <point x="247" y="358"/>
      <point x="238" y="323"/>
      <point x="226" y="272" type="curve" smooth="yes"/>
      <point x="163" y="9" type="line"/>
      <point x="200" y="-4"/>
      <point x="269" y="-9"/>
    </contour>
    <contour>
      <point x="320" y="80" type="curve" smooth="yes"/>
      <point x="311" y="80"/>
      <point x="300" y="80"/>
      <point x="290" y="83" type="curve"/>
      <point x="328" y="243" type="line"/>
      <point x="335" y="244"/>
      <point x="341" y="244"/>
      <point x="350" y="244" type="curve" smooth="yes"/>
      <point x="396" y="244"/>
      <point x="417" y="220"/>
      <point x="417" y="185" type="curve" smooth="yes"/>
      <point x="417" y="125"/>
      <point x="381" y="80"/>
    </contour>
  </outline>
</glyph>
<glyph name="semisoftsign-cy" format="2">
  <advance width="560"/>
  <unicode hex="048D"/>
  <outline>
    <contour>
      <point x="232" y="-11" type="curve" smooth="yes"/>
      <point x="417" y="-11"/>
      <point x="509" y="72"/>
      <point x="509" y="184" type="curve" smooth="yes"/>
      <point x="509" y="283"/>
      <point x="445" y="336"/>
      <point x="334" y="336" type="curve" smooth="yes"/>
      <point x="312" y="336"/>
      <point x="281" y="335"/>
      <point x="253" y="327" type="curve"/>
      <point x="269" y="394" type="line"/>
      <point x="413" y="394" type="line"/>
      <point x="435" y="487" type="line"/>
      <point x="291" y="487" type="line"/>
      <point x="305" y="547" type="line"/>
      <point x="169" y="547" type="line"/>
      <point x="154" y="487" type="line"/>
      <point x="94" y="487" type="line"/>
      <point x="71" y="394" type="line"/>
      <point x="132" y="394" type="line"/>
      <point x="41" y="13" type="line"/>
      <point x="111" y="-4"/>
      <point x="169" y="-11"/>
    </contour>
    <contour>
      <point x="256" y="96" type="curve" smooth="yes"/>
      <point x="234" y="96"/>
      <point x="223" y="97"/>
      <point x="198" y="101" type="curve"/>
      <point x="228" y="226" type="line"/>
      <point x="244" y="231"/>
      <point x="262" y="234"/>
      <point x="288" y="234" type="curve" smooth="yes"/>
      <point x="350" y="234"/>
      <point x="375" y="214"/>
      <point x="375" y="172" type="curve" smooth="yes"/>
      <point x="375" y="122"/>
      <point x="333" y="96"/>
    </contour>
  </outline>
</glyph>
<glyph name="Ertick-cy" format="2">
  <advance width="560"/>
  <unicode hex="048E"/>
  <outline>
    <contour>
      <point x="1" y="0" type="line"/>
      <point x="138" y="0" type="line"/>
      <point x="195" y="235" type="line"/>
      <point x="225" y="235" type="line" smooth="yes"/>
      <point x="268" y="235"/>
      <point x="309" y="239"/>
      <point x="346" y="246" type="curve"/>
      <point x="384" y="133" type="line"/>
      <point x="479" y="175" type="line"/>
      <point x="443" y="279" type="line"/>
      <point x="528" y="323"/>
      <point x="580" y="398"/>
      <point x="580" y="510" type="curve" smooth="yes"/>
      <point x="580" y="622"/>
      <point x="512" y="701"/>
      <point x="347" y="701" type="curve" smooth="yes"/>
      <point x="300" y="701"/>
      <point x="235" y="697"/>
      <point x="165" y="684" type="curve"/>
    </contour>
    <contour>
      <point x="221" y="347" type="line"/>
      <point x="277" y="578" type="line"/>
      <point x="297" y="581"/>
      <point x="310" y="581"/>
      <point x="330" y="581" type="curve" smooth="yes"/>
      <point x="419" y="581"/>
      <point x="445" y="545"/>
      <point x="445" y="486" type="curve" smooth="yes"/>
      <point x="445" y="444"/>
      <point x="433" y="411"/>
      <point x="405" y="388" type="curve"/>
      <point x="376" y="472" type="line"/>
      <point x="282" y="429" type="line"/>
      <point x="309" y="351" type="line"/>
      <point x="292" y="348"/>
      <point x="274" y="347"/>
      <point x="255" y="347" type="curve" smooth="yes"/>
    </contour>
  </outline>
</glyph>
<glyph name="Gemiddlehook-cy" format="2">
  <advance width="560"/>
  <unicode hex="0494"/>
  <outline>
    <contour>
      <point x="158" y="-185" type="curve" smooth="yes"/>
      <point x="399" y="-185"/>
      <point x="505" y="12"/>
      <point x="505" y="221" type="curve" smooth="yes"/>
      <point x="505" y="362"/>
      <point x="440" y="444"/>
      <point x="313" y="444" type="curve" smooth="yes"/>
      <point x="290" y="444"/>
      <point x="262" y="441"/>
      <point x="235" y="436" type="curve"/>
      <point x="270" y="579" type="line"/>
      <point x="533" y="579" type="line"/>
      <point x="559" y="693" type="line"/>
      <point x="158" y="693" type="line"/>
      <point x="-7" y="0" type="line"/>
      <point x="130" y="0" type="line"/>
      <point x="208" y="324" type="line"/>
      <point x="230" y="327"/>
      <point x="250" y="329"/>
      <point x="269" y="329" type="curve" smooth="yes"/>
      <point x="333" y="329"/>
      <point x="371" y="301"/>
      <point x="371" y="215" type="curve" smooth="yes"/>
      <point x="371" y="47"/>
      <point x="284" y="-66"/>
      <point x="176" y="-66" type="curve" smooth="yes"/>
      <point x="163" y="-66"/>
      <point x="150" y="-65"/>
      <point x="135" y="-62" type="curve"/>
      <point x="104" y="-178" type="line"/>
      <point x="122" y="-183"/>
      <point x="141" y="-185"/>
    </contour>
  </outline>
</glyph>
<glyph name="gemiddlehook-cy" format="2">
  <advance width="560"/>
  <unicode hex="0495"/>
  <outline>
    <contour>
      <point x="211" y="-190" type="curve" smooth="yes"/>
      <point x="422" y="-190"/>
      <point x="500" y="-20"/>
      <point x="500" y="124" type="curve" smooth="yes"/>
      <point x="500" y="231"/>
      <point x="449" y="323"/>
      <point x="318" y="323" type="curve" smooth="yes"/>
      <point x="296" y="323"/>
      <point x="259" y="319"/>
      <point x="234" y="314" type="curve"/>
      <point x="258" y="412" type="line"/>
      <point x="479" y="412" type="line"/>
      <point x="507" y="526" type="line"/>
      <point x="146" y="526" type="line"/>
      <point x="18" y="0" type="line"/>
      <point x="158" y="0" type="line"/>
      <point x="208" y="206" type="line"/>
      <point x="229" y="211"/>
      <point x="249" y="213"/>
      <point x="268" y="213" type="curve" smooth="yes"/>
      <point x="323" y="213"/>
      <point x="367" y="193"/>
      <point x="367" y="116" type="curve" smooth="yes"/>
      <point x="367" y="7"/>
      <point x="323" y="-86"/>
      <point x="204" y="-86" type="curve" smooth="yes"/>
      <point x="195" y="-86"/>
      <point x="182" y="-85"/>
      <point x="173" y="-83" type="curve"/>
      <point x="146" y="-181" type="line"/>
      <point x="167" y="-188"/>
      <point x="188" y="-190"/>
    </contour>
  </outline>
</glyph>
<glyph name="zhedescender-cy" format="2">
  <advance width="560"/>
  <unicode hex="0497"/>
  <outline>
    <contour>
      <point x="366" y="-144" type="line"/>
      <point x="462" y="-144" type="line"/>
      <point x="518" y="88" type="line"/>
      <point x="510" y="86"/>
      <point x="499" y="85"/>
      <point x="491" y="85" type="curve" smooth="yes"/>
      <point x="464" y="85"/>
      <point x="454" y="110"/>
      <point x="454" y="168" type="curve" smooth="yes"/>
      <point x="454" y="282"/>
      <point x="496" y="437"/>
      <point x="556" y="437" type="curve" smooth="yes"/>
      <point x="566" y="437"/>
      <point x="574" y="436"/>
      <point x="582" y="433" type="curve"/>
      <point x="603" y="528" type="line"/>
      <point x="586" y="534"/>
      <point x="568" y="536"/>
      <point x="550" y="536" type="curve" smooth="yes"/>
      <point x="452" y="536"/>
      <point x="413" y="422"/>
      <point x="384" y="308" type="curve"/>
      <point x="333" y="308" type="line"/>
      <point x="385" y="526" type="line"/>
      <point x="295" y="526" type="line"/>
      <point x="244" y="308" type="line"/>
      <point x="191" y="308" type="line"/>
      <point x="193" y="324"/>
      <point x="195" y="343"/>
      <point x="195" y="364" type="curve" smooth="yes"/>
      <point x="195" y="441"/>
      <point x="181" y="536"/>
      <point x="99" y="536" type="curve" smooth="yes"/>
      <point x="86" y="536"/>
      <point x="73" y="535"/>
      <point x="55" y="529" type="curve"/>
      <point x="46" y="436" type="line"/>
      <point x="52" y="437"/>
      <point x="58" y="438"/>
      <point x="66" y="438" type="curve" smooth="yes"/>
      <point x="91" y="438"/>
      <point x="101" y="407"/>
      <point x="101" y="364" type="curve" smooth="yes"/>
      <point x="101" y="244"/>
      <point x="59" y="87"/>
      <point x="-6" y="87" type="curve" smooth="yes"/>
      <point x="-20" y="87"/>
      <point x="-26" y="88"/>
      <point x="-32" y="92" type="curve"/>
      <point x="-51" y="1" type="line"/>
      <point x="-27" y="-9"/>
      <point x="-16" y="-10"/>
      <point x="2" y="-10" type="curve" smooth="yes"/>
      <point x="114" y="-10"/>
      <point x="145" y="106"/>
      <point x="175" y="225" type="curve"/>
      <point x="225" y="225" type="line"/>
      <point x="172" y="0" type="line"/>
      <point x="262" y="0" type="line"/>
      <point x="315" y="225" type="line"/>
      <point x="366" y="225" type="line"/>
      <point x="363" y="199"/>
      <point x="360" y="177"/>
      <point x="360" y="148" type="curve" smooth="yes"/>
      <point x="360" y="95"/>
      <point x="365" y="34"/>
      <point x="403" y="7" type="curve"/>
    </contour>
  </outline>
</glyph>
<glyph name="Zedescender-cy" format="2">
  <advance width="560"/>
  <unicode hex="0498"/>
  <outline>
    <contour>
      <point x="144" y="-190" type="curve" smooth="yes"/>
      <point x="223" y="-190"/>
      <point x="282" y="-155"/>
      <point x="282" y="-94" type="curve" smooth="yes"/>
      <point x="282" y="-67"/>
      <point x="269" y="-45"/>
      <point x="237" y="-28" type="curve"/>
      <point x="240" y="-22"/>
      <point x="244" y="-17"/>
      <point x="248" y="-11" type="curve"/>
      <point x="445" y="9"/>
      <point x="502" y="127"/>
      <point x="502" y="224" type="curve" smooth="yes"/>
      <point x="502" y="270"/>
      <point x="486" y="332"/>
      <point x="403" y="368" type="curve"/>
      <point x="508" y="402"/>
      <point x="547" y="473"/>
      <point x="547" y="552" type="curve" smooth="yes"/>
      <point x="547" y="631"/>
      <point x="502" y="708"/>
      <point x="353" y="708" type="curve" smooth="yes"/>
      <point x="263" y="708"/>
      <point x="197" y="691"/>
      <point x="134" y="662" type="curve"/>
      <point x="158" y="548" type="line"/>
      <point x="216" y="577"/>
      <point x="270" y="589"/>
      <point x="319" y="589" type="curve" smooth="yes"/>
      <point x="374" y="589"/>
      <point x="409" y="568"/>
      <point x="409" y="528" type="curve" smooth="yes"/>
      <point x="409" y="444"/>
      <point x="324" y="416"/>
      <point x="247" y="416" type="curve" smooth="yes"/>
      <point x="163" y="416" type="line"/>
      <point x="137" y="302" type="line"/>
      <point x="240" y="302" type="line" smooth="yes"/>
      <point x="324" y="302"/>
      <point x="365" y="270"/>
      <point x="365" y="217" type="curve" smooth="yes"/>
      <point x="365" y="159"/>
      <point x="314" y="105"/>
      <point x="200" y="105" type="curve" smooth="yes"/>
      <point x="136" y="105"/>
      <point x="85" y="119"/>
      <point x="32" y="152" type="curve"/>
      <point x="-32" y="43" type="line"/>
      <point x="24" y="10"/>
      <point x="79" y="-9"/>
      <point x="153" y="-13" type="curve"/>
      <point x="146" y="-24"/>
      <point x="138" y="-35"/>
      <point x="130" y="-48" type="curve"/>
      <point x="151" y="-55" type="line" smooth="yes"/>
      <point x="173" y="-63"/>
      <point x="180" y="-74"/>
      <point x="180" y="-90" type="curve" smooth="yes"/>
      <point x="180" y="-100"/>
      <point x="171" y="-118"/>
      <point x="137" y="-118" type="curve" smooth="yes"/>
      <point x="117" y="-118"/>
      <point x="94" y="-112"/>
      <point x="77" y="-103" type="curve"/>
      <point x="48" y="-168" type="line"/>
      <point x="76" y="-183"/>
      <point x="108" y="-190"/>
    </contour>
  </outline>
</glyph>
<glyph name="Kadescender-cy" format="2">
  <advance width="560"/>
  <unicode hex="049A"/>
  <outline>
    <contour>
      <point x="322" y="-185" type="line"/>
      <point x="440" y="-185" type="line"/>
      <point x="510" y="111" type="line"/>
      <point x="454" y="111" type="line"/>
      <point x="421" y="205"/>
      <point x="382" y="297"/>
      <point x="332" y="361" type="curve"/>
      <point x="449" y="465"/>
      <point x="557" y="601"/>
      <point x="624" y="693" type="curve"/>
      <point x="470" y="693" type="line"/>
      <point x="416" y="613"/>
      <point x="320" y="487"/>
      <point x="227" y="404" type="curve"/>
      <point x="296" y="693" type="line"/>
      <point x="161" y="693" type="line"/>
      <point x="-5" y="0" type="line"/>
      <point x="130" y="0" type="line"/>
      <point x="208" y="325" type="line"/>
      <point x="272" y="252"/>
      <point x="325" y="105"/>
      <point x="346" y="0" type="curve"/>
      <point x="367" y="0" type="line"/>
    </contour>
  </outline>
</glyph>
<glyph name="kadescender-cy" format="2">
  <advance width="560"/>
  <unicode hex="049B"/>
  <outline>
    <contour>
      <point x="325" y="-144" type="line"/>
      <point x="442" y="-144" type="line"/>
      <point x="505" y="111" type="line"/>
      <point x="442" y="111" type="line"/>
      <point x="412" y="176"/>
      <point x="376" y="243"/>
      <point x="343" y="284" type="curve"/>
      <point x="424" y="352"/>
      <point x="518" y="440"/>
      <point x="590" y="526" type="curve"/>
      <point x="432" y="526" type="line"/>
      <point x="381" y="463"/>
      <point x="288" y="370"/>
      <point x="234" y="325" type="curve"/>
      <point x="281" y="526" type="line"/>
      <point x="145" y="526" type="line"/>
      <point x="18" y="0" type="line"/>
      <point x="155" y="0" type="line"/>
      <point x="216" y="254" type="line"/>
      <point x="260" y="200"/>
      <point x="314" y="76"/>
      <point x="338" y="0" type="curve"/>
      <point x="361" y="0" type="line"/>
    </contour>
  </outline>
</glyph>
<glyph name="Kaverticalstroke-cy" format="2">
  <advance width="560"/>
  <unicode hex="049C"/>
  <outline>
    <contour>
      <point x="-25" y="0" type="line"/>
      <point x="99" y="0" type="line"/>
      <point x="174" y="314" type="line"/>
      <point x="219" y="314" type="line"/>
      <point x="183" y="164" type="line"/>
      <point x="260" y="164" type="line"/>
      <point x="297" y="318" type="line"/>
      <point x="325" y="246"/>
      <point x="365" y="124"/>
      <point x="378" y="0" type="curve"/>
      <point x="501" y="0" type="line"/>
      <point x="480" y="153"/>
      <point x="445" y="259"/>
      <point x="403" y="360" type="curve"/>
      <point x="510" y="475"/>
      <point x="600" y="613"/>
      <point x="643" y="693" type="curve"/>
      <point x="511" y="693" type="line"/>
      <point x="459" y="595"/>
      <point x="393" y="498"/>
      <point x="318" y="402" type="curve"/>
      <point x="356" y="563" type="line"/>
      <point x="279" y="563" type="line"/>
      <point x="242" y="410" type="line"/>
      <point x="197" y="410" type="line"/>
      <point x="265" y="693" type="line"/>
      <point x="141" y="693" type="line"/>
    </contour>
  </outline>
</glyph>
<glyph name="Kabashkir-cy" format="2">
  <advance width="560"/>
  <unicode hex="04A0"/>
  <outline>
    <contour>
      <point x="49" y="0" type="line"/>
      <point x="179" y="0" type="line"/>
      <point x="256" y="321" type="line"/>
      <point x="307" y="251"/>
      <point x="346" y="105"/>
      <point x="366" y="0" type="curve"/>
      <point x="503" y="0" type="line"/>
      <point x="477" y="129"/>
      <point x="435" y="274"/>
      <point x="376" y="363" type="curve"/>
      <point x="484" y="467"/>
      <point x="580" y="601"/>
      <point x="647" y="693" type="curve"/>
      <point x="497" y="693" type="line"/>
      <point x="443" y="613"/>
      <point x="356" y="488"/>
      <point x="276" y="405" type="curve"/>
      <point x="346" y="693" type="line"/>
      <point x="119" y="693" type="line"/>
      <point x="92" y="579" type="line"/>
      <point x="188" y="579" type="line"/>
    </contour>
  </outline>
</glyph>
<glyph name="kabashkir-cy" format="2">
  <advance width="560"/>
  <unicode hex="04A1"/>
  <outline>
    <contour>
      <point x="49" y="0" type="line"/>
      <point x="178" y="0" type="line"/>
      <point x="239" y="254" type="line"/>
      <point x="283" y="200"/>
      <point x="324" y="76"/>
      <point x="348" y="0" type="curve"/>
      <point x="496" y="0" type="line"/>
      <point x="466" y="86"/>
      <point x="415" y="218"/>
      <point x="362" y="284" type="curve"/>
      <point x="443" y="352"/>
      <point x="524" y="440"/>
      <point x="595" y="526" type="curve"/>
      <point x="442" y="526" type="line"/>
      <point x="391" y="463"/>
      <point x="312" y="371"/>
      <point x="255" y="321" type="curve"/>
      <point x="304" y="526" type="line"/>
      <point x="89" y="526" type="line"/>
      <point x="62" y="416" type="line"/>
      <point x="150" y="416" type="line"/>
    </contour>
  </outline>
</glyph>
<glyph name="enge-cy" format="2">
  <advance width="560"/>
  <unicode hex="04A5"/>
  <outline>
    <contour>
      <point x="3" y="0" type="line"/>
      <point x="141" y="0" type="line"/>
      <point x="190" y="208" type="line"/>
      <point x="291" y="208" type="line"/>
      <point x="242" y="0" type="line"/>
      <point x="380" y="0" type="line"/>
      <point x="479" y="416" type="line"/>
      <point x="571" y="416" type="line"/>
      <point x="599" y="526" type="line"/>
      <point x="368" y="526" type="line"/>
      <point x="319" y="323" type="line"/>
      <point x="218" y="323" type="line"/>
      <point x="267" y="526" type="line"/>
      <point x="129" y="526" type="line"/>
    </contour>
  </outline>
</glyph>
<glyph name="pemiddlehook-cy" format="2">
  <advance width="560"/>
  <unicode hex="04A7"/>
  <outline>
    <contour>
      <point x="253" y="-185" type="curve" smooth="yes"/>
      <point x="455" y="-185"/>
      <point x="512" y="28"/>
      <point x="512" y="175" type="curve" smooth="yes"/>
      <point x="512" y="284"/>
      <point x="455" y="328"/>
      <point x="386" y="328" type="curve" smooth="yes"/>
      <point x="374" y="328"/>
      <point x="363" y="326"/>
      <point x="352" y="324" type="curve"/>
      <point x="357" y="351"/>
      <point x="360" y="377"/>
      <point x="360" y="401" type="curve" smooth="yes"/>
      <point x="360" y="479"/>
      <point x="328" y="538"/>
      <point x="221" y="538" type="curve" smooth="yes"/>
      <point x="172" y="538"/>
      <point x="118" y="525"/>
      <point x="73" y="512" type="curve"/>
      <point x="-50" y="0" type="line"/>
      <point x="58" y="0" type="line"/>
      <point x="161" y="426" type="line"/>
      <point x="176" y="431"/>
      <point x="189" y="435"/>
      <point x="201" y="435" type="curve" smooth="yes"/>
      <point x="240" y="435"/>
      <point x="253" y="413"/>
      <point x="253" y="382" type="curve" smooth="yes"/>
      <point x="253" y="357"/>
      <point x="245" y="326"/>
      <point x="237" y="295" type="curve" smooth="yes"/>
      <point x="166" y="0" type="line"/>
      <point x="274" y="0" type="line"/>
      <point x="328" y="222" type="line"/>
      <point x="333" y="223"/>
      <point x="339" y="224"/>
      <point x="346" y="224" type="curve" smooth="yes"/>
      <point x="384" y="224"/>
      <point x="402" y="203"/>
      <point x="402" y="140" type="curve" smooth="yes"/>
      <point x="402" y="50"/>
      <point x="366" y="-81"/>
      <point x="272" y="-81" type="curve" smooth="yes"/>
      <point x="260" y="-81"/>
      <point x="254" y="-81"/>
      <point x="245" y="-80" type="curve"/>
      <point x="216" y="-183" type="line"/>
      <point x="227" y="-184"/>
      <point x="240" y="-185"/>
    </contour>
  </outline>
</glyph>
<glyph name="Haabkhasian-cy" format="2">
  <advance width="560"/>
  <unicode hex="04A8"/>
  <outline>
    <contour>
      <point x="417" y="-184" type="curve"/>
      <point x="450" y="-82" type="line"/>
      <point x="379" y="-72"/>
      <point x="330" y="-41"/>
      <point x="313" y="1" type="curve"/>
      <point x="478" y="44"/>
      <point x="558" y="199"/>
      <point x="558" y="351" type="curve" smooth="yes"/>
      <point x="558" y="439"/>
      <point x="514" y="500"/>
      <point x="426" y="500" type="curve" smooth="yes"/>
      <point x="253" y="500"/>
      <point x="189" y="239"/>
      <point x="188" y="108" type="curve"/>
      <point x="153" y="122"/>
      <point x="142" y="175"/>
      <point x="142" y="220" type="curve" smooth="yes"/>
      <point x="142" y="385"/>
      <point x="219" y="589"/>
      <point x="404" y="589" type="curve" smooth="yes"/>
      <point x="447" y="589"/>
      <point x="477" y="586"/>
      <point x="506" y="575" type="curve"/>
      <point x="553" y="683" type="line"/>
      <point x="517" y="698"/>
      <point x="481" y="709"/>
      <point x="402" y="709" type="curve" smooth="yes"/>
      <point x="144" y="709"/>
      <point x="18" y="439"/>
      <point x="18" y="224" type="curve" smooth="yes"/>
      <point x="18" y="100"/>
      <point x="79" y="11"/>
      <point x="192" y="-2" type="curve"/>
      <point x="216" y="-103"/>
      <point x="305" y="-184"/>
    </contour>
    <contour>
      <point x="300" y="102" type="curve"/>
      <point x="300" y="204"/>
      <point x="340" y="389"/>
      <point x="407" y="389" type="curve" smooth="yes"/>
      <point x="430" y="389"/>
      <point x="438" y="370"/>
      <point x="438" y="343" type="curve" smooth="yes"/>
      <point x="438" y="248"/>
      <point x="393" y="132"/>
    </contour>
  </outline>
</glyph>
